<?xml version="1.0" encoding="utf-8"?>
<!-- Generator: Adobe Illustrator 26.0.2, SVG Export Plug-In . SVG Version: 6.00 Build 0)  -->
<svg version="1.1" id="Layer_1" xmlns="http://www.w3.org/2000/svg" xmlns:xlink="http://www.w3.org/1999/xlink" x="0px" y="0px"
	 viewBox="0 0 15.16 20.88" style="enable-background:new 0 0 15.16 20.88;" xml:space="preserve">
<style type="text/css">
	.st0{fill:#58595B;}
	.st1{fill:#FFFFFF;}
</style>
<circle class="st0" cx="7.61" cy="7.07" r="7.03"/>
<path class="st0" d="M9.01,15.74v4.72c0,0.2-0.16,0.37-0.37,0.37H6.57c-0.2,0-0.37-0.16-0.37-0.37v-4.72c0-0.2,0.16-0.37,0.37-0.37
	h2.07C8.84,15.37,9.01,15.53,9.01,15.74z"/>
<path class="st0" d="M9.96,19.5l-4.72,0c-0.2,0-0.37-0.16-0.37-0.37l0-2.07c0-0.2,0.16-0.37,0.37-0.37h4.72
	c0.2,0,0.37,0.16,0.37,0.37v2.07C10.33,19.33,10.17,19.5,9.96,19.5z"/>
<circle class="st1" cx="7.61" cy="7.07" r="3.89"/>
</svg>
