<?xml version="1.0" encoding="utf-8"?>
<!-- Generator: Adobe Illustrator 26.0.2, SVG Export Plug-In . SVG Version: 6.00 Build 0)  -->
<svg version="1.1" id="Layer_3" xmlns="http://www.w3.org/2000/svg" xmlns:xlink="http://www.w3.org/1999/xlink" x="0px" y="0px"
	 viewBox="0 0 335.63 518.83" style="enable-background:new 0 0 335.63 518.83;" xml:space="preserve">
<style type="text/css">
	.st0{fill:#067A00;}
	.st1{fill:#0015AA;}
	.st2{fill:#8102A0;}
	.st3{fill:#DD0000;}
	.st4{fill:#DDDD00;}
	.st5{fill:#BABABA;}
	.st6{fill:#A0A0A0;}
	.st7{opacity:0.75;fill:#CCCCCC;}
	.st8{fill:none;stroke:#666666;stroke-miterlimit:10;}
	.st9{fill:#666666;}
	.st10{fill:#848383;}
	.st11{fill:none;stroke:#606060;stroke-width:0.75;stroke-linecap:round;stroke-miterlimit:10;}
	.st12{opacity:0.5;fill:#FFFFFF;}
	.st13{fill:#7C7C7C;}
</style>
<path class="st0" d="M198.04,407.57c-10.35,0-19.07-8.04-19.76-18.52l-7.23-109.92c-0.06-0.86-0.06-1.72,0-2.58l7.23-112.12
	c0.7-10.92,10.09-19.21,21.05-18.5c10.92,0.7,19.21,10.13,18.5,21.05l-7.14,110.83l7.14,108.63c0.72,10.92-7.55,20.36-18.48,21.08
	C198.92,407.56,198.48,407.57,198.04,407.57z"/>
<path class="st1" d="M191.02,411.44c-10.35,0-19.07-8.04-19.76-18.52l-7.23-109.92c-0.06-0.86-0.06-1.72,0-2.58l7.23-112.12
	c0.7-10.92,10.09-19.21,21.05-18.5c10.92,0.7,19.21,10.13,18.5,21.05l-7.14,110.83l7.14,108.63c0.72,10.92-7.55,20.36-18.48,21.08
	C191.9,411.43,191.46,411.44,191.02,411.44z"/>
<path class="st2" d="M184.71,414.22c-10.35,0-19.07-8.04-19.76-18.52l-7.23-109.92c-0.06-0.86-0.06-1.72,0-2.58l7.23-112.12
	c0.7-10.92,10.09-19.21,21.05-18.5c10.92,0.7,19.21,10.13,18.5,21.05l-7.14,110.83l7.14,108.63c0.72,10.92-7.55,20.36-18.48,21.08
	C185.59,414.21,185.14,414.22,184.71,414.22z"/>
<path class="st3" d="M177.28,418.42c-10.35,0-19.07-8.04-19.76-18.52l-7.23-109.92c-0.06-0.86-0.06-1.72,0-2.58l7.23-112.12
	c0.7-10.92,10.09-19.21,21.05-18.5c10.92,0.7,19.21,10.13,18.5,21.05l-7.14,110.83l7.14,108.63c0.72,10.92-7.55,20.36-18.48,21.08
	C178.16,418.4,177.72,418.42,177.28,418.42z"/>
<path class="st4" d="M170.36,420.87c-10.35,0-19.07-8.04-19.76-18.52l-7.23-109.92c-0.06-0.86-0.06-1.72,0-2.58l7.23-112.12
	c0.7-10.92,10.09-19.21,21.05-18.5c10.92,0.7,19.21,10.13,18.5,21.05l-7.14,110.83l7.14,108.63c0.72,10.92-7.55,20.36-18.48,21.08
	C171.24,420.86,170.8,420.87,170.36,420.87z"/>
<path class="st5" d="M163.8,422.7c-10.35,0-19.07-8.04-19.76-18.52l-7.23-109.92c-0.06-0.86-0.06-1.72,0-2.58l7.23-112.12
	c0.7-10.92,10.09-19.21,21.05-18.5c10.92,0.7,19.21,10.13,18.5,21.05l-7.14,110.83l7.14,108.63c0.72,10.92-7.55,20.36-18.48,21.08
	C164.68,422.69,164.24,422.7,163.8,422.7z"/>
<path class="st6" d="M115.23,422.7c-0.43,0-0.87-0.01-1.3-0.04c-10.92-0.71-19.2-10.14-18.49-21.06l7.14-109.98l-7.14-104.89
	c-0.74-10.92,7.51-20.38,18.43-21.12c10.92-0.75,20.38,7.51,21.12,18.43l7.23,106.2c0.06,0.88,0.06,1.75,0,2.63l-7.23,111.3
	C134.31,414.65,125.59,422.7,115.23,422.7z"/>
<path class="st7" d="M139.36,275.61c-0.25,0-0.49-0.01-0.73-0.04l-42.15-4.45c-3.84-0.41-6.63-3.85-6.23-7.7
	c0.41-3.84,3.85-6.63,7.7-6.23l41.41,4.37l41.25-4.37c3.84-0.41,7.29,2.38,7.7,6.22c0.41,3.84-2.38,7.29-6.22,7.7l-41.98,4.45
	C139.85,275.6,139.61,275.61,139.36,275.61z"/>
<path class="st7" d="M139.36,294.01c-0.25,0-0.49-0.01-0.73-0.04l-42.15-4.45c-3.84-0.41-6.63-3.85-6.23-7.7s3.85-6.63,7.7-6.23
	l41.41,4.37l41.25-4.37c3.85-0.4,7.29,2.38,7.7,6.22c0.41,3.84-2.38,7.29-6.22,7.7l-41.98,4.45
	C139.85,294,139.61,294.01,139.36,294.01z"/>
<path class="st7" d="M139.36,335.08c-0.25,0-0.49-0.01-0.73-0.04l-42.15-4.45c-3.84-0.41-6.63-3.85-6.23-7.7s3.85-6.63,7.7-6.23
	l41.41,4.37l41.25-4.37c3.85-0.41,7.29,2.38,7.7,6.22c0.41,3.84-2.38,7.29-6.22,7.7l-41.98,4.45
	C139.85,335.07,139.61,335.08,139.36,335.08z"/>
<g>
	<g>
		<line class="st8" x1="35.17" y1="158.79" x2="35.17" y2="421.02"/>
		<g>
			<polygon class="st9" points="31.08,162.1 31.81,162.78 35.17,159.17 38.53,162.78 39.26,162.1 35.17,157.7 			"/>
		</g>
		<g>
			<rect x="31.92" y="420.52" class="st9" width="6.5" height="1"/>
		</g>
	</g>
</g>
<g>
	<path class="st10" d="M238.7,418.55c-0.32,0-0.57-0.09-0.74-0.26s-0.26-0.43-0.26-0.76v-6.05c0-0.33,0.09-0.58,0.26-0.75
		c0.17-0.17,0.41-0.26,0.72-0.26c0.31,0,0.55,0.09,0.72,0.26c0.17,0.17,0.26,0.42,0.26,0.75v1.09l-0.18-0.4
		c0.23-0.57,0.6-1,1.1-1.29s1.06-0.44,1.69-0.44s1.15,0.12,1.55,0.35s0.71,0.59,0.91,1.06c0.2,0.48,0.3,1.08,0.3,1.8v3.87
		c0,0.33-0.09,0.58-0.26,0.76c-0.17,0.18-0.42,0.26-0.74,0.26s-0.57-0.09-0.74-0.26c-0.18-0.18-0.26-0.43-0.26-0.76v-3.78
		c0-0.61-0.11-1.05-0.34-1.33s-0.58-0.42-1.06-0.42c-0.59,0-1.05,0.18-1.4,0.55s-0.52,0.86-0.52,1.46v3.5
		C239.71,418.21,239.37,418.55,238.7,418.55z"/>
	<path class="st10" d="M249.64,418.58c-0.57,0-1.07-0.11-1.51-0.33c-0.44-0.22-0.79-0.51-1.04-0.89c-0.25-0.37-0.38-0.79-0.38-1.26
		c0-0.58,0.15-1.03,0.45-1.37c0.3-0.34,0.78-0.58,1.46-0.73c0.67-0.15,1.57-0.22,2.7-0.22h0.8v1.15h-0.78
		c-0.66,0-1.19,0.03-1.58,0.1c-0.4,0.06-0.67,0.17-0.84,0.33c-0.17,0.16-0.25,0.37-0.25,0.65c0,0.35,0.12,0.64,0.37,0.86
		c0.25,0.22,0.59,0.34,1.02,0.34c0.35,0,0.66-0.08,0.94-0.25c0.27-0.17,0.49-0.39,0.65-0.68c0.16-0.29,0.24-0.62,0.24-0.99v-1.84
		c0-0.53-0.12-0.92-0.35-1.15c-0.23-0.23-0.63-0.35-1.18-0.35c-0.31,0-0.64,0.04-1,0.11c-0.36,0.08-0.73,0.2-1.13,0.38
		c-0.2,0.1-0.38,0.12-0.54,0.08c-0.15-0.04-0.27-0.13-0.36-0.26c-0.09-0.13-0.13-0.28-0.13-0.44c0-0.16,0.04-0.32,0.13-0.47
		c0.09-0.15,0.23-0.27,0.43-0.34c0.49-0.2,0.96-0.35,1.42-0.43c0.45-0.08,0.87-0.13,1.24-0.13c0.77,0,1.4,0.12,1.9,0.35
		c0.5,0.23,0.87,0.59,1.11,1.06c0.25,0.48,0.37,1.09,0.37,1.83v3.84c0,0.33-0.08,0.58-0.24,0.76s-0.39,0.26-0.69,0.26
		c-0.3,0-0.53-0.09-0.7-0.26c-0.17-0.18-0.25-0.43-0.25-0.76v-0.77h0.13c-0.07,0.37-0.22,0.7-0.44,0.97
		c-0.22,0.27-0.49,0.48-0.82,0.63C250.45,418.5,250.07,418.58,249.64,418.58z"/>
	<path class="st10" d="M259.4,418.58c-0.69,0-1.27-0.12-1.74-0.35c-0.46-0.23-0.81-0.58-1.03-1.03c-0.22-0.45-0.34-1.02-0.34-1.69
		v-3.41h-0.83c-0.26,0-0.45-0.07-0.59-0.2c-0.14-0.13-0.21-0.32-0.21-0.55c0-0.25,0.07-0.43,0.21-0.56
		c0.14-0.13,0.34-0.19,0.59-0.19h0.83v-1.46c0-0.33,0.09-0.58,0.26-0.75c0.18-0.17,0.42-0.26,0.74-0.26c0.32,0,0.57,0.09,0.74,0.26
		c0.17,0.17,0.26,0.42,0.26,0.75v1.46h1.7c0.26,0,0.45,0.06,0.59,0.19c0.14,0.13,0.21,0.31,0.21,0.56c0,0.24-0.07,0.42-0.21,0.55
		c-0.14,0.13-0.34,0.2-0.59,0.2h-1.7v3.3c0,0.51,0.11,0.9,0.34,1.15s0.59,0.38,1.09,0.38c0.18,0,0.34-0.02,0.48-0.05
		s0.26-0.05,0.37-0.06c0.13-0.01,0.23,0.03,0.32,0.12c0.09,0.09,0.13,0.28,0.13,0.55c0,0.21-0.04,0.4-0.1,0.57
		c-0.07,0.17-0.19,0.28-0.38,0.34c-0.14,0.04-0.32,0.08-0.54,0.12C259.77,418.56,259.57,418.58,259.4,418.58z"/>
	<path class="st10" d="M263.16,408.99c-0.37,0-0.66-0.09-0.87-0.28s-0.31-0.45-0.31-0.78c0-0.34,0.1-0.6,0.31-0.78
		s0.5-0.27,0.87-0.27c0.38,0,0.68,0.09,0.88,0.27c0.2,0.18,0.3,0.44,0.3,0.78c0,0.33-0.1,0.59-0.3,0.78
		C263.84,408.9,263.55,408.99,263.16,408.99z M263.16,418.53c-0.32,0-0.57-0.1-0.74-0.29c-0.17-0.19-0.26-0.46-0.26-0.8v-5.87
		c0-0.35,0.09-0.62,0.26-0.81s0.42-0.28,0.74-0.28c0.32,0,0.57,0.09,0.74,0.28c0.18,0.19,0.26,0.46,0.26,0.81v5.87
		c0,0.34-0.09,0.61-0.26,0.8C263.74,418.43,263.49,418.53,263.16,418.53z"/>
	<path class="st10" d="M269.42,418.55c-0.27,0-0.5-0.07-0.7-0.21c-0.2-0.14-0.36-0.35-0.49-0.64l-2.54-5.9
		c-0.1-0.23-0.13-0.45-0.1-0.66c0.03-0.2,0.12-0.37,0.29-0.49c0.17-0.12,0.39-0.18,0.68-0.18c0.25,0,0.44,0.06,0.59,0.17
		s0.28,0.32,0.4,0.63l2.16,5.39h-0.48l2.22-5.41c0.12-0.3,0.25-0.5,0.41-0.62s0.37-0.17,0.63-0.17c0.23,0,0.42,0.06,0.56,0.18
		c0.14,0.12,0.22,0.28,0.26,0.48c0.03,0.2-0.01,0.41-0.11,0.65l-2.59,5.92c-0.12,0.29-0.27,0.5-0.47,0.64
		S269.69,418.55,269.42,418.55z"/>
	<path class="st10" d="M278.38,418.58c-0.89,0-1.65-0.17-2.29-0.5c-0.64-0.33-1.13-0.8-1.48-1.41c-0.35-0.61-0.52-1.33-0.52-2.16
		c0-0.81,0.17-1.52,0.5-2.13c0.34-0.61,0.8-1.08,1.39-1.43c0.59-0.35,1.27-0.52,2.02-0.52c0.55,0,1.05,0.09,1.5,0.27
		c0.44,0.18,0.82,0.44,1.14,0.78c0.31,0.34,0.55,0.75,0.72,1.24c0.17,0.49,0.25,1.03,0.25,1.64c0,0.19-0.07,0.34-0.2,0.44
		c-0.13,0.1-0.32,0.15-0.57,0.15h-5.14v-1.15h4.5l-0.26,0.24c0-0.49-0.07-0.9-0.22-1.23c-0.14-0.33-0.35-0.58-0.62-0.76
		c-0.27-0.18-0.61-0.26-1.02-0.26c-0.45,0-0.83,0.1-1.14,0.31s-0.55,0.5-0.72,0.88c-0.17,0.38-0.25,0.83-0.25,1.35v0.11
		c0,0.88,0.21,1.53,0.62,1.96c0.41,0.43,1.02,0.65,1.82,0.65c0.28,0,0.59-0.03,0.94-0.1s0.67-0.19,0.98-0.36
		c0.22-0.13,0.42-0.18,0.59-0.17c0.17,0.02,0.31,0.08,0.41,0.18c0.1,0.11,0.16,0.24,0.18,0.39c0.02,0.15-0.01,0.31-0.09,0.47
		c-0.08,0.16-0.22,0.3-0.41,0.42c-0.37,0.24-0.8,0.41-1.29,0.52C279.24,418.52,278.79,418.58,278.38,418.58z"/>
	<path class="st10" d="M238.73,437.75c-0.32,0-0.57-0.09-0.74-0.26c-0.17-0.18-0.26-0.43-0.26-0.76v-6.05
		c0-0.33,0.09-0.58,0.26-0.75c0.17-0.17,0.41-0.26,0.72-0.26s0.55,0.09,0.72,0.26c0.17,0.17,0.26,0.42,0.26,0.75v1.17l-0.18-0.48
		c0.21-0.53,0.54-0.96,0.99-1.26c0.45-0.31,0.98-0.46,1.6-0.46c0.63,0,1.15,0.15,1.55,0.45c0.41,0.3,0.69,0.76,0.85,1.38h-0.22
		c0.21-0.57,0.56-1.01,1.06-1.34s1.06-0.49,1.7-0.49c0.6,0,1.09,0.12,1.48,0.35c0.39,0.23,0.68,0.59,0.87,1.06
		c0.19,0.48,0.29,1.08,0.29,1.8v3.87c0,0.33-0.09,0.58-0.26,0.76c-0.18,0.18-0.42,0.26-0.74,0.26s-0.57-0.09-0.74-0.26
		c-0.17-0.18-0.26-0.43-0.26-0.76v-3.79c0-0.6-0.1-1.03-0.3-1.31s-0.53-0.42-1-0.42c-0.52,0-0.93,0.18-1.23,0.55
		c-0.3,0.37-0.45,0.88-0.45,1.53v3.44c0,0.33-0.09,0.58-0.26,0.76s-0.42,0.26-0.74,0.26s-0.57-0.09-0.74-0.26
		c-0.18-0.18-0.26-0.43-0.26-0.76v-3.79c0-0.6-0.1-1.03-0.3-1.31s-0.53-0.42-0.98-0.42c-0.52,0-0.93,0.18-1.23,0.55
		c-0.3,0.37-0.45,0.88-0.45,1.53v3.44C239.74,437.41,239.4,437.75,238.73,437.75z"/>
	<path class="st10" d="M254.57,437.78c-0.65,0-1.19-0.12-1.62-0.36s-0.74-0.6-0.95-1.08c-0.21-0.48-0.31-1.08-0.31-1.79v-3.87
		c0-0.34,0.08-0.59,0.26-0.76c0.17-0.17,0.42-0.25,0.74-0.25c0.32,0,0.57,0.08,0.74,0.25c0.18,0.17,0.26,0.42,0.26,0.76v3.9
		c0,0.55,0.11,0.97,0.34,1.23c0.22,0.27,0.58,0.4,1.07,0.4c0.53,0,0.97-0.18,1.31-0.55s0.51-0.86,0.51-1.46v-3.52
		c0-0.34,0.08-0.59,0.26-0.76c0.17-0.17,0.42-0.25,0.74-0.25c0.32,0,0.57,0.08,0.74,0.25c0.18,0.17,0.26,0.42,0.26,0.76v6.05
		c0,0.68-0.33,1.02-0.98,1.02c-0.31,0-0.55-0.09-0.72-0.26c-0.17-0.18-0.26-0.43-0.26-0.76v-1.22l0.22,0.48
		c-0.22,0.58-0.56,1.02-1.02,1.33C255.72,437.62,255.19,437.78,254.57,437.78z"/>
	<path class="st10" d="M263.67,437.78c-0.89,0-1.55-0.25-2-0.76c-0.45-0.51-0.67-1.25-0.67-2.23v-7.57c0-0.33,0.09-0.58,0.26-0.75
		c0.17-0.17,0.42-0.26,0.74-0.26c0.32,0,0.57,0.09,0.74,0.26c0.18,0.17,0.26,0.42,0.26,0.75v7.47c0,0.49,0.1,0.85,0.31,1.09
		s0.5,0.35,0.89,0.35c0.08,0,0.17,0,0.24-0.01c0.07,0,0.15-0.01,0.22-0.02c0.15-0.02,0.25,0.02,0.3,0.12
		c0.05,0.1,0.08,0.31,0.08,0.62c0,0.27-0.05,0.47-0.16,0.62c-0.11,0.15-0.28,0.24-0.53,0.27c-0.11,0.01-0.22,0.02-0.34,0.03
		C263.91,437.77,263.79,437.78,263.67,437.78z"/>
	<path class="st10" d="M269.48,437.78c-0.69,0-1.27-0.12-1.74-0.35c-0.46-0.23-0.81-0.58-1.03-1.03c-0.22-0.45-0.34-1.02-0.34-1.69
		v-3.41h-0.83c-0.26,0-0.45-0.07-0.59-0.2c-0.14-0.13-0.21-0.32-0.21-0.55c0-0.25,0.07-0.43,0.21-0.56
		c0.14-0.13,0.34-0.19,0.59-0.19h0.83v-1.46c0-0.33,0.09-0.58,0.26-0.75c0.18-0.17,0.42-0.26,0.74-0.26c0.32,0,0.57,0.09,0.74,0.26
		c0.17,0.17,0.26,0.42,0.26,0.75v1.46h1.7c0.26,0,0.45,0.06,0.59,0.19c0.14,0.13,0.21,0.31,0.21,0.56c0,0.24-0.07,0.42-0.21,0.55
		c-0.14,0.13-0.34,0.2-0.59,0.2h-1.7v3.3c0,0.51,0.11,0.9,0.34,1.15s0.59,0.38,1.09,0.38c0.18,0,0.34-0.02,0.48-0.05
		s0.26-0.05,0.37-0.06c0.13-0.01,0.23,0.03,0.32,0.12c0.09,0.09,0.13,0.28,0.13,0.55c0,0.21-0.04,0.4-0.1,0.57
		c-0.07,0.17-0.19,0.28-0.38,0.34c-0.14,0.04-0.32,0.08-0.54,0.12C269.85,437.76,269.65,437.78,269.48,437.78z"/>
	<path class="st10" d="M273.24,428.19c-0.37,0-0.66-0.09-0.87-0.28s-0.31-0.45-0.31-0.78c0-0.34,0.1-0.6,0.31-0.78
		s0.5-0.27,0.87-0.27c0.38,0,0.68,0.09,0.88,0.27c0.2,0.18,0.3,0.44,0.3,0.78c0,0.33-0.1,0.59-0.3,0.78
		C273.92,428.1,273.63,428.19,273.24,428.19z M273.24,437.73c-0.32,0-0.57-0.1-0.74-0.29c-0.17-0.19-0.26-0.46-0.26-0.8v-5.87
		c0-0.35,0.09-0.62,0.26-0.81s0.42-0.28,0.74-0.28c0.32,0,0.57,0.09,0.74,0.28c0.18,0.19,0.26,0.46,0.26,0.81v5.87
		c0,0.34-0.09,0.61-0.26,0.8C273.82,437.63,273.57,437.73,273.24,437.73z"/>
	<path class="st10" d="M277.32,440.63c-0.32,0-0.57-0.08-0.74-0.26s-0.26-0.42-0.26-0.75v-8.94c0-0.33,0.09-0.58,0.26-0.75
		c0.17-0.17,0.41-0.26,0.72-0.26c0.32,0,0.56,0.09,0.74,0.26c0.17,0.17,0.26,0.42,0.26,0.75v1.25l-0.18-0.48
		c0.16-0.54,0.49-0.98,0.98-1.31c0.5-0.33,1.07-0.5,1.74-0.5c0.68,0,1.28,0.17,1.8,0.5c0.52,0.33,0.92,0.8,1.21,1.4
		s0.43,1.33,0.43,2.17c0,0.83-0.14,1.55-0.43,2.17s-0.69,1.09-1.2,1.42c-0.51,0.33-1.11,0.5-1.81,0.5c-0.65,0-1.22-0.16-1.71-0.49
		s-0.82-0.75-0.99-1.27h0.19v3.6c0,0.33-0.09,0.58-0.26,0.75C277.89,440.54,277.64,440.63,277.32,440.63z M280.28,436.26
		c0.39,0,0.74-0.1,1.04-0.29c0.3-0.19,0.53-0.48,0.7-0.86c0.17-0.38,0.25-0.85,0.25-1.42c0-0.85-0.18-1.49-0.54-1.91
		c-0.36-0.42-0.84-0.63-1.44-0.63c-0.4,0-0.74,0.09-1.04,0.28c-0.3,0.19-0.53,0.47-0.7,0.85s-0.25,0.85-0.25,1.42
		c0,0.84,0.18,1.48,0.54,1.91C279.2,436.04,279.68,436.26,280.28,436.26z"/>
	<path class="st10" d="M288.6,437.78c-0.89,0-1.55-0.25-2-0.76c-0.45-0.51-0.67-1.25-0.67-2.23v-7.57c0-0.33,0.09-0.58,0.26-0.75
		c0.17-0.17,0.42-0.26,0.74-0.26c0.32,0,0.57,0.09,0.74,0.26c0.18,0.17,0.26,0.42,0.26,0.75v7.47c0,0.49,0.1,0.85,0.31,1.09
		s0.5,0.35,0.89,0.35c0.08,0,0.17,0,0.24-0.01c0.07,0,0.15-0.01,0.22-0.02c0.15-0.02,0.25,0.02,0.3,0.12
		c0.05,0.1,0.08,0.31,0.08,0.62c0,0.27-0.05,0.47-0.16,0.62c-0.11,0.15-0.28,0.24-0.53,0.27c-0.11,0.01-0.22,0.02-0.34,0.03
		C288.84,437.77,288.72,437.78,288.6,437.78z"/>
	<path class="st10" d="M294.81,437.78c-0.89,0-1.65-0.17-2.29-0.5c-0.64-0.33-1.13-0.8-1.48-1.41c-0.35-0.61-0.52-1.33-0.52-2.16
		c0-0.81,0.17-1.52,0.5-2.13c0.34-0.61,0.8-1.08,1.39-1.43c0.59-0.35,1.27-0.52,2.02-0.52c0.55,0,1.05,0.09,1.5,0.27
		c0.44,0.18,0.82,0.44,1.14,0.78c0.31,0.34,0.55,0.75,0.72,1.24c0.17,0.49,0.25,1.03,0.25,1.64c0,0.19-0.07,0.34-0.2,0.44
		c-0.13,0.1-0.32,0.15-0.57,0.15h-5.14v-1.15h4.5l-0.26,0.24c0-0.49-0.07-0.9-0.22-1.23c-0.14-0.33-0.35-0.58-0.62-0.76
		c-0.27-0.18-0.61-0.26-1.02-0.26c-0.45,0-0.83,0.1-1.14,0.31s-0.55,0.5-0.72,0.88c-0.17,0.38-0.25,0.83-0.25,1.35v0.11
		c0,0.88,0.21,1.53,0.62,1.96c0.41,0.43,1.02,0.65,1.82,0.65c0.28,0,0.59-0.03,0.94-0.1s0.67-0.19,0.98-0.36
		c0.22-0.13,0.42-0.18,0.59-0.17c0.17,0.02,0.31,0.08,0.41,0.18c0.1,0.11,0.16,0.24,0.18,0.39c0.02,0.15-0.01,0.31-0.09,0.47
		c-0.08,0.16-0.22,0.3-0.41,0.42c-0.37,0.24-0.8,0.41-1.29,0.52C295.68,437.72,295.23,437.78,294.81,437.78z"/>
	<path class="st10" d="M240.28,456.98c-0.57,0-1.07-0.11-1.51-0.33c-0.44-0.22-0.79-0.51-1.04-0.89c-0.25-0.37-0.38-0.79-0.38-1.26
		c0-0.58,0.15-1.03,0.45-1.37c0.3-0.34,0.78-0.58,1.46-0.73c0.67-0.15,1.57-0.22,2.7-0.22h0.8v1.15h-0.78
		c-0.66,0-1.19,0.03-1.58,0.1c-0.4,0.06-0.67,0.17-0.84,0.33c-0.17,0.16-0.25,0.37-0.25,0.65c0,0.35,0.12,0.64,0.37,0.86
		c0.25,0.22,0.59,0.34,1.02,0.34c0.35,0,0.66-0.08,0.94-0.25c0.27-0.17,0.49-0.39,0.65-0.68c0.16-0.29,0.24-0.62,0.24-0.99v-1.84
		c0-0.53-0.12-0.92-0.35-1.15c-0.23-0.23-0.63-0.35-1.18-0.35c-0.31,0-0.64,0.04-1,0.11c-0.36,0.08-0.73,0.2-1.13,0.38
		c-0.2,0.1-0.38,0.12-0.54,0.08c-0.15-0.04-0.27-0.13-0.36-0.26c-0.09-0.13-0.13-0.28-0.13-0.44c0-0.16,0.04-0.32,0.13-0.47
		c0.09-0.15,0.23-0.27,0.43-0.34c0.49-0.2,0.96-0.35,1.42-0.43c0.45-0.08,0.87-0.13,1.24-0.13c0.77,0,1.4,0.12,1.9,0.35
		c0.5,0.23,0.87,0.59,1.11,1.06c0.25,0.48,0.37,1.09,0.37,1.83v3.84c0,0.33-0.08,0.58-0.24,0.76s-0.39,0.26-0.69,0.26
		c-0.3,0-0.53-0.09-0.7-0.26c-0.17-0.18-0.25-0.43-0.25-0.76v-0.77h0.13c-0.07,0.37-0.22,0.7-0.44,0.97
		c-0.22,0.27-0.49,0.48-0.82,0.63C241.09,456.9,240.71,456.98,240.28,456.98z"/>
	<path class="st10" d="M249.32,456.98c-0.46,0-0.94-0.05-1.46-0.14c-0.51-0.1-0.97-0.26-1.38-0.5c-0.17-0.11-0.29-0.23-0.36-0.38
		c-0.07-0.14-0.1-0.29-0.08-0.43c0.02-0.14,0.07-0.27,0.16-0.38c0.09-0.11,0.21-0.18,0.35-0.21s0.3,0,0.47,0.08
		c0.43,0.2,0.83,0.34,1.2,0.42s0.74,0.12,1.1,0.12c0.51,0,0.89-0.09,1.14-0.26c0.25-0.18,0.38-0.41,0.38-0.7
		c0-0.25-0.08-0.43-0.25-0.57c-0.17-0.13-0.41-0.23-0.74-0.3l-1.6-0.3c-0.66-0.13-1.17-0.37-1.51-0.73s-0.52-0.82-0.52-1.38
		c0-0.51,0.14-0.95,0.42-1.33c0.28-0.37,0.67-0.66,1.18-0.86c0.5-0.2,1.08-0.3,1.73-0.3c0.47,0,0.91,0.05,1.32,0.15
		s0.81,0.26,1.19,0.47c0.16,0.09,0.27,0.2,0.33,0.34c0.06,0.14,0.07,0.28,0.04,0.42c-0.03,0.14-0.1,0.27-0.19,0.38
		s-0.22,0.18-0.36,0.21s-0.31,0-0.49-0.09c-0.33-0.17-0.65-0.29-0.95-0.37c-0.3-0.07-0.6-0.11-0.87-0.11
		c-0.52,0-0.91,0.09-1.16,0.27c-0.25,0.18-0.38,0.42-0.38,0.72c0,0.22,0.07,0.41,0.22,0.56c0.15,0.15,0.38,0.25,0.69,0.3l1.6,0.3
		c0.69,0.13,1.22,0.36,1.58,0.7s0.54,0.8,0.54,1.38c0,0.78-0.3,1.39-0.91,1.83S250.34,456.98,249.32,456.98z"/>
	<path class="st10" d="M255.26,447.4c-0.37,0-0.66-0.09-0.87-0.28s-0.31-0.45-0.31-0.78c0-0.34,0.1-0.6,0.31-0.78
		s0.5-0.27,0.87-0.27c0.38,0,0.68,0.09,0.88,0.27c0.2,0.18,0.3,0.44,0.3,0.78c0,0.33-0.1,0.59-0.3,0.78
		C255.94,447.3,255.64,447.4,255.26,447.4z M255.26,456.93c-0.32,0-0.57-0.1-0.74-0.29c-0.17-0.19-0.26-0.46-0.26-0.8v-5.87
		c0-0.35,0.09-0.62,0.26-0.81s0.42-0.28,0.74-0.28c0.32,0,0.57,0.09,0.74,0.28c0.18,0.19,0.26,0.46,0.26,0.81v5.87
		c0,0.34-0.09,0.61-0.26,0.8C255.84,456.83,255.59,456.93,255.26,456.93z"/>
	<path class="st10" d="M260.92,456.98c-0.57,0-1.07-0.11-1.51-0.33c-0.44-0.22-0.79-0.51-1.04-0.89c-0.25-0.37-0.38-0.79-0.38-1.26
		c0-0.58,0.15-1.03,0.45-1.37c0.3-0.34,0.78-0.58,1.46-0.73c0.67-0.15,1.57-0.22,2.7-0.22h0.8v1.15h-0.78
		c-0.66,0-1.19,0.03-1.58,0.1c-0.4,0.06-0.67,0.17-0.84,0.33c-0.17,0.16-0.25,0.37-0.25,0.65c0,0.35,0.12,0.64,0.37,0.86
		c0.25,0.22,0.59,0.34,1.02,0.34c0.35,0,0.66-0.08,0.94-0.25c0.27-0.17,0.49-0.39,0.65-0.68c0.16-0.29,0.24-0.62,0.24-0.99v-1.84
		c0-0.53-0.12-0.92-0.35-1.15c-0.23-0.23-0.63-0.35-1.18-0.35c-0.31,0-0.64,0.04-1,0.11c-0.36,0.08-0.73,0.2-1.13,0.38
		c-0.2,0.1-0.38,0.12-0.54,0.08c-0.15-0.04-0.27-0.13-0.36-0.26c-0.09-0.13-0.13-0.28-0.13-0.44c0-0.16,0.04-0.32,0.13-0.47
		c0.09-0.15,0.23-0.27,0.43-0.34c0.49-0.2,0.96-0.35,1.42-0.43c0.45-0.08,0.87-0.13,1.24-0.13c0.77,0,1.4,0.12,1.9,0.35
		c0.5,0.23,0.87,0.59,1.11,1.06c0.25,0.48,0.37,1.09,0.37,1.83v3.84c0,0.33-0.08,0.58-0.24,0.76s-0.39,0.26-0.69,0.26
		c-0.3,0-0.53-0.09-0.7-0.26c-0.17-0.18-0.25-0.43-0.25-0.76v-0.77h0.13c-0.07,0.37-0.22,0.7-0.44,0.97
		c-0.22,0.27-0.49,0.48-0.82,0.63C261.73,456.9,261.35,456.98,260.92,456.98z"/>
	<path class="st10" d="M268.09,456.95c-0.32,0-0.57-0.09-0.74-0.26s-0.26-0.43-0.26-0.76v-6.05c0-0.33,0.09-0.58,0.26-0.75
		c0.17-0.17,0.41-0.26,0.72-0.26c0.31,0,0.55,0.09,0.72,0.26c0.17,0.17,0.26,0.42,0.26,0.75v1.09l-0.18-0.4
		c0.23-0.57,0.6-1,1.1-1.29s1.06-0.44,1.69-0.44s1.15,0.12,1.55,0.35s0.71,0.59,0.91,1.06c0.2,0.48,0.3,1.08,0.3,1.8v3.87
		c0,0.33-0.09,0.58-0.26,0.76c-0.17,0.18-0.42,0.26-0.74,0.26s-0.57-0.09-0.74-0.26c-0.18-0.18-0.26-0.43-0.26-0.76v-3.78
		c0-0.61-0.11-1.05-0.34-1.33s-0.58-0.42-1.06-0.42c-0.59,0-1.05,0.18-1.4,0.55s-0.52,0.86-0.52,1.46v3.5
		C269.1,456.61,268.76,456.95,268.09,456.95z"/>
	<path class="st10" d="M242.22,476.18c-0.66,0-1.24-0.17-1.74-0.5c-0.5-0.33-0.82-0.77-0.98-1.33l0.18-0.4v1.17
		c0,0.33-0.09,0.58-0.26,0.76c-0.17,0.18-0.41,0.26-0.72,0.26c-0.32,0-0.57-0.09-0.74-0.26s-0.26-0.43-0.26-0.76v-9.5
		c0-0.33,0.09-0.58,0.26-0.75c0.17-0.17,0.42-0.26,0.74-0.26c0.32,0,0.57,0.09,0.74,0.26c0.18,0.17,0.26,0.42,0.26,0.75v4.16h-0.19
		c0.17-0.52,0.5-0.94,0.99-1.26s1.06-0.48,1.71-0.48c0.69,0,1.3,0.17,1.81,0.5c0.51,0.33,0.91,0.8,1.2,1.4s0.43,1.33,0.43,2.17
		c0,0.83-0.14,1.55-0.43,2.17s-0.69,1.09-1.21,1.42C243.5,476.01,242.9,476.18,242.22,476.18z M241.66,474.66
		c0.39,0,0.74-0.1,1.04-0.29c0.3-0.19,0.53-0.48,0.7-0.86c0.17-0.38,0.25-0.85,0.25-1.42c0-0.85-0.18-1.49-0.54-1.91
		c-0.36-0.42-0.84-0.63-1.44-0.63c-0.4,0-0.74,0.09-1.04,0.28c-0.3,0.19-0.53,0.47-0.7,0.85s-0.25,0.85-0.25,1.42
		c0,0.84,0.18,1.48,0.54,1.91C240.58,474.44,241.06,474.66,241.66,474.66z"/>
	<path class="st10" d="M249.98,476.18c-0.89,0-1.55-0.25-2-0.76c-0.45-0.51-0.67-1.25-0.67-2.23v-7.57c0-0.33,0.09-0.58,0.26-0.75
		c0.17-0.17,0.42-0.26,0.74-0.26c0.32,0,0.57,0.09,0.74,0.26c0.18,0.17,0.26,0.42,0.26,0.75v7.47c0,0.49,0.1,0.85,0.31,1.09
		s0.5,0.35,0.89,0.35c0.08,0,0.17,0,0.24-0.01c0.07,0,0.15-0.01,0.22-0.02c0.15-0.02,0.25,0.02,0.3,0.12
		c0.05,0.1,0.08,0.31,0.08,0.62c0,0.27-0.05,0.47-0.16,0.62c-0.11,0.15-0.28,0.24-0.53,0.27c-0.11,0.01-0.22,0.02-0.34,0.03
		C250.21,476.17,250.1,476.18,249.98,476.18z"/>
	<path class="st10" d="M254.99,476.18c-0.57,0-1.07-0.11-1.51-0.33c-0.44-0.22-0.79-0.51-1.04-0.89c-0.25-0.37-0.38-0.79-0.38-1.26
		c0-0.58,0.15-1.03,0.45-1.37c0.3-0.34,0.78-0.58,1.46-0.73c0.67-0.15,1.57-0.22,2.7-0.22h0.8v1.15h-0.78
		c-0.66,0-1.19,0.03-1.58,0.1c-0.4,0.06-0.67,0.17-0.84,0.33c-0.17,0.16-0.25,0.37-0.25,0.65c0,0.35,0.12,0.64,0.37,0.86
		c0.25,0.22,0.59,0.34,1.02,0.34c0.35,0,0.66-0.08,0.94-0.25c0.27-0.17,0.49-0.39,0.65-0.68c0.16-0.29,0.24-0.62,0.24-0.99v-1.84
		c0-0.53-0.12-0.92-0.35-1.15c-0.23-0.23-0.63-0.35-1.18-0.35c-0.31,0-0.64,0.04-1,0.11c-0.36,0.08-0.73,0.2-1.13,0.38
		c-0.2,0.1-0.38,0.12-0.54,0.08c-0.15-0.04-0.27-0.13-0.36-0.26c-0.09-0.13-0.13-0.28-0.13-0.44c0-0.16,0.04-0.32,0.13-0.47
		c0.09-0.15,0.23-0.27,0.43-0.34c0.49-0.2,0.96-0.35,1.42-0.43c0.45-0.08,0.87-0.13,1.24-0.13c0.77,0,1.4,0.12,1.9,0.35
		c0.5,0.23,0.87,0.59,1.11,1.06c0.25,0.48,0.37,1.09,0.37,1.83v3.84c0,0.33-0.08,0.58-0.24,0.76s-0.39,0.26-0.69,0.26
		c-0.3,0-0.53-0.09-0.7-0.26c-0.17-0.18-0.25-0.43-0.25-0.76v-0.77h0.13c-0.07,0.37-0.22,0.7-0.44,0.97
		c-0.22,0.27-0.49,0.48-0.82,0.63C255.79,476.1,255.41,476.18,254.99,476.18z"/>
	<path class="st10" d="M264.78,476.18c-0.82,0-1.54-0.17-2.14-0.5c-0.61-0.34-1.08-0.81-1.41-1.43c-0.33-0.62-0.5-1.34-0.5-2.18
		c0-0.63,0.09-1.19,0.28-1.69c0.19-0.5,0.46-0.92,0.81-1.26c0.35-0.35,0.78-0.61,1.28-0.8c0.5-0.19,1.06-0.28,1.68-0.28
		c0.35,0,0.73,0.05,1.14,0.14s0.8,0.26,1.16,0.48c0.17,0.11,0.28,0.24,0.34,0.38s0.06,0.3,0.03,0.46c-0.03,0.15-0.1,0.29-0.2,0.4
		s-0.23,0.18-0.38,0.21c-0.15,0.03-0.31-0.01-0.5-0.1c-0.23-0.14-0.47-0.24-0.72-0.31c-0.25-0.07-0.48-0.1-0.7-0.1
		c-0.35,0-0.66,0.06-0.93,0.17c-0.27,0.11-0.49,0.27-0.68,0.48c-0.19,0.21-0.33,0.47-0.42,0.78c-0.1,0.31-0.14,0.67-0.14,1.07
		c0,0.79,0.19,1.41,0.57,1.86c0.38,0.45,0.91,0.68,1.61,0.68c0.22,0,0.46-0.03,0.7-0.1c0.24-0.06,0.48-0.17,0.73-0.3
		c0.18-0.1,0.34-0.13,0.49-0.1c0.14,0.03,0.26,0.1,0.36,0.22s0.15,0.25,0.18,0.4c0.02,0.16,0,0.31-0.06,0.46
		c-0.06,0.15-0.17,0.27-0.33,0.37c-0.35,0.21-0.73,0.37-1.12,0.46C265.5,476.13,265.13,476.18,264.78,476.18z"/>
	<path class="st10" d="M269.71,476.15c-0.32,0-0.57-0.09-0.74-0.26s-0.26-0.43-0.26-0.76v-9.5c0-0.33,0.09-0.58,0.26-0.75
		c0.17-0.17,0.42-0.26,0.74-0.26c0.32,0,0.57,0.09,0.74,0.26c0.18,0.17,0.26,0.42,0.26,0.75v5.9h0.03l2.64-2.78
		c0.21-0.21,0.4-0.38,0.56-0.5c0.16-0.12,0.38-0.18,0.66-0.18c0.28,0,0.49,0.07,0.63,0.22c0.14,0.14,0.22,0.32,0.22,0.52
		c0,0.2-0.1,0.41-0.29,0.61l-2.78,2.94v-0.83l3.06,3.3c0.19,0.2,0.28,0.41,0.26,0.62s-0.1,0.38-0.26,0.51
		c-0.16,0.13-0.36,0.2-0.61,0.2c-0.3,0-0.54-0.06-0.71-0.18c-0.18-0.12-0.37-0.29-0.58-0.53l-2.78-2.91h-0.03v2.59
		C270.71,475.81,270.38,476.15,269.71,476.15z"/>
	<path class="st10" d="M240.73,495.35c-0.27,0-0.5-0.07-0.69-0.2c-0.19-0.13-0.35-0.34-0.46-0.63l-2.32-5.92
		c-0.1-0.26-0.13-0.48-0.09-0.68c0.04-0.2,0.14-0.35,0.3-0.47c0.16-0.12,0.37-0.18,0.64-0.18c0.23,0,0.43,0.06,0.58,0.17
		c0.15,0.11,0.28,0.32,0.38,0.63l1.94,5.33h-0.37l2-5.46c0.09-0.23,0.2-0.41,0.34-0.51s0.33-0.16,0.57-0.16
		c0.23,0,0.43,0.06,0.58,0.17s0.26,0.28,0.34,0.5l1.97,5.46h-0.34l1.95-5.38c0.11-0.29,0.24-0.49,0.41-0.59
		c0.17-0.11,0.35-0.16,0.55-0.16c0.26,0,0.45,0.06,0.59,0.19c0.14,0.13,0.22,0.29,0.24,0.49c0.02,0.2-0.02,0.41-0.11,0.65l-2.3,5.92
		c-0.11,0.28-0.26,0.49-0.46,0.62s-0.43,0.21-0.7,0.21c-0.27,0-0.5-0.07-0.7-0.21s-0.35-0.35-0.46-0.62l-2.1-5.55h0.91l-2.05,5.54
		c-0.11,0.29-0.26,0.5-0.45,0.64S241.01,495.35,240.73,495.35z"/>
	<path class="st10" d="M252.35,495.35c-0.32,0-0.57-0.09-0.74-0.26s-0.26-0.43-0.26-0.76v-9.5c0-0.33,0.09-0.58,0.26-0.75
		c0.17-0.17,0.42-0.26,0.74-0.26c0.32,0,0.57,0.09,0.74,0.26c0.18,0.17,0.26,0.42,0.26,0.75v4.14h-0.22c0.23-0.57,0.6-1,1.1-1.29
		s1.06-0.44,1.69-0.44c0.63,0,1.15,0.12,1.55,0.35s0.71,0.59,0.91,1.06c0.2,0.48,0.3,1.08,0.3,1.8v3.87c0,0.33-0.09,0.58-0.26,0.76
		c-0.17,0.18-0.42,0.26-0.74,0.26s-0.57-0.09-0.74-0.26c-0.18-0.18-0.26-0.43-0.26-0.76v-3.78c0-0.61-0.11-1.05-0.34-1.33
		s-0.58-0.42-1.06-0.42c-0.59,0-1.05,0.18-1.4,0.55s-0.52,0.86-0.52,1.46v3.5C253.35,495.01,253.02,495.35,252.35,495.35z"/>
	<path class="st10" d="M261.71,485.79c-0.37,0-0.66-0.09-0.87-0.28s-0.31-0.45-0.31-0.78c0-0.34,0.1-0.6,0.31-0.78
		s0.5-0.27,0.87-0.27c0.38,0,0.68,0.09,0.88,0.27c0.2,0.18,0.3,0.44,0.3,0.78c0,0.33-0.1,0.59-0.3,0.78
		C262.38,485.7,262.09,485.79,261.71,485.79z M261.71,495.33c-0.32,0-0.57-0.1-0.74-0.29c-0.17-0.19-0.26-0.46-0.26-0.8v-5.87
		c0-0.35,0.09-0.62,0.26-0.81s0.42-0.28,0.74-0.28c0.32,0,0.57,0.09,0.74,0.28c0.18,0.19,0.26,0.46,0.26,0.81v5.87
		c0,0.34-0.09,0.61-0.26,0.8C262.29,495.23,262.04,495.33,261.71,495.33z"/>
	<path class="st10" d="M268.38,495.38c-0.69,0-1.27-0.12-1.74-0.35c-0.46-0.23-0.81-0.58-1.03-1.03c-0.22-0.45-0.34-1.02-0.34-1.69
		v-3.41h-0.83c-0.26,0-0.45-0.07-0.59-0.2c-0.14-0.13-0.21-0.32-0.21-0.55c0-0.25,0.07-0.43,0.21-0.56
		c0.14-0.13,0.34-0.19,0.59-0.19h0.83v-1.46c0-0.33,0.09-0.58,0.26-0.75c0.18-0.17,0.42-0.26,0.74-0.26c0.32,0,0.57,0.09,0.74,0.26
		c0.17,0.17,0.26,0.42,0.26,0.75v1.46h1.7c0.26,0,0.45,0.06,0.59,0.19c0.14,0.13,0.21,0.31,0.21,0.56c0,0.24-0.07,0.42-0.21,0.55
		c-0.14,0.13-0.34,0.2-0.59,0.2h-1.7v3.3c0,0.51,0.11,0.9,0.34,1.15s0.59,0.38,1.09,0.38c0.18,0,0.34-0.02,0.48-0.05
		s0.26-0.05,0.37-0.06c0.13-0.01,0.23,0.03,0.32,0.12c0.09,0.09,0.13,0.28,0.13,0.55c0,0.21-0.04,0.4-0.1,0.57
		c-0.07,0.17-0.19,0.28-0.38,0.34c-0.14,0.04-0.32,0.08-0.54,0.12C268.75,495.36,268.55,495.38,268.38,495.38z"/>
	<path class="st10" d="M274.71,495.38c-0.89,0-1.65-0.17-2.29-0.5c-0.64-0.33-1.13-0.8-1.48-1.41c-0.35-0.61-0.52-1.33-0.52-2.16
		c0-0.81,0.17-1.52,0.5-2.13c0.34-0.61,0.8-1.08,1.39-1.43c0.59-0.35,1.27-0.52,2.02-0.52c0.55,0,1.05,0.09,1.5,0.27
		c0.44,0.18,0.82,0.44,1.14,0.78c0.31,0.34,0.55,0.75,0.72,1.24c0.17,0.49,0.25,1.03,0.25,1.64c0,0.19-0.07,0.34-0.2,0.44
		c-0.13,0.1-0.32,0.15-0.57,0.15h-5.14v-1.15h4.5l-0.26,0.24c0-0.49-0.07-0.9-0.22-1.23c-0.14-0.33-0.35-0.58-0.62-0.76
		c-0.27-0.18-0.61-0.26-1.02-0.26c-0.45,0-0.83,0.1-1.14,0.31s-0.55,0.5-0.72,0.88c-0.17,0.38-0.25,0.83-0.25,1.35v0.11
		c0,0.88,0.21,1.53,0.62,1.96c0.41,0.43,1.02,0.65,1.82,0.65c0.28,0,0.59-0.03,0.94-0.1s0.67-0.19,0.98-0.36
		c0.22-0.13,0.42-0.18,0.59-0.17c0.17,0.02,0.31,0.08,0.41,0.18c0.1,0.11,0.16,0.24,0.18,0.39c0.02,0.15-0.01,0.31-0.09,0.47
		c-0.08,0.16-0.22,0.3-0.41,0.42c-0.37,0.24-0.8,0.41-1.29,0.52C275.58,495.32,275.13,495.38,274.71,495.38z"/>
</g>
<g>
	<g>
		<path class="st10" d="M65.63,448.58c-0.82,0-1.54-0.17-2.14-0.5c-0.61-0.34-1.08-0.81-1.41-1.43c-0.33-0.62-0.5-1.34-0.5-2.18
			c0-0.63,0.09-1.19,0.28-1.69s0.46-0.92,0.81-1.26c0.35-0.35,0.78-0.61,1.28-0.8c0.5-0.19,1.06-0.28,1.68-0.28
			c0.35,0,0.73,0.05,1.14,0.14c0.41,0.1,0.8,0.26,1.16,0.48c0.17,0.11,0.28,0.23,0.34,0.38s0.06,0.3,0.03,0.46
			c-0.03,0.15-0.1,0.29-0.2,0.4c-0.1,0.11-0.23,0.18-0.38,0.21c-0.15,0.03-0.31-0.01-0.5-0.1c-0.23-0.14-0.47-0.24-0.72-0.31
			c-0.25-0.07-0.48-0.1-0.7-0.1c-0.35,0-0.66,0.06-0.93,0.17c-0.27,0.11-0.49,0.27-0.68,0.48s-0.33,0.47-0.42,0.78
			c-0.1,0.31-0.14,0.67-0.14,1.07c0,0.79,0.19,1.41,0.57,1.86c0.38,0.45,0.92,0.68,1.61,0.68c0.22,0,0.46-0.03,0.7-0.1
			c0.24-0.06,0.48-0.17,0.73-0.3c0.18-0.1,0.34-0.13,0.49-0.1c0.14,0.03,0.26,0.1,0.36,0.22c0.1,0.11,0.16,0.25,0.18,0.4
			c0.02,0.15,0,0.31-0.06,0.46s-0.17,0.27-0.33,0.37c-0.35,0.21-0.73,0.37-1.12,0.46C66.35,448.53,65.98,448.58,65.63,448.58z"/>
		<path class="st10" d="M70.55,448.55c-0.32,0-0.57-0.09-0.74-0.26c-0.17-0.18-0.26-0.43-0.26-0.76v-9.5c0-0.33,0.08-0.58,0.26-0.75
			s0.42-0.26,0.74-0.26c0.32,0,0.57,0.09,0.74,0.26c0.18,0.17,0.26,0.42,0.26,0.75v4.14h-0.22c0.23-0.57,0.6-0.99,1.1-1.29
			s1.06-0.44,1.69-0.44c0.63,0,1.15,0.12,1.55,0.35c0.41,0.23,0.71,0.59,0.91,1.06c0.2,0.47,0.3,1.07,0.3,1.8v3.87
			c0,0.33-0.09,0.58-0.26,0.76c-0.17,0.18-0.42,0.26-0.74,0.26s-0.57-0.09-0.74-0.26c-0.18-0.18-0.26-0.43-0.26-0.76v-3.78
			c0-0.61-0.12-1.05-0.34-1.33c-0.23-0.28-0.58-0.42-1.06-0.42c-0.59,0-1.05,0.18-1.4,0.55c-0.35,0.37-0.52,0.86-0.52,1.46v3.5
			C71.56,448.21,71.22,448.55,70.55,448.55z"/>
		<path class="st10" d="M79.91,439c-0.37,0-0.66-0.09-0.87-0.28c-0.21-0.19-0.31-0.45-0.31-0.78c0-0.34,0.1-0.6,0.31-0.78
			c0.21-0.18,0.5-0.27,0.87-0.27c0.38,0,0.68,0.09,0.88,0.27c0.2,0.18,0.3,0.44,0.3,0.78c0,0.33-0.1,0.59-0.3,0.78
			C80.59,438.91,80.3,439,79.91,439z M79.91,448.53c-0.32,0-0.57-0.1-0.74-0.29c-0.17-0.19-0.26-0.46-0.26-0.8v-5.87
			c0-0.35,0.08-0.62,0.26-0.81s0.42-0.28,0.74-0.28c0.32,0,0.57,0.09,0.74,0.28c0.18,0.19,0.26,0.46,0.26,0.81v5.87
			c0,0.34-0.09,0.61-0.26,0.8C80.49,448.44,80.24,448.53,79.91,448.53z"/>
		<path class="st10" d="M85.67,448.58c-0.89,0-1.55-0.25-2-0.76c-0.45-0.51-0.67-1.25-0.67-2.23v-7.57c0-0.33,0.08-0.58,0.26-0.75
			s0.42-0.26,0.74-0.26c0.32,0,0.57,0.09,0.74,0.26c0.18,0.17,0.26,0.42,0.26,0.75v7.47c0,0.49,0.1,0.85,0.31,1.09
			c0.21,0.23,0.5,0.35,0.89,0.35c0.08,0,0.17,0,0.24-0.01c0.07-0.01,0.15-0.01,0.22-0.02c0.15-0.02,0.25,0.02,0.3,0.12
			s0.08,0.31,0.08,0.62c0,0.27-0.05,0.48-0.16,0.62c-0.11,0.15-0.28,0.24-0.53,0.27c-0.11,0.01-0.22,0.02-0.34,0.03
			C85.91,448.58,85.79,448.58,85.67,448.58z"/>
		<path class="st10" d="M91.03,448.58c-0.68,0-1.28-0.17-1.8-0.5s-0.92-0.8-1.21-1.42s-0.43-1.34-0.43-2.17
			c0-0.84,0.14-1.57,0.43-2.17s0.69-1.07,1.21-1.4s1.12-0.5,1.8-0.5c0.65,0,1.22,0.16,1.7,0.48c0.49,0.32,0.81,0.74,0.98,1.26h-0.18
			v-4.16c0-0.33,0.09-0.58,0.26-0.75c0.17-0.17,0.42-0.26,0.74-0.26c0.32,0,0.57,0.09,0.74,0.26s0.26,0.42,0.26,0.75v9.5
			c0,0.33-0.08,0.58-0.26,0.76c-0.17,0.18-0.42,0.26-0.74,0.26c-0.32,0-0.57-0.09-0.74-0.26c-0.17-0.18-0.26-0.43-0.26-0.76v-1.25
			l0.18,0.48c-0.16,0.55-0.49,1-0.98,1.33C92.27,448.42,91.69,448.58,91.03,448.58z M91.59,447.06c0.39,0,0.74-0.1,1.04-0.29
			c0.3-0.19,0.53-0.48,0.7-0.86s0.25-0.85,0.25-1.42c0-0.85-0.18-1.49-0.54-1.91s-0.84-0.63-1.44-0.63c-0.4,0-0.74,0.09-1.04,0.28
			c-0.3,0.19-0.53,0.47-0.7,0.85c-0.17,0.38-0.25,0.85-0.25,1.42c0,0.84,0.18,1.48,0.54,1.91C90.51,446.85,91,447.06,91.59,447.06z"
			/>
		<path class="st10" d="M98.65,448.55c-0.33,0-0.58-0.09-0.76-0.26c-0.18-0.18-0.26-0.43-0.26-0.76v-6.05
			c0-0.33,0.08-0.58,0.26-0.75c0.17-0.17,0.41-0.26,0.72-0.26s0.55,0.09,0.72,0.26c0.17,0.17,0.26,0.42,0.26,0.75v1.01h-0.16
			c0.15-0.64,0.44-1.12,0.88-1.46c0.44-0.33,1.02-0.53,1.74-0.59c0.22-0.02,0.4,0.03,0.54,0.17c0.13,0.13,0.21,0.34,0.23,0.62
			c0.02,0.27-0.04,0.48-0.18,0.65c-0.14,0.17-0.36,0.26-0.65,0.3l-0.35,0.03c-0.65,0.06-1.14,0.26-1.47,0.6
			c-0.33,0.34-0.5,0.81-0.5,1.42v3.31c0,0.33-0.09,0.58-0.26,0.76C99.23,448.46,98.98,448.55,98.65,448.55z"/>
		<path class="st10" d="M107.63,448.58c-0.89,0-1.65-0.17-2.29-0.5c-0.64-0.33-1.13-0.8-1.48-1.41s-0.52-1.33-0.52-2.16
			c0-0.81,0.17-1.52,0.5-2.13c0.34-0.61,0.8-1.08,1.39-1.43s1.27-0.52,2.02-0.52c0.55,0,1.05,0.09,1.5,0.27
			c0.44,0.18,0.82,0.44,1.14,0.78c0.31,0.34,0.55,0.75,0.72,1.24s0.25,1.03,0.25,1.64c0,0.19-0.07,0.34-0.2,0.44
			c-0.13,0.1-0.32,0.15-0.57,0.15h-5.14v-1.15h4.5l-0.26,0.24c0-0.49-0.07-0.9-0.22-1.23c-0.14-0.33-0.35-0.58-0.62-0.76
			c-0.27-0.18-0.61-0.26-1.02-0.26c-0.45,0-0.83,0.1-1.14,0.31s-0.55,0.5-0.72,0.88c-0.17,0.38-0.25,0.83-0.25,1.35v0.11
			c0,0.87,0.21,1.53,0.62,1.96c0.41,0.43,1.02,0.65,1.82,0.65c0.28,0,0.59-0.03,0.94-0.1s0.67-0.19,0.98-0.36
			c0.22-0.13,0.42-0.18,0.59-0.17c0.17,0.02,0.31,0.08,0.41,0.18c0.1,0.11,0.16,0.24,0.18,0.39c0.02,0.15-0.01,0.31-0.09,0.47
			c-0.08,0.16-0.22,0.3-0.41,0.42c-0.37,0.23-0.8,0.41-1.29,0.52C108.49,448.53,108.04,448.58,107.63,448.58z"/>
		<path class="st10" d="M113.43,448.55c-0.32,0-0.57-0.09-0.74-0.26c-0.17-0.18-0.26-0.43-0.26-0.76v-6.05
			c0-0.33,0.08-0.58,0.26-0.75c0.17-0.17,0.41-0.26,0.72-0.26s0.55,0.09,0.72,0.26c0.17,0.17,0.26,0.42,0.26,0.75v1.09l-0.18-0.4
			c0.23-0.57,0.6-0.99,1.1-1.29s1.06-0.44,1.69-0.44c0.63,0,1.15,0.12,1.55,0.35c0.41,0.23,0.71,0.59,0.91,1.06
			c0.2,0.47,0.3,1.07,0.3,1.8v3.87c0,0.33-0.09,0.58-0.26,0.76c-0.17,0.18-0.42,0.26-0.74,0.26s-0.57-0.09-0.74-0.26
			c-0.18-0.18-0.26-0.43-0.26-0.76v-3.78c0-0.61-0.12-1.05-0.34-1.33c-0.23-0.28-0.58-0.42-1.06-0.42c-0.59,0-1.05,0.18-1.4,0.55
			c-0.35,0.37-0.52,0.86-0.52,1.46v3.5C114.44,448.21,114.1,448.55,113.43,448.55z"/>
	</g>
</g>
<polyline class="st11" points="88.39,264.17 83.44,264.17 64.34,344.51 64.34,435.17 "/>
<polyline class="st11" points="88.39,283.13 83.44,283.13 64.34,344.51 64.34,435.17 "/>
<polyline class="st11" points="88.39,323.59 83.44,323.59 64.34,344.51 64.34,435.17 "/>
<polyline class="st11" points="234.84,414.65 224.22,414.65 211.01,404.84 "/>
<polyline class="st11" points="234.84,433.66 224.22,433.66 201.76,410.12 "/>
<polyline class="st11" points="234.84,452.67 224.22,452.67 194.66,413.09 "/>
<polyline class="st11" points="234.76,471.66 224.14,471.66 187.07,417.39 "/>
<polyline class="st11" points="234.84,491.66 224.22,491.66 178.98,420.69 "/>
<g>
	<g>
		<path class="st9" d="M238.95,398.11c-0.47,0-0.83-0.12-1.08-0.37c-0.25-0.25-0.38-0.6-0.38-1.07v-5.3c0-0.46,0.12-0.81,0.36-1.06
			c0.24-0.25,0.58-0.37,1.03-0.37c0.45,0,0.79,0.12,1.02,0.37c0.23,0.25,0.35,0.6,0.35,1.06v0.66h-0.16
			c0.11-0.64,0.38-1.15,0.82-1.52c0.44-0.37,0.99-0.57,1.66-0.59c0.31-0.01,0.54,0.07,0.7,0.23c0.15,0.17,0.24,0.47,0.25,0.92
			c0,0.38-0.08,0.69-0.24,0.91c-0.16,0.22-0.46,0.36-0.91,0.4l-0.37,0.03c-0.57,0.05-0.98,0.21-1.23,0.47
			c-0.26,0.26-0.38,0.65-0.38,1.16v2.62c0,0.47-0.12,0.83-0.37,1.07C239.78,397.98,239.42,398.11,238.95,398.11z"/>
		<path class="st9" d="M247.1,398.14c-0.61,0-1.14-0.11-1.61-0.34c-0.46-0.22-0.83-0.53-1.09-0.92c-0.26-0.39-0.39-0.83-0.39-1.34
			c0-0.58,0.15-1.03,0.45-1.36c0.3-0.33,0.78-0.57,1.44-0.71c0.66-0.14,1.54-0.22,2.64-0.22h0.88v1.34h-0.88
			c-0.42,0-0.76,0.03-1.03,0.09c-0.27,0.06-0.47,0.15-0.6,0.27c-0.13,0.12-0.19,0.28-0.19,0.47c0,0.25,0.09,0.45,0.26,0.61
			c0.18,0.16,0.43,0.24,0.76,0.24c0.27,0,0.5-0.06,0.71-0.18c0.21-0.12,0.38-0.28,0.5-0.49s0.19-0.45,0.19-0.73v-1.86
			c0-0.38-0.1-0.66-0.3-0.82s-0.54-0.24-1.02-0.24c-0.26,0-0.54,0.03-0.86,0.09c-0.32,0.06-0.68,0.16-1.07,0.31
			c-0.29,0.11-0.53,0.12-0.74,0.05c-0.2-0.07-0.36-0.2-0.47-0.38c-0.11-0.18-0.17-0.38-0.16-0.59c0.01-0.21,0.07-0.42,0.21-0.61
			c0.13-0.19,0.34-0.34,0.62-0.45c0.51-0.19,0.98-0.32,1.42-0.38c0.43-0.06,0.83-0.1,1.19-0.1c0.87,0,1.6,0.12,2.17,0.38
			c0.57,0.25,1,0.63,1.28,1.15c0.28,0.52,0.42,1.18,0.42,1.99v3.23c0,0.47-0.11,0.83-0.34,1.07c-0.22,0.25-0.55,0.37-0.98,0.37
			c-0.44,0-0.77-0.12-1-0.37c-0.23-0.25-0.34-0.6-0.34-1.07v-0.42l0.1,0.22c-0.05,0.34-0.18,0.63-0.37,0.88
			c-0.19,0.25-0.44,0.44-0.75,0.58C247.84,398.07,247.49,398.14,247.1,398.14z"/>
		<path class="st9" d="M257.47,398.14c-0.89,0-1.66-0.17-2.31-0.5c-0.66-0.33-1.17-0.81-1.53-1.43s-0.54-1.36-0.54-2.2
			c0-0.64,0.1-1.21,0.3-1.72s0.5-0.94,0.89-1.29c0.39-0.35,0.85-0.62,1.39-0.81c0.54-0.19,1.14-0.28,1.8-0.28
			c0.31,0,0.63,0.03,0.98,0.09c0.34,0.06,0.69,0.17,1.06,0.33c0.26,0.1,0.43,0.24,0.54,0.44c0.1,0.2,0.14,0.41,0.13,0.63
			c-0.02,0.22-0.08,0.43-0.19,0.61c-0.11,0.18-0.27,0.3-0.46,0.37c-0.2,0.06-0.42,0.04-0.66-0.08c-0.17-0.08-0.35-0.15-0.54-0.18
			s-0.37-0.06-0.54-0.06c-0.29,0-0.54,0.04-0.76,0.13c-0.22,0.09-0.4,0.21-0.55,0.38c-0.15,0.17-0.26,0.37-0.34,0.62
			c-0.08,0.25-0.12,0.52-0.12,0.83c0,0.62,0.15,1.1,0.46,1.46c0.31,0.35,0.75,0.53,1.31,0.53c0.17,0,0.35-0.02,0.53-0.06
			c0.18-0.04,0.36-0.1,0.54-0.18c0.25-0.12,0.46-0.14,0.66-0.07s0.35,0.2,0.46,0.38c0.12,0.18,0.18,0.38,0.19,0.6
			c0.01,0.22-0.04,0.43-0.14,0.62c-0.11,0.2-0.29,0.34-0.54,0.44c-0.35,0.16-0.7,0.27-1.03,0.33S257.78,398.14,257.47,398.14z"/>
		<path class="st9" d="M265.32,398.14c-0.96,0-1.79-0.17-2.49-0.5s-1.23-0.81-1.61-1.43c-0.37-0.62-0.56-1.35-0.56-2.19
			c0-0.81,0.18-1.52,0.54-2.14s0.85-1.09,1.47-1.44c0.62-0.35,1.34-0.52,2.14-0.52c0.59,0,1.12,0.09,1.6,0.28s0.89,0.46,1.23,0.82
			s0.6,0.79,0.78,1.29c0.18,0.5,0.26,1.06,0.26,1.68c0,0.21-0.06,0.37-0.18,0.47c-0.12,0.1-0.3,0.15-0.56,0.15h-4.9v-1.34h3.55
			l-0.26,0.21c0-0.39-0.05-0.71-0.16-0.96s-0.26-0.43-0.47-0.56s-0.47-0.19-0.78-0.19c-0.33,0-0.62,0.08-0.86,0.23
			c-0.24,0.15-0.42,0.38-0.55,0.68s-0.19,0.67-0.19,1.12v0.14c0,0.76,0.17,1.3,0.5,1.62c0.34,0.33,0.86,0.49,1.56,0.49
			c0.23,0,0.5-0.03,0.81-0.09c0.3-0.06,0.59-0.14,0.87-0.25s0.52-0.12,0.72-0.06s0.36,0.19,0.47,0.35c0.11,0.17,0.17,0.35,0.18,0.56
			s-0.04,0.41-0.14,0.61s-0.28,0.35-0.53,0.46c-0.37,0.17-0.77,0.3-1.19,0.38S265.75,398.14,265.32,398.14z"/>
	</g>
</g>
<g>
	<path class="st9" d="M84.56,20.72c-1.2,0-2.19-0.18-2.96-0.55c-0.78-0.37-1.36-0.92-1.74-1.67c-0.38-0.74-0.58-1.68-0.58-2.8V11.8
		h-0.82c-0.51,0-0.91-0.14-1.19-0.41c-0.28-0.27-0.42-0.66-0.42-1.18c0-0.51,0.14-0.9,0.42-1.16c0.28-0.26,0.68-0.4,1.19-0.4h0.82
		V7.16c0-0.7,0.18-1.24,0.55-1.61S80.73,5,81.42,5c0.69,0,1.22,0.18,1.58,0.55s0.55,0.9,0.55,1.61v1.49h1.97
		c0.53,0,0.93,0.13,1.21,0.4c0.28,0.26,0.42,0.65,0.42,1.16c0,0.51-0.14,0.9-0.42,1.18c-0.28,0.27-0.68,0.41-1.21,0.41h-1.97v3.77
		c0,0.59,0.14,1.03,0.42,1.31c0.28,0.28,0.72,0.42,1.33,0.42c0.22,0,0.44-0.02,0.65-0.07c0.21-0.05,0.4-0.07,0.58-0.07
		c0.26-0.02,0.46,0.06,0.62,0.23c0.16,0.17,0.24,0.55,0.24,1.14c0,0.48-0.07,0.88-0.22,1.21c-0.14,0.33-0.4,0.56-0.77,0.71
		c-0.22,0.08-0.53,0.15-0.91,0.2C85.12,20.7,84.8,20.72,84.56,20.72z"/>
	<path class="st9" d="M91.12,20.68c-0.67,0-1.19-0.18-1.56-0.55c-0.37-0.37-0.55-0.9-0.55-1.61V5.48c0-0.7,0.18-1.24,0.55-1.61
		c0.37-0.37,0.89-0.55,1.56-0.55c0.69,0,1.22,0.18,1.6,0.55c0.38,0.37,0.56,0.9,0.56,1.61v5.23h-0.38c0.38-0.75,0.93-1.33,1.64-1.73
		c0.71-0.4,1.52-0.6,2.44-0.6c0.94,0,1.72,0.18,2.33,0.54c0.61,0.36,1.06,0.92,1.37,1.68c0.3,0.76,0.46,1.72,0.46,2.87v5.04
		c0,0.7-0.18,1.24-0.55,1.61c-0.37,0.37-0.9,0.55-1.58,0.55c-0.69,0-1.22-0.18-1.58-0.55c-0.37-0.37-0.55-0.9-0.55-1.61v-4.87
		c0-0.72-0.12-1.23-0.37-1.54c-0.25-0.3-0.61-0.46-1.09-0.46c-0.64,0-1.15,0.2-1.54,0.61c-0.38,0.41-0.58,0.96-0.58,1.64v4.61
		C93.28,19.96,92.56,20.68,91.12,20.68z"/>
	<path class="st9" d="M105.66,6.73c-0.75,0-1.33-0.18-1.74-0.53s-0.61-0.86-0.61-1.54c0-0.66,0.2-1.16,0.61-1.51
		c0.41-0.35,0.99-0.53,1.74-0.53c0.78,0,1.38,0.18,1.78,0.53c0.4,0.35,0.6,0.86,0.6,1.51c0,0.67-0.2,1.18-0.6,1.54
		C107.04,6.56,106.44,6.73,105.66,6.73z M105.66,20.68c-0.67,0-1.19-0.2-1.56-0.6c-0.37-0.4-0.55-0.98-0.55-1.73v-7.58
		c0-0.75,0.18-1.33,0.55-1.73s0.89-0.6,1.56-0.6c0.69,0,1.22,0.2,1.6,0.6s0.56,0.98,0.56,1.73v7.58c0,0.75-0.18,1.33-0.55,1.73
		C106.9,20.48,106.36,20.68,105.66,20.68z"/>
	<path class="st9" d="M115,20.72c-0.7,0-1.42-0.05-2.15-0.16c-0.73-0.1-1.39-0.29-1.98-0.56c-0.4-0.16-0.68-0.38-0.85-0.65
		c-0.17-0.27-0.25-0.56-0.24-0.86c0.01-0.3,0.1-0.58,0.26-0.83s0.39-0.42,0.67-0.53c0.28-0.1,0.6-0.09,0.95,0.04
		c0.67,0.24,1.28,0.41,1.81,0.52s1.05,0.16,1.55,0.16c0.59,0,1.02-0.08,1.27-0.25s0.38-0.39,0.38-0.66c0-0.24-0.08-0.42-0.25-0.55
		c-0.17-0.13-0.4-0.22-0.71-0.26l-2.66-0.43c-0.99-0.18-1.76-0.54-2.3-1.09c-0.54-0.55-0.82-1.28-0.82-2.17
		c0-0.83,0.24-1.55,0.71-2.15s1.12-1.06,1.94-1.39c0.82-0.33,1.77-0.49,2.84-0.49c0.72,0,1.38,0.05,1.97,0.16
		c0.59,0.1,1.17,0.29,1.73,0.56c0.35,0.14,0.6,0.35,0.74,0.62c0.14,0.27,0.2,0.56,0.17,0.85c-0.03,0.3-0.13,0.57-0.3,0.82
		c-0.17,0.25-0.4,0.42-0.68,0.5c-0.29,0.09-0.62,0.07-1.01-0.06c-0.53-0.21-1-0.36-1.4-0.46c-0.41-0.1-0.79-0.14-1.14-0.14
		c-0.66,0-1.12,0.09-1.39,0.26c-0.27,0.18-0.41,0.4-0.41,0.67c0,0.21,0.07,0.38,0.22,0.52c0.14,0.14,0.37,0.23,0.67,0.28l2.66,0.46
		c1.02,0.16,1.81,0.51,2.36,1.04c0.55,0.54,0.83,1.26,0.83,2.17c0,1.3-0.5,2.3-1.49,3.01C117.96,20.37,116.64,20.72,115,20.72z"/>
	<path class="st9" d="M131.17,6.73c-0.75,0-1.33-0.18-1.74-0.53s-0.61-0.86-0.61-1.54c0-0.66,0.2-1.16,0.61-1.51
		c0.41-0.35,0.99-0.53,1.74-0.53c0.78,0,1.38,0.18,1.78,0.53c0.4,0.35,0.6,0.86,0.6,1.51c0,0.67-0.2,1.18-0.6,1.54
		C132.55,6.56,131.95,6.73,131.17,6.73z M131.17,20.68c-0.67,0-1.19-0.2-1.56-0.6c-0.37-0.4-0.55-0.98-0.55-1.73v-7.58
		c0-0.75,0.18-1.33,0.55-1.73s0.89-0.6,1.56-0.6c0.69,0,1.22,0.2,1.6,0.6s0.56,0.98,0.56,1.73v7.58c0,0.75-0.18,1.33-0.55,1.73
		C132.41,20.48,131.87,20.68,131.17,20.68z"/>
	<path class="st9" d="M140.51,20.72c-0.7,0-1.42-0.05-2.15-0.16c-0.73-0.1-1.39-0.29-1.98-0.56c-0.4-0.16-0.68-0.38-0.85-0.65
		c-0.17-0.27-0.25-0.56-0.24-0.86c0.01-0.3,0.1-0.58,0.26-0.83s0.39-0.42,0.67-0.53c0.28-0.1,0.6-0.09,0.95,0.04
		c0.67,0.24,1.28,0.41,1.81,0.52s1.05,0.16,1.55,0.16c0.59,0,1.02-0.08,1.27-0.25s0.38-0.39,0.38-0.66c0-0.24-0.08-0.42-0.25-0.55
		c-0.17-0.13-0.4-0.22-0.71-0.26l-2.66-0.43c-0.99-0.18-1.76-0.54-2.3-1.09c-0.54-0.55-0.82-1.28-0.82-2.17
		c0-0.83,0.24-1.55,0.71-2.15s1.12-1.06,1.94-1.39c0.82-0.33,1.77-0.49,2.84-0.49c0.72,0,1.38,0.05,1.97,0.16
		c0.59,0.1,1.17,0.29,1.73,0.56c0.35,0.14,0.6,0.35,0.74,0.62c0.14,0.27,0.2,0.56,0.17,0.85c-0.03,0.3-0.13,0.57-0.3,0.82
		c-0.17,0.25-0.4,0.42-0.68,0.5c-0.29,0.09-0.62,0.07-1.01-0.06c-0.53-0.21-1-0.36-1.4-0.46c-0.41-0.1-0.79-0.14-1.14-0.14
		c-0.66,0-1.12,0.09-1.39,0.26c-0.27,0.18-0.41,0.4-0.41,0.67c0,0.21,0.07,0.38,0.22,0.52c0.14,0.14,0.37,0.23,0.67,0.28l2.66,0.46
		c1.02,0.16,1.81,0.51,2.36,1.04c0.55,0.54,0.83,1.26,0.83,2.17c0,1.3-0.5,2.3-1.49,3.01C143.47,20.37,142.15,20.72,140.51,20.72z"
		/>
	<path class="st9" d="M158.67,20.72c-0.91,0-1.72-0.17-2.41-0.5c-0.7-0.34-1.24-0.8-1.63-1.38c-0.39-0.58-0.59-1.25-0.59-2
		c0-0.86,0.22-1.54,0.67-2.04c0.45-0.5,1.17-0.85,2.16-1.07c0.99-0.22,2.31-0.32,3.96-0.32h1.32v2.02h-1.32
		c-0.62,0-1.14,0.04-1.55,0.13c-0.41,0.09-0.71,0.22-0.9,0.41c-0.19,0.18-0.29,0.42-0.29,0.71c0,0.37,0.13,0.67,0.4,0.91
		c0.26,0.24,0.64,0.36,1.14,0.36c0.4,0,0.76-0.09,1.07-0.26c0.31-0.18,0.56-0.42,0.76-0.73c0.19-0.31,0.29-0.68,0.29-1.09v-2.78
		c0-0.58-0.15-0.98-0.44-1.22c-0.3-0.24-0.8-0.36-1.52-0.36c-0.38,0-0.82,0.04-1.3,0.13c-0.48,0.09-1.02,0.24-1.61,0.47
		c-0.43,0.16-0.8,0.18-1.1,0.07c-0.3-0.11-0.54-0.3-0.71-0.58s-0.25-0.57-0.24-0.89c0.01-0.32,0.11-0.62,0.31-0.91
		c0.2-0.29,0.51-0.51,0.92-0.67c0.77-0.29,1.48-0.48,2.12-0.58c0.65-0.1,1.24-0.14,1.79-0.14c1.31,0,2.4,0.19,3.25,0.56
		c0.86,0.38,1.5,0.95,1.92,1.73c0.42,0.78,0.64,1.77,0.64,2.99v4.85c0,0.7-0.17,1.24-0.5,1.61c-0.34,0.37-0.82,0.55-1.46,0.55
		c-0.66,0-1.16-0.18-1.5-0.55c-0.34-0.37-0.52-0.9-0.52-1.61v-0.62l0.14,0.34c-0.08,0.51-0.26,0.95-0.55,1.32
		c-0.29,0.37-0.67,0.66-1.13,0.86C159.79,20.62,159.27,20.72,158.67,20.72z"/>
	<path class="st9" d="M177.23,20.68c-0.67,0-1.19-0.18-1.56-0.55c-0.37-0.37-0.55-0.9-0.55-1.61v-7.94c0-0.69,0.18-1.22,0.54-1.58
		c0.36-0.37,0.88-0.55,1.55-0.55s1.18,0.18,1.54,0.55c0.35,0.37,0.53,0.9,0.53,1.58v1.32L179,10.72c0.34-0.7,0.84-1.27,1.5-1.69
		c0.66-0.42,1.45-0.64,2.36-0.64c0.86,0,1.6,0.21,2.22,0.62c0.62,0.42,1.06,1.05,1.33,1.9h-0.34c0.37-0.78,0.92-1.4,1.66-1.85
		c0.74-0.45,1.55-0.67,2.45-0.67c0.93,0,1.69,0.18,2.28,0.54c0.59,0.36,1.04,0.92,1.33,1.68c0.29,0.76,0.44,1.72,0.44,2.87v5.04
		c0,0.7-0.19,1.24-0.56,1.61c-0.38,0.37-0.91,0.55-1.6,0.55c-0.67,0-1.19-0.18-1.56-0.55c-0.37-0.37-0.55-0.9-0.55-1.61V13.6
		c0-0.69-0.1-1.18-0.31-1.49c-0.21-0.3-0.55-0.46-1.03-0.46c-0.59,0-1.04,0.21-1.36,0.62c-0.31,0.42-0.47,1.01-0.47,1.78v4.46
		c0,0.7-0.18,1.24-0.55,1.61c-0.37,0.37-0.9,0.55-1.58,0.55c-0.69,0-1.22-0.18-1.58-0.55c-0.37-0.37-0.55-0.9-0.55-1.61V13.6
		c0-0.69-0.1-1.18-0.31-1.49c-0.21-0.3-0.55-0.46-1.03-0.46c-0.58,0-1.02,0.21-1.33,0.62c-0.31,0.42-0.47,1.01-0.47,1.78v4.46
		C179.39,19.96,178.67,20.68,177.23,20.68z"/>
	<path class="st9" d="M201.13,20.72c-1.02,0-1.86-0.19-2.52-0.56c-0.66-0.38-1.15-0.94-1.48-1.69c-0.33-0.75-0.49-1.7-0.49-2.86
		v-5.04c0-0.7,0.18-1.24,0.55-1.6c0.37-0.36,0.9-0.54,1.58-0.54c0.69,0,1.22,0.18,1.58,0.54c0.37,0.36,0.55,0.89,0.55,1.6v5.16
		c0,0.58,0.12,1.01,0.36,1.3c0.24,0.29,0.62,0.43,1.13,0.43c0.58,0,1.05-0.21,1.42-0.62c0.37-0.42,0.55-0.97,0.55-1.66v-4.61
		c0-0.7,0.18-1.24,0.55-1.6c0.37-0.36,0.9-0.54,1.58-0.54c0.69,0,1.22,0.18,1.58,0.54c0.37,0.36,0.55,0.89,0.55,1.6v7.94
		c0,1.44-0.69,2.16-2.06,2.16c-0.67,0-1.19-0.18-1.56-0.55c-0.37-0.37-0.55-0.9-0.55-1.61v-1.39l0.38,1.18
		c-0.35,0.78-0.84,1.38-1.48,1.8C202.74,20.52,201.99,20.72,201.13,20.72z"/>
	<path class="st9" d="M215.63,20.72c-1.54,0-2.67-0.41-3.4-1.24c-0.73-0.82-1.09-2.07-1.09-3.73V5.48c0-0.7,0.18-1.24,0.55-1.61
		c0.37-0.37,0.89-0.55,1.56-0.55c0.69,0,1.22,0.18,1.6,0.55c0.38,0.37,0.56,0.9,0.56,1.61v10.13c0,0.59,0.12,1.02,0.35,1.3
		c0.23,0.27,0.53,0.41,0.9,0.41c0.11,0,0.23-0.01,0.35-0.04c0.12-0.02,0.25-0.04,0.4-0.06c0.27,0,0.48,0.1,0.61,0.31
		c0.14,0.21,0.2,0.63,0.2,1.27c0,0.56-0.11,0.98-0.34,1.26c-0.22,0.28-0.57,0.46-1.03,0.54c-0.13,0.02-0.31,0.04-0.55,0.07
		S215.83,20.72,215.63,20.72z"/>
	<path class="st9" d="M225.27,20.72c-1.2,0-2.19-0.18-2.96-0.55c-0.78-0.37-1.36-0.92-1.74-1.67c-0.38-0.74-0.58-1.68-0.58-2.8V11.8
		h-0.82c-0.51,0-0.91-0.14-1.19-0.41c-0.28-0.27-0.42-0.66-0.42-1.18c0-0.51,0.14-0.9,0.42-1.16c0.28-0.26,0.68-0.4,1.19-0.4h0.82
		V7.16c0-0.7,0.18-1.24,0.55-1.61S221.44,5,222.13,5c0.69,0,1.22,0.18,1.58,0.55s0.55,0.9,0.55,1.61v1.49h1.97
		c0.53,0,0.93,0.13,1.21,0.4c0.28,0.26,0.42,0.65,0.42,1.16c0,0.51-0.14,0.9-0.42,1.18c-0.28,0.27-0.68,0.41-1.21,0.41h-1.97v3.77
		c0,0.59,0.14,1.03,0.42,1.31c0.28,0.28,0.72,0.42,1.33,0.42c0.22,0,0.44-0.02,0.65-0.07c0.21-0.05,0.4-0.07,0.58-0.07
		c0.26-0.02,0.46,0.06,0.62,0.23c0.16,0.17,0.24,0.55,0.24,1.14c0,0.48-0.07,0.88-0.22,1.21c-0.14,0.33-0.4,0.56-0.77,0.71
		c-0.22,0.08-0.53,0.15-0.91,0.2C225.83,20.7,225.51,20.72,225.27,20.72z"/>
	<path class="st9" d="M231.83,6.73c-0.75,0-1.33-0.18-1.74-0.53s-0.61-0.86-0.61-1.54c0-0.66,0.2-1.16,0.61-1.51
		c0.41-0.35,0.99-0.53,1.74-0.53c0.78,0,1.38,0.18,1.78,0.53c0.4,0.35,0.6,0.86,0.6,1.51c0,0.67-0.2,1.18-0.6,1.54
		C233.2,6.56,232.61,6.73,231.83,6.73z M231.83,20.68c-0.67,0-1.19-0.2-1.56-0.6c-0.37-0.4-0.55-0.98-0.55-1.73v-7.58
		c0-0.75,0.18-1.33,0.55-1.73s0.89-0.6,1.56-0.6c0.69,0,1.22,0.2,1.6,0.6s0.56,0.98,0.56,1.73v7.58c0,0.75-0.18,1.33-0.55,1.73
		C233.07,20.48,232.53,20.68,231.83,20.68z"/>
	<path class="st9" d="M238.18,15.68c-0.48,0-0.88-0.16-1.2-0.48c-0.32-0.32-0.48-0.72-0.48-1.2s0.16-0.88,0.48-1.19
		c0.32-0.31,0.72-0.47,1.2-0.47h4.75c0.48,0,0.88,0.16,1.2,0.47s0.48,0.71,0.48,1.19s-0.16,0.88-0.48,1.2
		c-0.32,0.32-0.72,0.48-1.2,0.48H238.18z"/>
	<path class="st9" d="M249.32,20.68c-0.7,0-1.24-0.18-1.62-0.55c-0.38-0.37-0.56-0.9-0.56-1.61v-7.94c0-0.69,0.18-1.22,0.54-1.58
		c0.36-0.37,0.88-0.55,1.55-0.55s1.18,0.18,1.54,0.55c0.35,0.37,0.53,0.9,0.53,1.58v0.98h-0.24c0.16-0.96,0.57-1.72,1.24-2.28
		c0.66-0.56,1.49-0.86,2.48-0.89c0.46-0.02,0.81,0.1,1.04,0.35c0.23,0.25,0.36,0.71,0.37,1.38c0,0.58-0.12,1.03-0.36,1.37
		c-0.24,0.34-0.7,0.54-1.37,0.6l-0.55,0.05c-0.85,0.08-1.46,0.32-1.85,0.71c-0.38,0.39-0.58,0.97-0.58,1.74v3.94
		c0,0.7-0.18,1.24-0.55,1.61C250.56,20.49,250.02,20.68,249.32,20.68z"/>
	<path class="st9" d="M261.54,20.72c-0.91,0-1.72-0.17-2.41-0.5c-0.7-0.34-1.24-0.8-1.63-1.38c-0.39-0.58-0.59-1.25-0.59-2
		c0-0.86,0.22-1.54,0.67-2.04c0.45-0.5,1.17-0.85,2.16-1.07c0.99-0.22,2.31-0.32,3.96-0.32h1.32v2.02h-1.32
		c-0.62,0-1.14,0.04-1.55,0.13c-0.41,0.09-0.71,0.22-0.9,0.41c-0.19,0.18-0.29,0.42-0.29,0.71c0,0.37,0.13,0.67,0.4,0.91
		c0.26,0.24,0.64,0.36,1.14,0.36c0.4,0,0.76-0.09,1.07-0.26c0.31-0.18,0.56-0.42,0.76-0.73c0.19-0.31,0.29-0.68,0.29-1.09v-2.78
		c0-0.58-0.15-0.98-0.44-1.22c-0.3-0.24-0.8-0.36-1.52-0.36c-0.38,0-0.82,0.04-1.3,0.13c-0.48,0.09-1.02,0.24-1.61,0.47
		c-0.43,0.16-0.8,0.18-1.1,0.07c-0.3-0.11-0.54-0.3-0.71-0.58s-0.25-0.57-0.24-0.89c0.01-0.32,0.11-0.62,0.31-0.91
		c0.2-0.29,0.51-0.51,0.92-0.67c0.77-0.29,1.48-0.48,2.12-0.58c0.65-0.1,1.24-0.14,1.79-0.14c1.31,0,2.4,0.19,3.25,0.56
		c0.86,0.38,1.5,0.95,1.92,1.73c0.42,0.78,0.64,1.77,0.64,2.99v4.85c0,0.7-0.17,1.24-0.5,1.61c-0.34,0.37-0.82,0.55-1.46,0.55
		c-0.66,0-1.16-0.18-1.5-0.55c-0.34-0.37-0.52-0.9-0.52-1.61v-0.62l0.14,0.34c-0.08,0.51-0.26,0.95-0.55,1.32
		c-0.29,0.37-0.67,0.66-1.13,0.86C262.66,20.62,262.13,20.72,261.54,20.72z"/>
	<path class="st9" d="M277.09,20.72c-1.33,0-2.48-0.25-3.47-0.74c-0.98-0.5-1.75-1.21-2.29-2.15s-0.82-2.04-0.82-3.3
		c0-0.96,0.15-1.82,0.46-2.58c0.3-0.76,0.75-1.4,1.33-1.93c0.58-0.53,1.28-0.93,2.09-1.21c0.81-0.28,1.71-0.42,2.7-0.42
		c0.46,0,0.95,0.04,1.46,0.13c0.51,0.09,1.04,0.25,1.58,0.49c0.38,0.14,0.65,0.36,0.8,0.66c0.15,0.3,0.22,0.61,0.19,0.95
		c-0.02,0.34-0.12,0.64-0.29,0.91c-0.17,0.27-0.4,0.46-0.7,0.55s-0.63,0.06-1-0.12c-0.26-0.13-0.52-0.22-0.8-0.28
		c-0.28-0.06-0.55-0.08-0.8-0.08c-0.43,0-0.81,0.06-1.14,0.19c-0.33,0.13-0.6,0.32-0.83,0.56c-0.22,0.25-0.4,0.56-0.52,0.92
		s-0.18,0.78-0.18,1.25c0,0.93,0.23,1.66,0.7,2.18c0.46,0.53,1.12,0.79,1.97,0.79c0.26,0,0.52-0.03,0.79-0.08
		c0.27-0.06,0.54-0.15,0.82-0.28c0.37-0.18,0.7-0.21,0.98-0.11s0.52,0.29,0.7,0.56s0.27,0.57,0.29,0.9
		c0.02,0.33-0.06,0.64-0.22,0.94c-0.16,0.3-0.43,0.52-0.82,0.66c-0.53,0.24-1.04,0.4-1.55,0.49S277.55,20.72,277.09,20.72z"/>
	<path class="st9" d="M284.79,6.73c-0.75,0-1.33-0.18-1.74-0.53s-0.61-0.86-0.61-1.54c0-0.66,0.2-1.16,0.61-1.51
		c0.41-0.35,0.99-0.53,1.74-0.53c0.78,0,1.38,0.18,1.78,0.53c0.4,0.35,0.6,0.86,0.6,1.51c0,0.67-0.2,1.18-0.6,1.54
		C286.17,6.56,285.58,6.73,284.79,6.73z M284.79,20.68c-0.67,0-1.19-0.2-1.56-0.6c-0.37-0.4-0.55-0.98-0.55-1.73v-7.58
		c0-0.75,0.18-1.33,0.55-1.73s0.89-0.6,1.56-0.6c0.69,0,1.22,0.2,1.6,0.6s0.56,0.98,0.56,1.73v7.58c0,0.75-0.18,1.33-0.55,1.73
		C286.03,20.48,285.5,20.68,284.79,20.68z"/>
	<path class="st9" d="M293.53,20.72c-0.91,0-1.72-0.17-2.41-0.5c-0.7-0.34-1.24-0.8-1.63-1.38c-0.39-0.58-0.59-1.25-0.59-2
		c0-0.86,0.22-1.54,0.67-2.04c0.45-0.5,1.17-0.85,2.16-1.07c0.99-0.22,2.31-0.32,3.96-0.32h1.32v2.02h-1.32
		c-0.62,0-1.14,0.04-1.55,0.13c-0.41,0.09-0.71,0.22-0.9,0.41c-0.19,0.18-0.29,0.42-0.29,0.71c0,0.37,0.13,0.67,0.4,0.91
		c0.26,0.24,0.64,0.36,1.14,0.36c0.4,0,0.76-0.09,1.07-0.26c0.31-0.18,0.56-0.42,0.76-0.73c0.19-0.31,0.29-0.68,0.29-1.09v-2.78
		c0-0.58-0.15-0.98-0.44-1.22c-0.3-0.24-0.8-0.36-1.52-0.36c-0.38,0-0.82,0.04-1.3,0.13c-0.48,0.09-1.02,0.24-1.61,0.47
		c-0.43,0.16-0.8,0.18-1.1,0.07c-0.3-0.11-0.54-0.3-0.71-0.58s-0.25-0.57-0.24-0.89c0.01-0.32,0.11-0.62,0.31-0.91
		c0.2-0.29,0.51-0.51,0.92-0.67c0.77-0.29,1.48-0.48,2.12-0.58c0.65-0.1,1.24-0.14,1.79-0.14c1.31,0,2.4,0.19,3.25,0.56
		c0.86,0.38,1.5,0.95,1.92,1.73c0.42,0.78,0.64,1.77,0.64,2.99v4.85c0,0.7-0.17,1.24-0.5,1.61c-0.34,0.37-0.82,0.55-1.46,0.55
		c-0.66,0-1.16-0.18-1.5-0.55c-0.34-0.37-0.52-0.9-0.52-1.61v-0.62l0.14,0.34c-0.08,0.51-0.26,0.95-0.55,1.32
		c-0.29,0.37-0.67,0.66-1.13,0.86C294.65,20.62,294.12,20.72,293.53,20.72z"/>
	<path class="st9" d="M307.54,20.72c-1.54,0-2.67-0.41-3.4-1.24c-0.73-0.82-1.09-2.07-1.09-3.73V5.48c0-0.7,0.18-1.24,0.55-1.61
		c0.37-0.37,0.89-0.55,1.56-0.55c0.69,0,1.22,0.18,1.6,0.55c0.38,0.37,0.56,0.9,0.56,1.61v10.13c0,0.59,0.12,1.02,0.35,1.3
		c0.23,0.27,0.53,0.41,0.9,0.41c0.11,0,0.23-0.01,0.35-0.04c0.12-0.02,0.25-0.04,0.4-0.06c0.27,0,0.48,0.1,0.61,0.31
		c0.14,0.21,0.2,0.63,0.2,1.27c0,0.56-0.11,0.98-0.34,1.26c-0.22,0.28-0.57,0.46-1.03,0.54c-0.13,0.02-0.31,0.04-0.55,0.07
		S307.75,20.72,307.54,20.72z"/>
	<path class="st9" d="M84.4,49.72c-1.33,0-2.48-0.25-3.47-0.74c-0.98-0.5-1.75-1.21-2.29-2.15s-0.82-2.04-0.82-3.3
		c0-0.96,0.15-1.82,0.46-2.58c0.3-0.76,0.75-1.4,1.33-1.93c0.58-0.53,1.28-0.93,2.09-1.21c0.81-0.28,1.71-0.42,2.7-0.42
		c0.46,0,0.95,0.04,1.46,0.13c0.51,0.09,1.04,0.25,1.58,0.49c0.38,0.14,0.65,0.36,0.8,0.66c0.15,0.3,0.22,0.61,0.19,0.95
		c-0.02,0.34-0.12,0.64-0.29,0.91c-0.17,0.27-0.4,0.46-0.7,0.55s-0.63,0.06-1-0.12c-0.26-0.13-0.52-0.22-0.8-0.28
		c-0.28-0.06-0.55-0.08-0.8-0.08c-0.43,0-0.81,0.06-1.14,0.19c-0.33,0.13-0.6,0.32-0.83,0.56c-0.22,0.25-0.4,0.56-0.52,0.92
		s-0.18,0.78-0.18,1.25c0,0.93,0.23,1.66,0.7,2.18c0.46,0.53,1.12,0.79,1.97,0.79c0.26,0,0.52-0.03,0.79-0.08
		c0.27-0.06,0.54-0.15,0.82-0.28c0.37-0.18,0.7-0.21,0.98-0.11s0.52,0.29,0.7,0.56s0.27,0.57,0.29,0.9
		c0.02,0.33-0.06,0.64-0.22,0.94c-0.16,0.3-0.43,0.52-0.82,0.66c-0.53,0.24-1.04,0.4-1.55,0.49S84.86,49.72,84.4,49.72z"/>
	<path class="st9" d="M95.72,49.72c-1.31,0-2.46-0.25-3.43-0.74c-0.98-0.5-1.74-1.21-2.28-2.14c-0.54-0.93-0.82-2.02-0.82-3.29
		c0-0.96,0.15-1.82,0.46-2.58c0.3-0.76,0.74-1.41,1.32-1.94c0.58-0.54,1.26-0.94,2.06-1.22c0.8-0.28,1.7-0.42,2.69-0.42
		c1.31,0,2.46,0.25,3.43,0.74c0.98,0.5,1.73,1.2,2.27,2.12c0.54,0.92,0.8,2.02,0.8,3.3c0,0.94-0.15,1.8-0.46,2.57
		c-0.3,0.77-0.74,1.42-1.31,1.96s-1.26,0.94-2.06,1.22C97.59,49.58,96.7,49.72,95.72,49.72z M95.72,46.58
		c0.43,0,0.82-0.11,1.15-0.32c0.34-0.22,0.6-0.54,0.78-0.98c0.18-0.44,0.28-1.01,0.28-1.72c0-1.07-0.21-1.84-0.62-2.32
		c-0.42-0.47-0.94-0.71-1.58-0.71c-0.43,0-0.82,0.1-1.15,0.31c-0.34,0.21-0.6,0.53-0.79,0.97c-0.19,0.44-0.29,1.02-0.29,1.74
		c0,1.06,0.21,1.82,0.62,2.3S95.07,46.58,95.72,46.58z"/>
	<path class="st9" d="M108.61,49.72c-1.02,0-1.86-0.19-2.52-0.56c-0.66-0.38-1.15-0.94-1.48-1.69c-0.33-0.75-0.49-1.7-0.49-2.86
		v-5.04c0-0.7,0.18-1.24,0.55-1.6c0.37-0.36,0.9-0.54,1.58-0.54c0.69,0,1.22,0.18,1.58,0.54c0.37,0.36,0.55,0.89,0.55,1.6v5.16
		c0,0.58,0.12,1.01,0.36,1.3c0.24,0.29,0.62,0.43,1.13,0.43c0.58,0,1.05-0.21,1.42-0.62c0.37-0.42,0.55-0.97,0.55-1.66v-4.61
		c0-0.7,0.18-1.24,0.55-1.6c0.37-0.36,0.9-0.54,1.58-0.54c0.69,0,1.22,0.18,1.58,0.54c0.37,0.36,0.55,0.89,0.55,1.6v7.94
		c0,1.44-0.69,2.16-2.06,2.16c-0.67,0-1.19-0.18-1.56-0.55c-0.37-0.37-0.55-0.9-0.55-1.61v-1.39l0.38,1.18
		c-0.35,0.78-0.84,1.38-1.48,1.8C110.22,49.52,109.48,49.72,108.61,49.72z"/>
	<path class="st9" d="M120.73,54c-0.67,0-1.19-0.18-1.56-0.55s-0.55-0.9-0.55-1.61V39.57c0-0.69,0.18-1.22,0.54-1.58
		c0.36-0.37,0.88-0.55,1.55-0.55c0.69,0,1.21,0.18,1.57,0.55c0.36,0.37,0.54,0.9,0.54,1.58v1.39l-0.26-1.18
		c0.22-0.72,0.69-1.3,1.4-1.74c0.71-0.44,1.52-0.66,2.44-0.66c1.02,0,1.92,0.25,2.7,0.74c0.78,0.5,1.38,1.2,1.81,2.11
		c0.43,0.91,0.65,2.02,0.65,3.31c0,1.26-0.22,2.36-0.65,3.29c-0.43,0.93-1.04,1.64-1.81,2.14s-1.68,0.74-2.7,0.74
		c-0.88,0-1.67-0.21-2.38-0.62c-0.71-0.42-1.18-0.96-1.42-1.63h0.29v4.37c0,0.7-0.19,1.24-0.56,1.61S121.42,54,120.73,54z
		 M125.05,46.58c0.43,0,0.81-0.11,1.14-0.32c0.33-0.22,0.59-0.54,0.78-0.98c0.19-0.44,0.29-1.01,0.29-1.72
		c0-1.07-0.21-1.84-0.62-2.32c-0.42-0.47-0.94-0.71-1.58-0.71c-0.43,0-0.82,0.1-1.15,0.31c-0.34,0.21-0.6,0.53-0.79,0.97
		c-0.19,0.44-0.29,1.02-0.29,1.74c0,1.06,0.21,1.82,0.62,2.3C123.86,46.34,124.4,46.58,125.05,46.58z"/>
	<path class="st9" d="M137.99,49.72c-1.54,0-2.67-0.41-3.4-1.24c-0.73-0.82-1.09-2.07-1.09-3.73V34.48c0-0.7,0.18-1.24,0.55-1.61
		c0.37-0.37,0.89-0.55,1.56-0.55c0.69,0,1.22,0.18,1.6,0.55c0.38,0.37,0.56,0.9,0.56,1.61v10.13c0,0.59,0.12,1.02,0.35,1.3
		c0.23,0.27,0.53,0.41,0.9,0.41c0.11,0,0.23-0.01,0.35-0.04c0.12-0.02,0.25-0.04,0.4-0.06c0.27,0,0.48,0.1,0.61,0.31
		c0.14,0.21,0.2,0.63,0.2,1.27c0,0.56-0.11,0.98-0.34,1.26c-0.22,0.28-0.57,0.46-1.03,0.54c-0.13,0.02-0.31,0.04-0.55,0.07
		S138.2,49.72,137.99,49.72z"/>
	<path class="st9" d="M148.16,49.72c-1.44,0-2.68-0.25-3.73-0.76c-1.05-0.5-1.85-1.22-2.41-2.15c-0.56-0.93-0.84-2.02-0.84-3.29
		c0-1.22,0.27-2.28,0.8-3.2s1.27-1.64,2.21-2.16c0.94-0.52,2-0.78,3.2-0.78c0.88,0,1.68,0.14,2.4,0.42
		c0.72,0.28,1.34,0.69,1.85,1.22c0.51,0.54,0.9,1.18,1.16,1.93c0.26,0.75,0.4,1.59,0.4,2.52c0,0.32-0.09,0.56-0.26,0.71
		c-0.18,0.15-0.46,0.23-0.84,0.23h-7.34V42.4h5.33l-0.38,0.31c0-0.59-0.08-1.07-0.24-1.44c-0.16-0.37-0.4-0.65-0.71-0.84
		c-0.31-0.19-0.7-0.29-1.16-0.29c-0.5,0-0.92,0.12-1.28,0.35c-0.36,0.23-0.64,0.57-0.83,1.02c-0.19,0.45-0.29,1.01-0.29,1.68v0.22
		c0,1.14,0.25,1.95,0.76,2.44s1.28,0.73,2.34,0.73c0.35,0,0.76-0.04,1.21-0.13c0.46-0.09,0.89-0.21,1.31-0.37
		c0.42-0.16,0.78-0.19,1.08-0.08c0.3,0.1,0.54,0.28,0.71,0.53s0.26,0.53,0.28,0.84s-0.06,0.62-0.22,0.91
		c-0.16,0.3-0.42,0.52-0.79,0.68c-0.56,0.26-1.16,0.45-1.79,0.58C149.44,49.66,148.8,49.72,148.16,49.72z"/>
	<path class="st9" d="M167.05,49.68c-0.54,0-1.02-0.13-1.42-0.4c-0.4-0.26-0.72-0.68-0.96-1.24l-3.26-7.9
		c-0.21-0.5-0.28-0.95-0.22-1.36c0.06-0.41,0.26-0.74,0.59-0.98c0.33-0.25,0.78-0.37,1.36-0.37c0.5,0,0.9,0.12,1.22,0.35
		c0.32,0.23,0.61,0.68,0.86,1.36l2.3,6.05h-0.5l2.42-6.5c0.16-0.43,0.38-0.75,0.66-0.95c0.28-0.2,0.64-0.3,1.07-0.3
		c0.46,0,0.83,0.1,1.1,0.31c0.27,0.21,0.49,0.52,0.65,0.94l2.42,6.5h-0.43l2.33-6.19c0.22-0.61,0.51-1.02,0.86-1.24
		c0.35-0.22,0.73-0.32,1.13-0.32c0.54,0,0.96,0.13,1.25,0.38c0.29,0.26,0.45,0.59,0.49,1.01c0.04,0.42-0.04,0.86-0.25,1.34
		l-3.24,7.85c-0.22,0.56-0.54,0.98-0.94,1.25c-0.4,0.27-0.87,0.41-1.42,0.41c-0.56,0-1.04-0.14-1.43-0.41
		c-0.39-0.27-0.71-0.69-0.95-1.25l-2.64-6.6h1.75l-2.5,6.55c-0.22,0.58-0.53,1-0.91,1.28S167.61,49.68,167.05,49.68z"/>
	<path class="st9" d="M184.86,35.73c-0.75,0-1.33-0.18-1.74-0.53s-0.61-0.86-0.61-1.54c0-0.66,0.2-1.16,0.61-1.51
		c0.41-0.35,0.99-0.53,1.74-0.53c0.78,0,1.38,0.18,1.78,0.53c0.4,0.35,0.6,0.86,0.6,1.51c0,0.67-0.2,1.18-0.6,1.54
		C186.24,35.56,185.64,35.73,184.86,35.73z M184.86,49.68c-0.67,0-1.19-0.2-1.56-0.6c-0.37-0.4-0.55-0.98-0.55-1.73v-7.58
		c0-0.75,0.18-1.33,0.55-1.73s0.89-0.6,1.56-0.6c0.69,0,1.22,0.2,1.6,0.6s0.56,0.98,0.56,1.73v7.58c0,0.75-0.18,1.33-0.55,1.73
		C186.1,49.48,185.56,49.68,184.86,49.68z"/>
	<path class="st9" d="M195.68,49.72c-1.2,0-2.19-0.18-2.96-0.55c-0.78-0.37-1.36-0.92-1.74-1.67c-0.38-0.74-0.58-1.68-0.58-2.8V40.8
		h-0.82c-0.51,0-0.91-0.14-1.19-0.41c-0.28-0.27-0.42-0.66-0.42-1.18c0-0.51,0.14-0.9,0.42-1.16c0.28-0.26,0.68-0.4,1.19-0.4h0.82
		v-1.49c0-0.7,0.18-1.24,0.55-1.61s0.9-0.55,1.58-0.55c0.69,0,1.22,0.18,1.58,0.55s0.55,0.9,0.55,1.61v1.49h1.97
		c0.53,0,0.93,0.13,1.21,0.4c0.28,0.26,0.42,0.65,0.42,1.16c0,0.51-0.14,0.9-0.42,1.18c-0.28,0.27-0.68,0.41-1.21,0.41h-1.97v3.77
		c0,0.59,0.14,1.03,0.42,1.31c0.28,0.28,0.72,0.42,1.33,0.42c0.22,0,0.44-0.02,0.65-0.07c0.21-0.05,0.4-0.07,0.58-0.07
		c0.26-0.02,0.46,0.06,0.62,0.23c0.16,0.17,0.24,0.55,0.24,1.14c0,0.48-0.07,0.88-0.22,1.21c-0.14,0.33-0.4,0.56-0.77,0.71
		c-0.22,0.08-0.53,0.15-0.91,0.2C196.24,49.7,195.92,49.72,195.68,49.72z"/>
	<path class="st9" d="M202.24,49.68c-0.67,0-1.19-0.18-1.56-0.55c-0.37-0.37-0.55-0.9-0.55-1.61V34.48c0-0.7,0.18-1.24,0.55-1.61
		c0.37-0.37,0.89-0.55,1.56-0.55c0.69,0,1.22,0.18,1.6,0.55c0.38,0.37,0.56,0.9,0.56,1.61v5.23h-0.38c0.38-0.75,0.93-1.33,1.64-1.73
		c0.71-0.4,1.52-0.6,2.44-0.6c0.94,0,1.72,0.18,2.33,0.54c0.61,0.36,1.06,0.92,1.37,1.68c0.3,0.76,0.46,1.72,0.46,2.87v5.04
		c0,0.7-0.18,1.24-0.55,1.61c-0.37,0.37-0.9,0.55-1.58,0.55c-0.69,0-1.22-0.18-1.58-0.55c-0.37-0.37-0.55-0.9-0.55-1.61v-4.87
		c0-0.72-0.12-1.23-0.37-1.54c-0.25-0.3-0.61-0.46-1.09-0.46c-0.64,0-1.15,0.2-1.54,0.61c-0.38,0.41-0.58,0.96-0.58,1.64v4.61
		C204.39,48.96,203.67,49.68,202.24,49.68z"/>
	<path class="st9" d="M226.98,49.72c-0.82,0-1.63-0.08-2.45-0.24s-1.52-0.38-2.11-0.67c-0.51-0.24-0.87-0.54-1.07-0.89
		c-0.2-0.35-0.28-0.71-0.25-1.08c0.03-0.37,0.16-0.7,0.4-0.98c0.23-0.29,0.54-0.48,0.91-0.59s0.8-0.05,1.28,0.16
		c0.59,0.26,1.14,0.43,1.63,0.53c0.5,0.1,0.99,0.14,1.49,0.14c0.58,0,1.06-0.06,1.44-0.19s0.67-0.32,0.86-0.59
		c0.19-0.26,0.29-0.6,0.29-1c0-0.56-0.2-0.97-0.59-1.24c-0.39-0.26-0.96-0.4-1.72-0.4h-1.3c-0.61,0-1.07-0.15-1.39-0.46
		c-0.32-0.3-0.48-0.74-0.48-1.3s0.16-0.99,0.48-1.3c0.32-0.3,0.78-0.46,1.39-0.46h0.86c0.46,0,0.86-0.06,1.19-0.19
		c0.33-0.13,0.58-0.32,0.76-0.56c0.18-0.25,0.26-0.56,0.26-0.92c0-0.53-0.19-0.93-0.56-1.2c-0.38-0.27-0.93-0.41-1.67-0.41
		c-0.45,0-0.9,0.05-1.37,0.14c-0.46,0.1-0.96,0.26-1.49,0.5c-0.42,0.18-0.8,0.22-1.14,0.12c-0.34-0.1-0.62-0.28-0.84-0.56
		c-0.22-0.28-0.35-0.59-0.4-0.94c-0.05-0.34,0.01-0.68,0.17-1.02s0.46-0.62,0.91-0.84c0.67-0.34,1.4-0.59,2.2-0.77
		c0.79-0.18,1.59-0.26,2.39-0.26c1.26,0,2.34,0.18,3.24,0.55c0.9,0.37,1.58,0.9,2.05,1.6c0.47,0.7,0.71,1.53,0.71,2.51
		c0,0.64-0.12,1.23-0.36,1.78c-0.24,0.54-0.59,1-1.06,1.36s-1.01,0.62-1.63,0.78v-0.34c1.12,0.18,2,0.64,2.63,1.4
		s0.95,1.71,0.95,2.84c0,1.02-0.26,1.91-0.79,2.66c-0.53,0.75-1.29,1.32-2.28,1.72C229.54,49.53,228.35,49.72,226.98,49.72z"/>
	<path class="st9" d="M248.82,49.72c-1.33,0-2.48-0.25-3.47-0.74c-0.98-0.5-1.75-1.21-2.29-2.15s-0.82-2.04-0.82-3.3
		c0-0.96,0.15-1.82,0.46-2.58c0.3-0.76,0.75-1.4,1.33-1.93c0.58-0.53,1.28-0.93,2.09-1.21c0.81-0.28,1.71-0.42,2.7-0.42
		c0.46,0,0.95,0.04,1.46,0.13c0.51,0.09,1.04,0.25,1.58,0.49c0.38,0.14,0.65,0.36,0.8,0.66c0.15,0.3,0.22,0.61,0.19,0.95
		c-0.02,0.34-0.12,0.64-0.29,0.91c-0.17,0.27-0.4,0.46-0.7,0.55s-0.63,0.06-1-0.12c-0.26-0.13-0.52-0.22-0.8-0.28
		c-0.28-0.06-0.55-0.08-0.8-0.08c-0.43,0-0.81,0.06-1.14,0.19c-0.33,0.13-0.6,0.32-0.83,0.56c-0.22,0.25-0.4,0.56-0.52,0.92
		s-0.18,0.78-0.18,1.25c0,0.93,0.23,1.66,0.7,2.18c0.46,0.53,1.12,0.79,1.97,0.79c0.26,0,0.52-0.03,0.79-0.08
		c0.27-0.06,0.54-0.15,0.82-0.28c0.37-0.18,0.7-0.21,0.98-0.11s0.52,0.29,0.7,0.56s0.27,0.57,0.29,0.9
		c0.02,0.33-0.06,0.64-0.22,0.94c-0.16,0.3-0.43,0.52-0.82,0.66c-0.53,0.24-1.04,0.4-1.55,0.49S249.28,49.72,248.82,49.72z"/>
	<path class="st9" d="M256.52,49.68c-0.67,0-1.19-0.18-1.56-0.55c-0.37-0.37-0.55-0.9-0.55-1.61V34.48c0-0.7,0.18-1.24,0.55-1.61
		c0.37-0.37,0.89-0.55,1.56-0.55c0.69,0,1.22,0.18,1.6,0.55c0.38,0.37,0.56,0.9,0.56,1.61v5.23h-0.38c0.38-0.75,0.93-1.33,1.64-1.73
		c0.71-0.4,1.52-0.6,2.44-0.6c0.94,0,1.72,0.18,2.33,0.54c0.61,0.36,1.06,0.92,1.37,1.68c0.3,0.76,0.46,1.72,0.46,2.87v5.04
		c0,0.7-0.18,1.24-0.55,1.61c-0.37,0.37-0.9,0.55-1.58,0.55c-0.69,0-1.22-0.18-1.58-0.55c-0.37-0.37-0.55-0.9-0.55-1.61v-4.87
		c0-0.72-0.12-1.23-0.37-1.54c-0.25-0.3-0.61-0.46-1.09-0.46c-0.64,0-1.15,0.2-1.54,0.61c-0.38,0.41-0.58,0.96-0.58,1.64v4.61
		C258.68,48.96,257.96,49.68,256.52,49.68z"/>
	<path class="st9" d="M271.07,35.73c-0.75,0-1.33-0.18-1.74-0.53s-0.61-0.86-0.61-1.54c0-0.66,0.2-1.16,0.61-1.51
		c0.41-0.35,0.99-0.53,1.74-0.53c0.78,0,1.38,0.18,1.78,0.53c0.4,0.35,0.6,0.86,0.6,1.51c0,0.67-0.2,1.18-0.6,1.54
		C272.44,35.56,271.85,35.73,271.07,35.73z M271.07,49.68c-0.67,0-1.19-0.2-1.56-0.6c-0.37-0.4-0.55-0.98-0.55-1.73v-7.58
		c0-0.75,0.18-1.33,0.55-1.73s0.89-0.6,1.56-0.6c0.69,0,1.22,0.2,1.6,0.6s0.56,0.98,0.56,1.73v7.58c0,0.75-0.18,1.33-0.55,1.73
		C272.31,49.48,271.77,49.68,271.07,49.68z"/>
	<path class="st9" d="M280.19,49.72c-1.54,0-2.67-0.41-3.4-1.24c-0.73-0.82-1.09-2.07-1.09-3.73V34.48c0-0.7,0.18-1.24,0.55-1.61
		c0.37-0.37,0.89-0.55,1.56-0.55c0.69,0,1.22,0.18,1.6,0.55c0.38,0.37,0.56,0.9,0.56,1.61v10.13c0,0.59,0.12,1.02,0.35,1.3
		c0.23,0.27,0.53,0.41,0.9,0.41c0.11,0,0.23-0.01,0.35-0.04c0.12-0.02,0.25-0.04,0.4-0.06c0.27,0,0.48,0.1,0.61,0.31
		c0.14,0.21,0.2,0.63,0.2,1.27c0,0.56-0.11,0.98-0.34,1.26c-0.22,0.28-0.57,0.46-1.03,0.54c-0.13,0.02-0.31,0.04-0.55,0.07
		S280.39,49.72,280.19,49.72z"/>
	<path class="st9" d="M288.54,49.72c-1.01,0-1.9-0.25-2.68-0.74s-1.38-1.21-1.82-2.14c-0.44-0.93-0.66-2.02-0.66-3.29
		c0-1.3,0.22-2.4,0.66-3.31c0.44-0.91,1.05-1.62,1.82-2.11c0.78-0.5,1.67-0.74,2.68-0.74c0.88,0,1.67,0.21,2.38,0.62
		c0.7,0.42,1.18,0.95,1.42,1.61h-0.26v-5.14c0-0.7,0.18-1.24,0.55-1.61c0.37-0.37,0.9-0.55,1.58-0.55c0.67,0,1.2,0.18,1.57,0.55
		c0.38,0.37,0.56,0.9,0.56,1.61v13.03c0,0.7-0.18,1.24-0.54,1.61c-0.36,0.37-0.88,0.55-1.57,0.55c-0.67,0-1.19-0.18-1.56-0.55
		c-0.37-0.37-0.55-0.9-0.55-1.61v-1.37l0.26,1.18c-0.22,0.72-0.69,1.3-1.4,1.74S289.45,49.72,288.54,49.72z M289.91,46.58
		c0.43,0,0.82-0.11,1.15-0.32c0.34-0.22,0.6-0.54,0.78-0.98c0.18-0.44,0.28-1.01,0.28-1.72c0-1.07-0.21-1.84-0.62-2.32
		c-0.42-0.47-0.94-0.71-1.58-0.71c-0.43,0-0.82,0.1-1.15,0.31c-0.34,0.21-0.6,0.53-0.79,0.97c-0.19,0.44-0.29,1.02-0.29,1.74
		c0,1.06,0.21,1.82,0.62,2.3S289.25,46.58,289.91,46.58z"/>
	<path class="st9" d="M300.99,49.68c-0.7,0-1.24-0.18-1.62-0.55c-0.38-0.37-0.56-0.9-0.56-1.61v-7.94c0-0.69,0.18-1.22,0.54-1.58
		c0.36-0.37,0.88-0.55,1.55-0.55s1.18,0.18,1.54,0.55c0.35,0.37,0.53,0.9,0.53,1.58v0.98h-0.24c0.16-0.96,0.57-1.72,1.24-2.28
		c0.66-0.56,1.49-0.86,2.48-0.89c0.46-0.02,0.81,0.1,1.04,0.35c0.23,0.25,0.36,0.71,0.37,1.38c0,0.58-0.12,1.03-0.36,1.37
		c-0.24,0.34-0.7,0.54-1.37,0.6l-0.55,0.05c-0.85,0.08-1.46,0.32-1.85,0.71c-0.38,0.39-0.58,0.97-0.58,1.74v3.94
		c0,0.7-0.18,1.24-0.55,1.61C302.23,49.49,301.7,49.68,300.99,49.68z"/>
	<path class="st9" d="M315.44,49.72c-1.44,0-2.68-0.25-3.73-0.76c-1.05-0.5-1.85-1.22-2.41-2.15c-0.56-0.93-0.84-2.02-0.84-3.29
		c0-1.22,0.27-2.28,0.8-3.2s1.27-1.64,2.21-2.16c0.94-0.52,2-0.78,3.2-0.78c0.88,0,1.68,0.14,2.4,0.42
		c0.72,0.28,1.34,0.69,1.85,1.22c0.51,0.54,0.9,1.18,1.16,1.93c0.26,0.75,0.4,1.59,0.4,2.52c0,0.32-0.09,0.56-0.26,0.71
		c-0.18,0.15-0.46,0.23-0.84,0.23h-7.34V42.4h5.33l-0.38,0.31c0-0.59-0.08-1.07-0.24-1.44c-0.16-0.37-0.4-0.65-0.71-0.84
		c-0.31-0.19-0.7-0.29-1.16-0.29c-0.5,0-0.92,0.12-1.28,0.35c-0.36,0.23-0.64,0.57-0.83,1.02c-0.19,0.45-0.29,1.01-0.29,1.68v0.22
		c0,1.14,0.25,1.95,0.76,2.44s1.28,0.73,2.34,0.73c0.35,0,0.76-0.04,1.21-0.13c0.46-0.09,0.89-0.21,1.31-0.37
		c0.42-0.16,0.78-0.19,1.08-0.08c0.3,0.1,0.54,0.28,0.71,0.53s0.26,0.53,0.28,0.84s-0.06,0.62-0.22,0.91
		c-0.16,0.3-0.42,0.52-0.79,0.68c-0.56,0.26-1.16,0.45-1.79,0.58C316.72,49.66,316.08,49.72,315.44,49.72z"/>
	<path class="st9" d="M324.44,49.68c-0.67,0-1.19-0.18-1.56-0.55c-0.37-0.37-0.55-0.9-0.55-1.61v-7.94c0-0.69,0.18-1.22,0.54-1.58
		c0.36-0.37,0.88-0.55,1.55-0.55s1.18,0.18,1.54,0.55c0.35,0.37,0.53,0.9,0.53,1.58v1.13l-0.26-0.98c0.38-0.75,0.93-1.33,1.64-1.73
		c0.71-0.4,1.52-0.6,2.44-0.6c0.94,0,1.72,0.18,2.33,0.54c0.61,0.36,1.06,0.92,1.37,1.68c0.3,0.76,0.46,1.72,0.46,2.87v5.04
		c0,0.7-0.18,1.24-0.55,1.61c-0.37,0.37-0.9,0.55-1.58,0.55c-0.69,0-1.22-0.18-1.58-0.55c-0.37-0.37-0.55-0.9-0.55-1.61v-4.87
		c0-0.72-0.12-1.23-0.37-1.54c-0.25-0.3-0.61-0.46-1.09-0.46c-0.64,0-1.15,0.2-1.54,0.61c-0.38,0.41-0.58,0.96-0.58,1.64v4.61
		C326.6,48.96,325.88,49.68,324.44,49.68z"/>
</g>
<g>
	<path class="st9" d="M4.28,174.21c-0.57,0-1.07-0.11-1.51-0.33c-0.44-0.22-0.79-0.51-1.04-0.89c-0.25-0.37-0.38-0.79-0.38-1.26
		c0-0.58,0.15-1.03,0.45-1.37s0.78-0.58,1.46-0.73s1.57-0.22,2.7-0.22h0.8v1.15H5.98c-0.66,0-1.19,0.03-1.58,0.1
		s-0.67,0.17-0.84,0.33c-0.17,0.15-0.25,0.37-0.25,0.65c0,0.35,0.12,0.64,0.37,0.86c0.25,0.22,0.59,0.34,1.02,0.34
		c0.35,0,0.66-0.08,0.94-0.25c0.27-0.17,0.49-0.39,0.65-0.68s0.24-0.62,0.24-0.99v-1.84c0-0.53-0.12-0.92-0.35-1.15
		c-0.23-0.23-0.63-0.35-1.18-0.35c-0.31,0-0.64,0.04-1,0.11c-0.36,0.07-0.73,0.2-1.13,0.38c-0.2,0.1-0.38,0.12-0.54,0.08
		c-0.16-0.04-0.28-0.13-0.36-0.26c-0.08-0.13-0.13-0.28-0.13-0.44c0-0.16,0.04-0.32,0.13-0.47c0.08-0.15,0.23-0.27,0.43-0.34
		c0.49-0.2,0.96-0.35,1.42-0.43c0.45-0.09,0.87-0.13,1.24-0.13c0.77,0,1.4,0.12,1.9,0.35c0.5,0.23,0.87,0.59,1.11,1.06
		c0.25,0.47,0.37,1.09,0.37,1.83v3.84c0,0.33-0.08,0.58-0.24,0.76c-0.16,0.18-0.39,0.26-0.69,0.26s-0.53-0.09-0.7-0.26
		c-0.17-0.18-0.25-0.43-0.25-0.76v-0.77h0.13c-0.07,0.37-0.22,0.7-0.44,0.97s-0.49,0.48-0.82,0.63
		C5.09,174.14,4.71,174.21,4.28,174.21z"/>
	<path class="st9" d="M14.11,177.09c-0.58,0-1.13-0.05-1.67-0.16c-0.54-0.11-1.03-0.27-1.46-0.5c-0.2-0.11-0.34-0.23-0.41-0.38
		s-0.09-0.3-0.06-0.46s0.09-0.29,0.19-0.41c0.1-0.12,0.23-0.2,0.38-0.24c0.15-0.04,0.3-0.02,0.46,0.06
		c0.47,0.23,0.91,0.39,1.34,0.46c0.42,0.07,0.78,0.1,1.08,0.1c0.71,0,1.25-0.17,1.61-0.52s0.54-0.86,0.54-1.54v-1.44h0.14
		c-0.16,0.54-0.49,0.98-1,1.3c-0.51,0.33-1.08,0.49-1.72,0.49c-0.7,0-1.32-0.16-1.84-0.49c-0.52-0.33-0.93-0.78-1.22-1.37
		s-0.43-1.27-0.43-2.05c0-0.59,0.08-1.12,0.25-1.59c0.17-0.47,0.4-0.88,0.7-1.22c0.3-0.34,0.67-0.6,1.1-0.79
		c0.43-0.19,0.91-0.28,1.43-0.28c0.66,0,1.24,0.16,1.74,0.49c0.5,0.33,0.82,0.75,0.97,1.29l-0.16,0.4v-1.14
		c0-0.33,0.09-0.58,0.26-0.75c0.18-0.17,0.42-0.26,0.73-0.26c0.32,0,0.57,0.09,0.74,0.26c0.17,0.17,0.26,0.42,0.26,0.75v6.16
		c0,1.27-0.34,2.22-1.01,2.86S15.38,177.09,14.11,177.09z M14.06,172.34c0.42,0,0.77-0.1,1.07-0.29s0.53-0.47,0.7-0.82
		c0.17-0.36,0.25-0.78,0.25-1.27c0-0.74-0.18-1.31-0.54-1.74c-0.36-0.42-0.85-0.63-1.47-0.63c-0.42,0-0.77,0.1-1.07,0.29
		c-0.3,0.19-0.53,0.46-0.7,0.82c-0.17,0.35-0.25,0.77-0.25,1.26c0,0.74,0.18,1.32,0.54,1.74C12.95,172.13,13.44,172.34,14.06,172.34
		z"/>
	<path class="st9" d="M23.98,174.21c-0.89,0-1.65-0.17-2.29-0.5c-0.64-0.33-1.13-0.8-1.48-1.41s-0.52-1.33-0.52-2.16
		c0-0.81,0.17-1.52,0.5-2.13c0.34-0.61,0.8-1.08,1.39-1.43s1.27-0.52,2.02-0.52c0.55,0,1.05,0.09,1.5,0.27
		c0.44,0.18,0.82,0.44,1.14,0.78c0.31,0.34,0.55,0.75,0.72,1.24s0.25,1.03,0.25,1.64c0,0.19-0.07,0.34-0.2,0.44
		c-0.13,0.1-0.32,0.15-0.57,0.15H21.3v-1.15h4.5l-0.26,0.24c0-0.49-0.07-0.9-0.22-1.23c-0.14-0.33-0.35-0.58-0.62-0.76
		c-0.27-0.18-0.61-0.26-1.02-0.26c-0.45,0-0.83,0.1-1.14,0.31s-0.55,0.5-0.72,0.88c-0.17,0.38-0.25,0.83-0.25,1.35v0.11
		c0,0.87,0.21,1.53,0.62,1.96c0.41,0.43,1.02,0.65,1.82,0.65c0.28,0,0.59-0.03,0.94-0.1s0.67-0.19,0.98-0.36
		c0.22-0.13,0.42-0.18,0.59-0.17c0.17,0.02,0.31,0.08,0.41,0.18c0.1,0.11,0.16,0.24,0.18,0.39c0.02,0.15-0.01,0.31-0.09,0.47
		c-0.08,0.16-0.22,0.3-0.41,0.42c-0.37,0.23-0.8,0.41-1.29,0.52C24.84,174.16,24.39,174.21,23.98,174.21z"/>
</g>
<circle class="st12" cx="115.11" cy="185.42" r="19.89"/>
<g>
	<g>
		<path class="st10" d="M63,115.81c-0.32,0-0.57-0.09-0.74-0.26c-0.17-0.18-0.26-0.43-0.26-0.76v-9.5c0-0.33,0.08-0.58,0.26-0.75
			s0.42-0.26,0.74-0.26c0.32,0,0.57,0.09,0.74,0.26c0.18,0.17,0.26,0.42,0.26,0.75v4.14h-0.22c0.23-0.57,0.6-0.99,1.1-1.29
			s1.06-0.44,1.69-0.44c0.63,0,1.15,0.12,1.55,0.35c0.41,0.23,0.71,0.59,0.91,1.06c0.2,0.47,0.3,1.07,0.3,1.8v3.87
			c0,0.33-0.09,0.58-0.26,0.76c-0.17,0.18-0.42,0.26-0.74,0.26s-0.57-0.09-0.74-0.26c-0.18-0.18-0.26-0.43-0.26-0.76v-3.78
			c0-0.61-0.12-1.05-0.34-1.33c-0.23-0.28-0.58-0.42-1.06-0.42c-0.59,0-1.05,0.18-1.4,0.55c-0.35,0.37-0.52,0.86-0.52,1.46v3.5
			C64.01,115.47,63.67,115.81,63,115.81z"/>
		<path class="st10" d="M75.22,115.85c-0.89,0-1.65-0.17-2.29-0.5c-0.64-0.33-1.13-0.8-1.48-1.41s-0.52-1.33-0.52-2.16
			c0-0.81,0.17-1.52,0.5-2.13c0.34-0.61,0.8-1.08,1.39-1.43s1.27-0.52,2.02-0.52c0.55,0,1.05,0.09,1.5,0.27
			c0.44,0.18,0.82,0.44,1.14,0.78c0.31,0.34,0.55,0.75,0.72,1.24s0.25,1.03,0.25,1.64c0,0.19-0.07,0.34-0.2,0.44
			c-0.13,0.1-0.32,0.15-0.57,0.15h-5.14v-1.15h4.5l-0.26,0.24c0-0.49-0.07-0.9-0.22-1.23c-0.14-0.33-0.35-0.58-0.62-0.76
			c-0.27-0.18-0.61-0.26-1.02-0.26c-0.45,0-0.83,0.1-1.14,0.31s-0.55,0.5-0.72,0.88c-0.17,0.38-0.25,0.83-0.25,1.35v0.11
			c0,0.87,0.21,1.53,0.62,1.96c0.41,0.43,1.02,0.65,1.82,0.65c0.28,0,0.59-0.03,0.94-0.1s0.67-0.19,0.98-0.36
			c0.22-0.13,0.42-0.18,0.59-0.17c0.17,0.02,0.31,0.08,0.41,0.18c0.1,0.11,0.16,0.24,0.18,0.39c0.02,0.15-0.01,0.31-0.09,0.47
			c-0.08,0.16-0.22,0.3-0.41,0.42c-0.37,0.23-0.8,0.41-1.29,0.52C76.09,115.79,75.64,115.85,75.22,115.85z"/>
		<path class="st10" d="M82.62,115.85c-0.57,0-1.07-0.11-1.51-0.33c-0.44-0.22-0.79-0.51-1.04-0.89c-0.25-0.37-0.38-0.79-0.38-1.26
			c0-0.58,0.15-1.03,0.45-1.37s0.78-0.58,1.46-0.73s1.57-0.22,2.7-0.22h0.8v1.15h-0.78c-0.66,0-1.19,0.03-1.58,0.1
			s-0.67,0.17-0.84,0.33c-0.17,0.15-0.25,0.37-0.25,0.65c0,0.35,0.12,0.64,0.37,0.86c0.25,0.22,0.59,0.34,1.02,0.34
			c0.35,0,0.66-0.08,0.94-0.25c0.27-0.17,0.49-0.39,0.65-0.68s0.24-0.62,0.24-0.99v-1.84c0-0.53-0.12-0.92-0.35-1.15
			c-0.23-0.23-0.63-0.35-1.18-0.35c-0.31,0-0.64,0.04-1,0.11c-0.36,0.07-0.73,0.2-1.13,0.38c-0.2,0.1-0.38,0.12-0.54,0.08
			c-0.16-0.04-0.28-0.13-0.36-0.26s-0.13-0.28-0.13-0.44c0-0.16,0.04-0.32,0.13-0.47c0.08-0.15,0.23-0.27,0.43-0.34
			c0.49-0.2,0.96-0.35,1.42-0.43c0.45-0.09,0.87-0.13,1.24-0.13c0.77,0,1.4,0.12,1.9,0.35c0.5,0.23,0.87,0.59,1.11,1.06
			c0.25,0.47,0.37,1.09,0.37,1.83v3.84c0,0.33-0.08,0.58-0.24,0.76c-0.16,0.18-0.39,0.26-0.69,0.26s-0.53-0.09-0.7-0.26
			c-0.17-0.18-0.25-0.43-0.25-0.76v-0.77h0.13c-0.07,0.37-0.22,0.7-0.44,0.97s-0.49,0.48-0.82,0.63
			C83.42,115.77,83.04,115.85,82.62,115.85z"/>
		<path class="st10" d="M91.8,115.85c-0.68,0-1.28-0.17-1.8-0.5s-0.92-0.8-1.21-1.42s-0.43-1.34-0.43-2.17
			c0-0.84,0.14-1.57,0.43-2.17s0.69-1.07,1.21-1.4s1.12-0.5,1.8-0.5c0.65,0,1.22,0.16,1.7,0.48c0.49,0.32,0.81,0.74,0.98,1.26h-0.18
			v-4.16c0-0.33,0.09-0.58,0.26-0.75c0.17-0.17,0.42-0.26,0.74-0.26c0.32,0,0.57,0.09,0.74,0.26s0.26,0.42,0.26,0.75v9.5
			c0,0.33-0.08,0.58-0.26,0.76c-0.17,0.18-0.42,0.26-0.74,0.26c-0.32,0-0.57-0.09-0.74-0.26c-0.17-0.18-0.26-0.43-0.26-0.76v-1.25
			l0.18,0.48c-0.16,0.55-0.49,1-0.98,1.33C93.04,115.68,92.46,115.85,91.8,115.85z M92.36,114.33c0.39,0,0.74-0.1,1.04-0.29
			c0.3-0.19,0.53-0.48,0.7-0.86s0.25-0.85,0.25-1.42c0-0.85-0.18-1.49-0.54-1.91s-0.84-0.63-1.44-0.63c-0.4,0-0.74,0.09-1.04,0.28
			c-0.3,0.19-0.53,0.47-0.7,0.85c-0.17,0.38-0.25,0.85-0.25,1.42c0,0.84,0.18,1.48,0.54,1.91
			C91.28,114.11,91.76,114.33,92.36,114.33z"/>
		<path class="st10" d="M106.3,115.85c-0.81,0-1.52-0.17-2.11-0.5c-0.6-0.33-1.06-0.8-1.39-1.42c-0.33-0.61-0.5-1.34-0.5-2.17
			c0-0.63,0.09-1.19,0.28-1.69s0.46-0.92,0.81-1.28c0.35-0.36,0.77-0.63,1.26-0.82c0.49-0.19,1.04-0.28,1.65-0.28
			c0.81,0,1.51,0.17,2.11,0.5s1.06,0.8,1.39,1.41c0.33,0.61,0.5,1.33,0.5,2.16c0,0.63-0.09,1.19-0.28,1.7
			c-0.19,0.5-0.46,0.93-0.81,1.29c-0.35,0.36-0.77,0.63-1.26,0.82S106.9,115.85,106.3,115.85z M106.3,114.33
			c0.39,0,0.74-0.1,1.04-0.29c0.3-0.19,0.53-0.48,0.7-0.86s0.25-0.85,0.25-1.42c0-0.85-0.18-1.49-0.54-1.91s-0.84-0.63-1.44-0.63
			c-0.4,0-0.74,0.09-1.04,0.28c-0.3,0.19-0.53,0.47-0.7,0.85c-0.17,0.38-0.25,0.85-0.25,1.42c0,0.84,0.18,1.48,0.54,1.91
			C105.22,114.11,105.7,114.33,106.3,114.33z"/>
		<path class="st10" d="M113.4,115.81c-0.32,0-0.57-0.09-0.74-0.26c-0.18-0.18-0.26-0.43-0.26-0.76v-5.42h-0.74
			c-0.26,0-0.45-0.07-0.59-0.2s-0.21-0.32-0.21-0.55c0-0.25,0.07-0.43,0.21-0.56s0.34-0.19,0.59-0.19h1.31l-0.58,0.53v-0.54
			c0-1.1,0.28-1.92,0.83-2.47c0.55-0.55,1.35-0.87,2.4-0.97l0.54-0.05c0.21-0.02,0.38,0.01,0.51,0.1c0.13,0.09,0.21,0.21,0.26,0.35
			c0.04,0.14,0.05,0.29,0.02,0.44c-0.03,0.15-0.1,0.28-0.2,0.39s-0.23,0.17-0.39,0.18l-0.22,0.02c-0.61,0.04-1.05,0.2-1.33,0.46
			c-0.28,0.27-0.42,0.67-0.42,1.22v0.59l-0.26-0.26h1.62c0.26,0,0.45,0.06,0.59,0.19s0.21,0.31,0.21,0.56
			c0,0.23-0.07,0.42-0.21,0.55s-0.34,0.2-0.59,0.2h-1.36v5.42C114.39,115.47,114.06,115.81,113.4,115.81z"/>
		<path class="st10" d="M63,133.81c-0.32,0-0.57-0.09-0.74-0.26c-0.17-0.18-0.26-0.43-0.26-0.76v-9.5c0-0.33,0.08-0.58,0.26-0.75
			s0.42-0.26,0.74-0.26c0.32,0,0.57,0.09,0.74,0.26c0.18,0.17,0.26,0.42,0.26,0.75v4.14h-0.22c0.23-0.57,0.6-0.99,1.1-1.29
			s1.06-0.44,1.69-0.44c0.63,0,1.15,0.12,1.55,0.35c0.41,0.23,0.71,0.59,0.91,1.06c0.2,0.47,0.3,1.07,0.3,1.8v3.87
			c0,0.33-0.09,0.58-0.26,0.76c-0.17,0.18-0.42,0.26-0.74,0.26s-0.57-0.09-0.74-0.26c-0.18-0.18-0.26-0.43-0.26-0.76v-3.78
			c0-0.61-0.12-1.05-0.34-1.33c-0.23-0.28-0.58-0.42-1.06-0.42c-0.59,0-1.05,0.18-1.4,0.55c-0.35,0.37-0.52,0.86-0.52,1.46v3.5
			C64.01,133.47,63.67,133.81,63,133.81z"/>
		<path class="st10" d="M74.94,133.85c-0.81,0-1.52-0.17-2.11-0.5c-0.6-0.33-1.06-0.8-1.39-1.42c-0.33-0.61-0.5-1.34-0.5-2.17
			c0-0.63,0.09-1.19,0.28-1.69s0.46-0.92,0.81-1.28c0.35-0.36,0.77-0.63,1.26-0.82c0.49-0.19,1.04-0.28,1.65-0.28
			c0.81,0,1.51,0.17,2.11,0.5s1.06,0.8,1.39,1.41c0.33,0.61,0.5,1.33,0.5,2.16c0,0.63-0.09,1.19-0.28,1.7
			c-0.19,0.5-0.46,0.93-0.81,1.29c-0.35,0.36-0.77,0.63-1.26,0.82S75.54,133.85,74.94,133.85z M74.94,132.33
			c0.39,0,0.74-0.1,1.04-0.29c0.3-0.19,0.53-0.48,0.7-0.86s0.25-0.85,0.25-1.42c0-0.85-0.18-1.49-0.54-1.91s-0.84-0.63-1.44-0.63
			c-0.4,0-0.74,0.09-1.04,0.28c-0.3,0.19-0.53,0.47-0.7,0.85c-0.17,0.38-0.25,0.85-0.25,1.42c0,0.84,0.18,1.48,0.54,1.91
			C73.86,132.11,74.34,132.33,74.94,132.33z"/>
		<path class="st10" d="M83.42,133.85c-0.65,0-1.19-0.12-1.62-0.36c-0.43-0.24-0.74-0.6-0.95-1.08s-0.31-1.08-0.31-1.79v-3.87
			c0-0.34,0.08-0.59,0.26-0.76c0.17-0.17,0.42-0.25,0.74-0.25c0.32,0,0.57,0.08,0.74,0.25c0.18,0.17,0.26,0.42,0.26,0.76v3.9
			c0,0.55,0.11,0.97,0.34,1.23c0.22,0.27,0.58,0.4,1.07,0.4c0.53,0,0.97-0.18,1.31-0.55s0.51-0.86,0.51-1.46v-3.52
			c0-0.34,0.09-0.59,0.26-0.76c0.17-0.17,0.42-0.25,0.74-0.25c0.32,0,0.57,0.08,0.74,0.25c0.18,0.17,0.26,0.42,0.26,0.76v6.05
			c0,0.68-0.33,1.02-0.98,1.02c-0.31,0-0.55-0.09-0.72-0.26c-0.17-0.18-0.26-0.43-0.26-0.76v-1.22l0.22,0.48
			c-0.22,0.58-0.56,1.02-1.02,1.33C84.57,133.69,84.04,133.85,83.42,133.85z"/>
		<path class="st10" d="M92.71,133.85c-0.46,0-0.94-0.05-1.46-0.14c-0.51-0.1-0.97-0.26-1.38-0.5c-0.17-0.11-0.29-0.23-0.36-0.38
			s-0.1-0.29-0.08-0.43c0.02-0.14,0.07-0.27,0.16-0.38c0.09-0.11,0.21-0.18,0.35-0.21c0.14-0.03,0.3-0.01,0.47,0.08
			c0.43,0.2,0.83,0.34,1.2,0.42c0.37,0.08,0.74,0.12,1.1,0.12c0.51,0,0.89-0.09,1.14-0.26c0.25-0.18,0.38-0.41,0.38-0.7
			c0-0.25-0.08-0.43-0.25-0.57c-0.17-0.13-0.41-0.23-0.74-0.3l-1.6-0.3c-0.66-0.13-1.17-0.37-1.51-0.73s-0.52-0.82-0.52-1.38
			c0-0.51,0.14-0.95,0.42-1.33c0.28-0.37,0.67-0.66,1.18-0.86c0.5-0.2,1.08-0.3,1.73-0.3c0.47,0,0.91,0.05,1.32,0.15
			c0.41,0.1,0.81,0.26,1.19,0.47c0.16,0.09,0.27,0.2,0.33,0.34c0.06,0.14,0.07,0.28,0.04,0.42c-0.03,0.14-0.1,0.27-0.19,0.38
			c-0.1,0.11-0.22,0.18-0.36,0.21c-0.14,0.03-0.31,0-0.49-0.09c-0.33-0.17-0.65-0.29-0.95-0.37c-0.3-0.07-0.59-0.11-0.87-0.11
			c-0.52,0-0.91,0.09-1.16,0.27c-0.25,0.18-0.38,0.42-0.38,0.72c0,0.22,0.07,0.41,0.22,0.56s0.38,0.25,0.69,0.3l1.6,0.3
			c0.69,0.13,1.22,0.36,1.58,0.7s0.54,0.8,0.54,1.38c0,0.78-0.3,1.39-0.91,1.83C94.54,133.62,93.73,133.85,92.71,133.85z"/>
		<path class="st10" d="M101.51,133.85c-0.89,0-1.65-0.17-2.29-0.5c-0.64-0.33-1.13-0.8-1.48-1.41s-0.52-1.33-0.52-2.16
			c0-0.81,0.17-1.52,0.5-2.13c0.34-0.61,0.8-1.08,1.39-1.43s1.27-0.52,2.02-0.52c0.55,0,1.05,0.09,1.5,0.27
			c0.44,0.18,0.82,0.44,1.14,0.78c0.31,0.34,0.55,0.75,0.72,1.24s0.25,1.03,0.25,1.64c0,0.19-0.07,0.34-0.2,0.44
			c-0.13,0.1-0.32,0.15-0.57,0.15h-5.14v-1.15h4.5l-0.26,0.24c0-0.49-0.07-0.9-0.22-1.23c-0.14-0.33-0.35-0.58-0.62-0.76
			c-0.27-0.18-0.61-0.26-1.02-0.26c-0.45,0-0.83,0.1-1.14,0.31s-0.55,0.5-0.72,0.88c-0.17,0.38-0.25,0.83-0.25,1.35v0.11
			c0,0.87,0.21,1.53,0.62,1.96c0.41,0.43,1.02,0.65,1.82,0.65c0.28,0,0.59-0.03,0.94-0.1s0.67-0.19,0.98-0.36
			c0.22-0.13,0.42-0.18,0.59-0.17c0.17,0.02,0.31,0.08,0.41,0.18c0.1,0.11,0.16,0.24,0.18,0.39c0.02,0.15-0.01,0.31-0.09,0.47
			c-0.08,0.16-0.22,0.3-0.41,0.42c-0.37,0.23-0.8,0.41-1.29,0.52C102.38,133.79,101.93,133.85,101.51,133.85z"/>
		<path class="st10" d="M107.32,133.81c-0.32,0-0.57-0.09-0.74-0.26c-0.17-0.18-0.26-0.43-0.26-0.76v-9.5
			c0-0.33,0.08-0.58,0.26-0.75s0.42-0.26,0.74-0.26c0.32,0,0.57,0.09,0.74,0.26c0.18,0.17,0.26,0.42,0.26,0.75v4.14h-0.22
			c0.23-0.57,0.6-0.99,1.1-1.29s1.06-0.44,1.69-0.44c0.63,0,1.15,0.12,1.55,0.35c0.41,0.23,0.71,0.59,0.91,1.06
			c0.2,0.47,0.3,1.07,0.3,1.8v3.87c0,0.33-0.09,0.58-0.26,0.76c-0.17,0.18-0.42,0.26-0.74,0.26s-0.57-0.09-0.74-0.26
			c-0.18-0.18-0.26-0.43-0.26-0.76v-3.78c0-0.61-0.12-1.05-0.34-1.33c-0.23-0.28-0.58-0.42-1.06-0.42c-0.59,0-1.05,0.18-1.4,0.55
			c-0.35,0.37-0.52,0.86-0.52,1.46v3.5C108.33,133.47,107.99,133.81,107.32,133.81z"/>
		<path class="st10" d="M119.26,133.85c-0.81,0-1.52-0.17-2.11-0.5c-0.6-0.33-1.06-0.8-1.39-1.42c-0.33-0.61-0.5-1.34-0.5-2.17
			c0-0.63,0.09-1.19,0.28-1.69s0.46-0.92,0.81-1.28c0.35-0.36,0.77-0.63,1.26-0.82c0.49-0.19,1.04-0.28,1.65-0.28
			c0.81,0,1.51,0.17,2.11,0.5s1.06,0.8,1.39,1.41c0.33,0.61,0.5,1.33,0.5,2.16c0,0.63-0.09,1.19-0.28,1.7
			c-0.19,0.5-0.46,0.93-0.81,1.29c-0.35,0.36-0.77,0.63-1.26,0.82S119.86,133.85,119.26,133.85z M119.26,132.33
			c0.39,0,0.74-0.1,1.04-0.29c0.3-0.19,0.53-0.48,0.7-0.86s0.25-0.85,0.25-1.42c0-0.85-0.18-1.49-0.54-1.91s-0.84-0.63-1.44-0.63
			c-0.4,0-0.74,0.09-1.04,0.28c-0.3,0.19-0.53,0.47-0.7,0.85c-0.17,0.38-0.25,0.85-0.25,1.42c0,0.84,0.18,1.48,0.54,1.91
			C118.18,132.11,118.66,132.33,119.26,132.33z"/>
		<path class="st10" d="M127.58,133.85c-0.89,0-1.55-0.25-2-0.76c-0.45-0.51-0.67-1.25-0.67-2.23v-7.57c0-0.33,0.08-0.58,0.26-0.75
			s0.42-0.26,0.74-0.26c0.32,0,0.57,0.09,0.74,0.26c0.18,0.17,0.26,0.42,0.26,0.75v7.47c0,0.49,0.1,0.85,0.31,1.09
			c0.21,0.23,0.5,0.35,0.89,0.35c0.08,0,0.17,0,0.24-0.01c0.07-0.01,0.15-0.01,0.22-0.02c0.15-0.02,0.25,0.02,0.3,0.12
			s0.08,0.31,0.08,0.62c0,0.27-0.05,0.48-0.16,0.62c-0.11,0.15-0.28,0.24-0.53,0.27c-0.11,0.01-0.22,0.02-0.34,0.03
			C127.81,133.84,127.69,133.85,127.58,133.85z"/>
		<path class="st10" d="M132.94,133.85c-0.68,0-1.28-0.17-1.8-0.5s-0.92-0.8-1.21-1.42s-0.43-1.34-0.43-2.17
			c0-0.84,0.14-1.57,0.43-2.17s0.69-1.07,1.21-1.4s1.12-0.5,1.8-0.5c0.65,0,1.22,0.16,1.7,0.48c0.49,0.32,0.81,0.74,0.98,1.26h-0.18
			v-4.16c0-0.33,0.09-0.58,0.26-0.75c0.17-0.17,0.42-0.26,0.74-0.26c0.32,0,0.57,0.09,0.74,0.26s0.26,0.42,0.26,0.75v9.5
			c0,0.33-0.08,0.58-0.26,0.76c-0.17,0.18-0.42,0.26-0.74,0.26c-0.32,0-0.57-0.09-0.74-0.26c-0.17-0.18-0.26-0.43-0.26-0.76v-1.25
			l0.18,0.48c-0.16,0.55-0.49,1-0.98,1.33C134.17,133.68,133.6,133.85,132.94,133.85z M133.5,132.33c0.39,0,0.74-0.1,1.04-0.29
			c0.3-0.19,0.53-0.48,0.7-0.86s0.25-0.85,0.25-1.42c0-0.85-0.18-1.49-0.54-1.91s-0.84-0.63-1.44-0.63c-0.4,0-0.74,0.09-1.04,0.28
			c-0.3,0.19-0.53,0.47-0.7,0.85c-0.17,0.38-0.25,0.85-0.25,1.42c0,0.84,0.18,1.48,0.54,1.91
			C132.42,132.11,132.9,132.33,133.5,132.33z"/>
	</g>
</g>
<polyline class="st11" points="113.34,186.54 88.04,186.54 65.9,136.35 "/>
<g>
	<path class="st13" d="M162.39,153.99c-0.65,0-1.15-0.18-1.51-0.54c-0.36-0.36-0.54-0.86-0.54-1.51V140.5
		c0-0.66,0.18-1.17,0.53-1.52s0.85-0.53,1.5-0.53c0.66,0,1.16,0.18,1.51,0.53s0.52,0.86,0.52,1.52v10.12h5.37
		c0.56,0,0.99,0.14,1.29,0.43c0.3,0.29,0.45,0.7,0.45,1.24s-0.15,0.96-0.45,1.25c-0.3,0.29-0.73,0.44-1.29,0.44H162.39z"/>
</g>
<g>
	<path class="st10" d="M238.98,130.14c-0.89,0-1.55-0.25-2-0.76c-0.45-0.51-0.67-1.25-0.67-2.23v-7.57c0-0.33,0.09-0.58,0.26-0.75
		c0.17-0.17,0.42-0.26,0.74-0.26c0.32,0,0.57,0.09,0.74,0.26c0.18,0.17,0.26,0.42,0.26,0.75v7.47c0,0.49,0.1,0.85,0.31,1.09
		s0.5,0.35,0.89,0.35c0.08,0,0.17,0,0.24-0.01c0.07,0,0.15-0.01,0.22-0.02c0.15-0.02,0.25,0.02,0.3,0.12
		c0.05,0.1,0.08,0.31,0.08,0.62c0,0.27-0.05,0.47-0.16,0.62c-0.11,0.15-0.28,0.24-0.53,0.27c-0.11,0.01-0.22,0.02-0.34,0.03
		C239.21,130.14,239.09,130.14,238.98,130.14z"/>
	<path class="st10" d="M243.99,130.14c-0.57,0-1.07-0.11-1.51-0.33c-0.44-0.22-0.79-0.51-1.04-0.89c-0.25-0.37-0.38-0.79-0.38-1.26
		c0-0.58,0.15-1.03,0.45-1.37c0.3-0.34,0.78-0.58,1.46-0.73c0.67-0.15,1.57-0.22,2.7-0.22h0.8v1.15h-0.78
		c-0.66,0-1.19,0.03-1.58,0.1c-0.4,0.06-0.67,0.17-0.84,0.33c-0.17,0.16-0.25,0.37-0.25,0.65c0,0.35,0.12,0.64,0.37,0.86
		c0.25,0.22,0.59,0.34,1.02,0.34c0.35,0,0.66-0.08,0.94-0.25c0.27-0.17,0.49-0.39,0.65-0.68c0.16-0.29,0.24-0.62,0.24-0.99v-1.84
		c0-0.53-0.12-0.92-0.35-1.15c-0.23-0.23-0.63-0.35-1.18-0.35c-0.31,0-0.64,0.04-1,0.11c-0.36,0.08-0.73,0.2-1.13,0.38
		c-0.2,0.1-0.38,0.12-0.54,0.08c-0.15-0.04-0.27-0.13-0.36-0.26c-0.09-0.13-0.13-0.28-0.13-0.44c0-0.16,0.04-0.32,0.13-0.47
		c0.09-0.15,0.23-0.27,0.43-0.34c0.49-0.2,0.96-0.35,1.42-0.43c0.45-0.08,0.87-0.13,1.24-0.13c0.77,0,1.4,0.12,1.9,0.35
		c0.5,0.23,0.87,0.59,1.11,1.06c0.25,0.48,0.37,1.09,0.37,1.83v3.84c0,0.33-0.08,0.58-0.24,0.76s-0.39,0.26-0.69,0.26
		c-0.3,0-0.53-0.09-0.7-0.26c-0.17-0.18-0.25-0.43-0.25-0.76v-0.77h0.13c-0.07,0.37-0.22,0.7-0.44,0.97
		c-0.22,0.27-0.49,0.48-0.82,0.63C244.79,130.07,244.41,130.14,243.99,130.14z"/>
	<path class="st10" d="M253.75,130.14c-0.69,0-1.27-0.12-1.74-0.35c-0.46-0.23-0.81-0.58-1.03-1.03c-0.22-0.45-0.34-1.02-0.34-1.69
		v-3.41h-0.83c-0.26,0-0.45-0.07-0.59-0.2c-0.14-0.13-0.21-0.32-0.21-0.55c0-0.25,0.07-0.43,0.21-0.56
		c0.14-0.13,0.34-0.19,0.59-0.19h0.83v-1.46c0-0.33,0.09-0.58,0.26-0.75c0.18-0.17,0.42-0.26,0.74-0.26c0.32,0,0.57,0.09,0.74,0.26
		c0.17,0.17,0.26,0.42,0.26,0.75v1.46h1.7c0.26,0,0.45,0.06,0.59,0.19c0.14,0.13,0.21,0.31,0.21,0.56c0,0.24-0.07,0.42-0.21,0.55
		c-0.14,0.13-0.34,0.2-0.59,0.2h-1.7v3.3c0,0.51,0.11,0.9,0.34,1.15s0.59,0.38,1.09,0.38c0.18,0,0.34-0.02,0.48-0.05
		s0.26-0.05,0.37-0.06c0.13-0.01,0.23,0.03,0.32,0.12c0.09,0.09,0.13,0.28,0.13,0.55c0,0.21-0.04,0.4-0.1,0.57
		c-0.07,0.17-0.19,0.28-0.38,0.34c-0.14,0.04-0.32,0.08-0.54,0.12C254.11,130.12,253.92,130.14,253.75,130.14z"/>
	<path class="st10" d="M257.51,120.56c-0.37,0-0.66-0.09-0.87-0.28s-0.31-0.45-0.31-0.78c0-0.34,0.1-0.6,0.31-0.78
		s0.5-0.27,0.87-0.27c0.38,0,0.68,0.09,0.88,0.27c0.2,0.18,0.3,0.44,0.3,0.78c0,0.33-0.1,0.59-0.3,0.78
		C258.18,120.46,257.89,120.56,257.51,120.56z M257.51,130.09c-0.32,0-0.57-0.1-0.74-0.29c-0.17-0.19-0.26-0.46-0.26-0.8v-5.87
		c0-0.35,0.09-0.62,0.26-0.81s0.42-0.28,0.74-0.28c0.32,0,0.57,0.09,0.74,0.28c0.18,0.19,0.26,0.46,0.26,0.81v5.87
		c0,0.34-0.09,0.61-0.26,0.8C258.09,130,257.84,130.09,257.51,130.09z"/>
	<path class="st10" d="M261.58,130.11c-0.32,0-0.57-0.09-0.74-0.26s-0.26-0.43-0.26-0.76v-6.05c0-0.33,0.09-0.58,0.26-0.75
		c0.17-0.17,0.41-0.26,0.72-0.26c0.31,0,0.55,0.09,0.72,0.26c0.17,0.17,0.26,0.42,0.26,0.75v1.09l-0.18-0.4
		c0.23-0.57,0.6-1,1.1-1.29s1.06-0.44,1.69-0.44s1.15,0.12,1.55,0.35s0.71,0.59,0.91,1.06c0.2,0.48,0.3,1.08,0.3,1.8v3.87
		c0,0.33-0.09,0.58-0.26,0.76c-0.17,0.18-0.42,0.26-0.74,0.26s-0.57-0.09-0.74-0.26c-0.18-0.18-0.26-0.43-0.26-0.76v-3.78
		c0-0.61-0.11-1.05-0.34-1.33s-0.58-0.42-1.06-0.42c-0.59,0-1.05,0.18-1.4,0.55s-0.52,0.86-0.52,1.46v3.5
		C262.59,129.77,262.26,130.11,261.58,130.11z"/>
	<path class="st10" d="M273.52,130.14c-0.81,0-1.51-0.17-2.11-0.5c-0.6-0.33-1.06-0.8-1.39-1.42s-0.5-1.34-0.5-2.17
		c0-0.63,0.09-1.19,0.28-1.69c0.19-0.5,0.46-0.92,0.81-1.28c0.35-0.36,0.77-0.63,1.26-0.82s1.04-0.28,1.65-0.28
		c0.81,0,1.51,0.17,2.11,0.5c0.6,0.33,1.06,0.8,1.39,1.41s0.5,1.33,0.5,2.16c0,0.63-0.09,1.19-0.28,1.7
		c-0.19,0.5-0.46,0.93-0.81,1.29s-0.77,0.63-1.26,0.82S274.13,130.14,273.52,130.14z M273.52,128.62c0.39,0,0.74-0.1,1.04-0.29
		c0.3-0.19,0.53-0.48,0.7-0.86c0.17-0.38,0.25-0.85,0.25-1.42c0-0.85-0.18-1.49-0.54-1.91c-0.36-0.42-0.84-0.63-1.44-0.63
		c-0.39,0-0.74,0.09-1.04,0.28s-0.53,0.47-0.7,0.85c-0.17,0.38-0.25,0.85-0.25,1.42c0,0.84,0.18,1.48,0.54,1.91
		C272.44,128.4,272.92,128.62,273.52,128.62z"/>
	<path class="st10" d="M279.54,130.44c-0.06,0.2-0.17,0.35-0.3,0.44c-0.14,0.09-0.29,0.14-0.46,0.14s-0.32-0.04-0.46-0.13
		c-0.14-0.09-0.24-0.21-0.3-0.36s-0.06-0.34,0.01-0.55l3.7-11.47c0.06-0.2,0.17-0.35,0.31-0.45s0.3-0.14,0.46-0.14
		c0.16,0,0.31,0.05,0.45,0.14s0.24,0.2,0.3,0.35c0.06,0.15,0.06,0.33-0.01,0.54L279.54,130.44z"/>
	<path class="st10" d="M285.79,130.14c-0.57,0-1.07-0.11-1.51-0.33c-0.44-0.22-0.79-0.51-1.04-0.89c-0.25-0.37-0.38-0.79-0.38-1.26
		c0-0.58,0.15-1.03,0.45-1.37c0.3-0.34,0.78-0.58,1.46-0.73c0.67-0.15,1.57-0.22,2.7-0.22h0.8v1.15h-0.78
		c-0.66,0-1.19,0.03-1.58,0.1c-0.4,0.06-0.67,0.17-0.84,0.33c-0.17,0.16-0.25,0.37-0.25,0.65c0,0.35,0.12,0.64,0.37,0.86
		c0.25,0.22,0.59,0.34,1.02,0.34c0.35,0,0.66-0.08,0.94-0.25c0.27-0.17,0.49-0.39,0.65-0.68c0.16-0.29,0.24-0.62,0.24-0.99v-1.84
		c0-0.53-0.12-0.92-0.35-1.15c-0.23-0.23-0.63-0.35-1.18-0.35c-0.31,0-0.64,0.04-1,0.11c-0.36,0.08-0.73,0.2-1.13,0.38
		c-0.2,0.1-0.38,0.12-0.54,0.08c-0.15-0.04-0.27-0.13-0.36-0.26c-0.09-0.13-0.13-0.28-0.13-0.44c0-0.16,0.04-0.32,0.13-0.47
		c0.09-0.15,0.23-0.27,0.43-0.34c0.49-0.2,0.96-0.35,1.42-0.43c0.45-0.08,0.87-0.13,1.24-0.13c0.77,0,1.4,0.12,1.9,0.35
		c0.5,0.23,0.87,0.59,1.11,1.06c0.25,0.48,0.37,1.09,0.37,1.83v3.84c0,0.33-0.08,0.58-0.24,0.76s-0.39,0.26-0.69,0.26
		c-0.3,0-0.53-0.09-0.7-0.26c-0.17-0.18-0.25-0.43-0.25-0.76v-0.77h0.13c-0.07,0.37-0.22,0.7-0.44,0.97
		c-0.22,0.27-0.49,0.48-0.82,0.63C286.6,130.07,286.22,130.14,285.79,130.14z"/>
</g>
<polyline class="st11" points="230.17,125.48 180.18,125.59 165.03,135.05 "/>
</svg>
