<?xml version="1.0" encoding="utf-8"?>
<!-- Generator: Adobe Illustrator 26.0.2, SVG Export Plug-In . SVG Version: 6.00 Build 0)  -->
<svg version="1.1" id="Layer_3" xmlns="http://www.w3.org/2000/svg" xmlns:xlink="http://www.w3.org/1999/xlink" x="0px" y="0px"
	 viewBox="0 0 336.95 560.07" style="enable-background:new 0 0 336.95 560.07;" xml:space="preserve">
<style type="text/css">
	.st0{fill:#067A00;}
	.st1{fill:#0015AA;}
	.st2{fill:#8102A0;}
	.st3{fill:#DD0000;}
	.st4{fill:#DDDD00;}
	.st5{fill:#BABABA;}
	.st6{fill:#A0A0A0;}
	.st7{opacity:0.75;fill:#CCCCCC;}
	.st8{fill:none;stroke:#666666;stroke-miterlimit:10;}
	.st9{fill:#666666;}
	.st10{fill:#848383;}
	.st11{fill:none;stroke:#606060;stroke-width:0.75;stroke-linecap:round;stroke-miterlimit:10;}
	.st12{fill:none;stroke:#666666;stroke-linecap:round;stroke-miterlimit:10;}
	.st13{opacity:0.5;fill:#FFFFFF;}
	.st14{fill:none;stroke:#666666;stroke-width:3.5;stroke-linecap:round;stroke-miterlimit:10;}
	.st15{fill:none;stroke:#666666;stroke-width:3;stroke-linecap:round;stroke-linejoin:round;stroke-miterlimit:10;}
</style>
<path class="st0" d="M198.04,448.81c-10.35,0-19.07-8.04-19.76-18.52l-7.23-109.92c-0.06-0.86-0.06-1.72,0-2.58l7.23-112.12
	c0.7-10.92,10.09-19.21,21.05-18.5c10.92,0.7,19.21,10.13,18.5,21.05l-7.14,110.83l7.14,108.63c0.72,10.92-7.55,20.36-18.48,21.08
	C198.92,448.79,198.48,448.81,198.04,448.81z"/>
<path class="st1" d="M191.02,452.68c-10.35,0-19.07-8.04-19.76-18.52l-7.23-109.92c-0.06-0.86-0.06-1.72,0-2.58l7.23-112.12
	c0.7-10.92,10.09-19.21,21.05-18.5c10.92,0.7,19.21,10.13,18.5,21.05l-7.14,110.83l7.14,108.63c0.72,10.92-7.55,20.36-18.48,21.08
	C191.9,452.67,191.46,452.68,191.02,452.68z"/>
<path class="st2" d="M184.71,455.46c-10.35,0-19.07-8.04-19.76-18.52l-7.23-109.92c-0.06-0.86-0.06-1.72,0-2.58l7.23-112.12
	c0.7-10.92,10.09-19.21,21.05-18.5c10.92,0.7,19.21,10.13,18.5,21.05l-7.14,110.83l7.14,108.63c0.72,10.92-7.55,20.36-18.48,21.08
	C185.59,455.44,185.14,455.46,184.71,455.46z"/>
<path class="st3" d="M177.28,459.65c-10.35,0-19.07-8.04-19.76-18.52l-7.23-109.92c-0.06-0.86-0.06-1.72,0-2.58l7.23-112.12
	c0.7-10.92,10.09-19.21,21.05-18.5c10.92,0.7,19.21,10.13,18.5,21.05l-7.14,110.83l7.14,108.63c0.72,10.92-7.55,20.36-18.48,21.08
	C178.16,459.64,177.72,459.65,177.28,459.65z"/>
<path class="st4" d="M170.36,462.11c-10.35,0-19.07-8.04-19.76-18.52l-7.23-109.92c-0.06-0.86-0.06-1.72,0-2.58l7.23-112.12
	c0.7-10.92,10.09-19.21,21.05-18.5c10.92,0.7,19.21,10.13,18.5,21.05l-7.14,110.83l7.14,108.63c0.72,10.92-7.55,20.36-18.48,21.08
	C171.24,462.09,170.8,462.11,170.36,462.11z"/>
<path class="st5" d="M163.8,463.94c-10.35,0-19.07-8.04-19.76-18.52l-7.23-109.92c-0.06-0.86-0.06-1.72,0-2.58l7.23-112.12
	c0.7-10.92,10.09-19.21,21.05-18.5c10.92,0.7,19.21,10.13,18.5,21.05l-7.14,110.83l7.14,108.63c0.72,10.92-7.55,20.36-18.48,21.08
	C164.68,463.92,164.24,463.94,163.8,463.94z"/>
<path class="st6" d="M115.23,463.94c-0.43,0-0.87-0.01-1.3-0.04c-10.92-0.71-19.2-10.14-18.49-21.06l7.14-109.98l-7.14-104.89
	c-0.74-10.92,7.51-20.38,18.43-21.12c10.92-0.75,20.38,7.51,21.12,18.43l7.23,106.2c0.06,0.88,0.06,1.75,0,2.63l-7.23,111.3
	C134.31,455.89,125.59,463.94,115.23,463.94z"/>
<path class="st7" d="M139.36,316.85c-0.25,0-0.49-0.01-0.73-0.04l-42.15-4.45c-3.84-0.41-6.63-3.85-6.23-7.7
	c0.41-3.84,3.85-6.63,7.7-6.23l41.41,4.37l41.25-4.37c3.84-0.41,7.29,2.38,7.7,6.22c0.41,3.84-2.38,7.29-6.22,7.7l-41.98,4.45
	C139.85,316.84,139.61,316.85,139.36,316.85z"/>
<path class="st7" d="M139.36,335.25c-0.25,0-0.49-0.01-0.73-0.04l-42.15-4.45c-3.84-0.41-6.63-3.85-6.23-7.7s3.85-6.63,7.7-6.23
	l41.41,4.37l41.25-4.37c3.85-0.4,7.29,2.38,7.7,6.22c0.41,3.84-2.38,7.29-6.22,7.7l-41.98,4.45
	C139.85,335.23,139.61,335.25,139.36,335.25z"/>
<path class="st7" d="M139.36,376.32c-0.25,0-0.49-0.01-0.73-0.04l-42.15-4.45c-3.84-0.41-6.63-3.85-6.23-7.7s3.85-6.63,7.7-6.23
	l41.41,4.37l41.25-4.37c3.85-0.41,7.29,2.38,7.7,6.22c0.41,3.84-2.38,7.29-6.22,7.7l-41.98,4.45
	C139.85,376.3,139.61,376.32,139.36,376.32z"/>
<g>
	<g>
		<line class="st8" x1="35.17" y1="200.02" x2="35.17" y2="462.25"/>
		<g>
			<polygon class="st9" points="31.08,203.33 31.81,204.02 35.17,200.4 38.53,204.02 39.26,203.33 35.17,198.94 			"/>
		</g>
		<g>
			<rect x="31.92" y="461.75" class="st9" width="6.5" height="1"/>
		</g>
	</g>
</g>
<g>
	<path class="st10" d="M238.7,459.78c-0.32,0-0.57-0.09-0.74-0.26c-0.17-0.18-0.26-0.43-0.26-0.76v-6.05c0-0.33,0.08-0.58,0.26-0.75
		c0.17-0.17,0.41-0.26,0.72-0.26s0.55,0.09,0.72,0.26c0.17,0.17,0.26,0.42,0.26,0.75v1.09l-0.18-0.4c0.23-0.57,0.6-1,1.1-1.29
		s1.06-0.44,1.69-0.44c0.63,0,1.15,0.12,1.55,0.35s0.71,0.59,0.91,1.06c0.2,0.48,0.3,1.08,0.3,1.8v3.87c0,0.33-0.09,0.58-0.26,0.76
		c-0.17,0.18-0.42,0.26-0.74,0.26c-0.32,0-0.57-0.09-0.74-0.26s-0.26-0.43-0.26-0.76v-3.78c0-0.61-0.12-1.05-0.34-1.33
		s-0.58-0.42-1.06-0.42c-0.59,0-1.05,0.18-1.4,0.55s-0.52,0.86-0.52,1.46v3.5C239.71,459.44,239.37,459.78,238.7,459.78z"/>
	<path class="st10" d="M249.64,459.81c-0.57,0-1.07-0.11-1.51-0.33c-0.44-0.22-0.79-0.51-1.04-0.89c-0.25-0.37-0.38-0.79-0.38-1.26
		c0-0.58,0.15-1.03,0.45-1.37c0.3-0.34,0.78-0.58,1.46-0.73c0.67-0.15,1.57-0.22,2.7-0.22h0.8v1.15h-0.78
		c-0.66,0-1.19,0.03-1.58,0.1c-0.4,0.06-0.67,0.17-0.84,0.33c-0.17,0.16-0.25,0.37-0.25,0.65c0,0.35,0.12,0.64,0.37,0.86
		c0.25,0.22,0.59,0.34,1.02,0.34c0.35,0,0.66-0.08,0.94-0.25c0.27-0.17,0.49-0.39,0.65-0.68c0.16-0.29,0.24-0.62,0.24-0.99v-1.84
		c0-0.53-0.12-0.92-0.35-1.15s-0.63-0.35-1.18-0.35c-0.31,0-0.64,0.04-1,0.11c-0.36,0.08-0.73,0.2-1.13,0.38
		c-0.2,0.1-0.38,0.12-0.54,0.08c-0.15-0.04-0.27-0.13-0.36-0.26c-0.08-0.13-0.13-0.28-0.13-0.44c0-0.16,0.04-0.32,0.13-0.47
		c0.09-0.15,0.23-0.27,0.43-0.34c0.49-0.2,0.96-0.35,1.42-0.43c0.45-0.08,0.87-0.13,1.24-0.13c0.77,0,1.4,0.12,1.9,0.35
		s0.87,0.59,1.11,1.06c0.25,0.48,0.37,1.09,0.37,1.83v3.84c0,0.33-0.08,0.58-0.24,0.76s-0.39,0.26-0.69,0.26s-0.53-0.09-0.7-0.26
		c-0.17-0.18-0.25-0.43-0.25-0.76v-0.77h0.13c-0.08,0.37-0.22,0.7-0.44,0.97c-0.22,0.27-0.49,0.48-0.82,0.63
		C250.45,459.74,250.07,459.81,249.64,459.81z"/>
	<path class="st10" d="M259.4,459.81c-0.69,0-1.27-0.12-1.74-0.35c-0.46-0.23-0.81-0.58-1.03-1.03c-0.22-0.45-0.34-1.02-0.34-1.69
		v-3.41h-0.83c-0.26,0-0.45-0.07-0.59-0.2c-0.14-0.13-0.21-0.32-0.21-0.55c0-0.25,0.07-0.43,0.21-0.56
		c0.14-0.13,0.34-0.19,0.59-0.19h0.83v-1.46c0-0.33,0.09-0.58,0.26-0.75c0.18-0.17,0.42-0.26,0.74-0.26s0.57,0.09,0.74,0.26
		c0.17,0.17,0.26,0.42,0.26,0.75v1.46h1.7c0.26,0,0.45,0.06,0.59,0.19c0.14,0.13,0.21,0.31,0.21,0.56c0,0.24-0.07,0.42-0.21,0.55
		c-0.14,0.13-0.34,0.2-0.59,0.2h-1.7v3.3c0,0.51,0.11,0.9,0.34,1.15c0.22,0.26,0.59,0.38,1.09,0.38c0.18,0,0.34-0.02,0.48-0.05
		s0.26-0.05,0.37-0.06c0.13-0.01,0.23,0.03,0.32,0.12c0.08,0.09,0.13,0.28,0.13,0.55c0,0.21-0.04,0.4-0.1,0.57
		c-0.07,0.17-0.2,0.28-0.38,0.34c-0.14,0.04-0.32,0.08-0.54,0.12C259.77,459.79,259.57,459.81,259.4,459.81z"/>
	<path class="st10" d="M263.16,450.23c-0.37,0-0.66-0.09-0.87-0.28s-0.31-0.45-0.31-0.78c0-0.34,0.1-0.6,0.31-0.78
		s0.5-0.27,0.87-0.27c0.38,0,0.68,0.09,0.88,0.27s0.3,0.44,0.3,0.78c0,0.33-0.1,0.59-0.3,0.78S263.54,450.23,263.16,450.23z
		 M263.16,459.77c-0.32,0-0.57-0.1-0.74-0.29c-0.17-0.19-0.26-0.46-0.26-0.8v-5.87c0-0.35,0.09-0.62,0.26-0.81
		c0.17-0.19,0.42-0.28,0.74-0.28s0.57,0.09,0.74,0.28s0.26,0.46,0.26,0.81v5.87c0,0.34-0.08,0.61-0.26,0.8
		C263.74,459.67,263.49,459.77,263.16,459.77z"/>
	<path class="st10" d="M269.42,459.78c-0.27,0-0.5-0.07-0.7-0.21c-0.2-0.14-0.36-0.35-0.49-0.64l-2.54-5.9
		c-0.1-0.23-0.13-0.45-0.1-0.66c0.03-0.2,0.12-0.37,0.29-0.49c0.17-0.12,0.39-0.18,0.68-0.18c0.25,0,0.44,0.06,0.59,0.17
		s0.28,0.32,0.4,0.63l2.16,5.39h-0.48l2.22-5.41c0.12-0.3,0.25-0.5,0.41-0.62c0.15-0.11,0.37-0.17,0.63-0.17
		c0.23,0,0.42,0.06,0.56,0.18c0.14,0.12,0.22,0.28,0.26,0.48c0.03,0.2-0.01,0.41-0.11,0.65l-2.59,5.92
		c-0.12,0.29-0.28,0.5-0.47,0.64S269.69,459.78,269.42,459.78z"/>
	<path class="st10" d="M278.38,459.81c-0.89,0-1.65-0.17-2.29-0.5c-0.64-0.33-1.13-0.8-1.48-1.41c-0.35-0.61-0.52-1.33-0.52-2.16
		c0-0.81,0.17-1.52,0.5-2.13c0.34-0.61,0.8-1.08,1.39-1.43c0.59-0.35,1.27-0.52,2.02-0.52c0.55,0,1.05,0.09,1.5,0.27
		c0.44,0.18,0.82,0.44,1.14,0.78c0.31,0.34,0.55,0.75,0.72,1.24c0.17,0.49,0.25,1.03,0.25,1.64c0,0.19-0.07,0.34-0.2,0.44
		c-0.13,0.1-0.32,0.15-0.57,0.15h-5.14v-1.15h4.5l-0.26,0.24c0-0.49-0.07-0.9-0.22-1.23c-0.14-0.33-0.35-0.58-0.62-0.76
		c-0.27-0.18-0.61-0.26-1.02-0.26c-0.45,0-0.83,0.1-1.14,0.31s-0.55,0.5-0.72,0.88c-0.17,0.38-0.25,0.83-0.25,1.35v0.11
		c0,0.88,0.21,1.53,0.62,1.96c0.41,0.43,1.02,0.65,1.82,0.65c0.28,0,0.59-0.03,0.94-0.1s0.67-0.19,0.98-0.36
		c0.22-0.13,0.42-0.18,0.59-0.17c0.17,0.02,0.31,0.08,0.41,0.18c0.1,0.11,0.16,0.24,0.18,0.39s-0.01,0.31-0.09,0.47
		c-0.08,0.16-0.22,0.3-0.41,0.42c-0.37,0.24-0.8,0.41-1.29,0.52C279.24,459.76,278.79,459.81,278.38,459.81z"/>
	<path class="st10" d="M238.73,478.98c-0.32,0-0.57-0.09-0.74-0.26c-0.17-0.18-0.26-0.43-0.26-0.76v-6.05
		c0-0.33,0.09-0.58,0.26-0.75c0.17-0.17,0.41-0.26,0.72-0.26s0.55,0.09,0.72,0.26c0.17,0.17,0.26,0.42,0.26,0.75v1.17l-0.18-0.48
		c0.21-0.53,0.54-0.96,0.99-1.26c0.45-0.31,0.98-0.46,1.6-0.46c0.63,0,1.15,0.15,1.55,0.45c0.41,0.3,0.69,0.76,0.85,1.38h-0.22
		c0.21-0.57,0.56-1.01,1.06-1.34c0.49-0.33,1.06-0.49,1.7-0.49c0.6,0,1.09,0.12,1.48,0.35s0.68,0.59,0.87,1.06
		c0.19,0.48,0.29,1.08,0.29,1.8v3.87c0,0.33-0.09,0.58-0.26,0.76c-0.18,0.18-0.42,0.26-0.74,0.26c-0.32,0-0.57-0.09-0.74-0.26
		s-0.26-0.43-0.26-0.76v-3.79c0-0.6-0.1-1.03-0.3-1.31s-0.53-0.42-1-0.42c-0.52,0-0.93,0.18-1.23,0.55s-0.45,0.88-0.45,1.53v3.44
		c0,0.33-0.09,0.58-0.26,0.76c-0.17,0.18-0.42,0.26-0.74,0.26c-0.32,0-0.57-0.09-0.74-0.26s-0.26-0.43-0.26-0.76v-3.79
		c0-0.6-0.1-1.03-0.3-1.31s-0.53-0.42-0.98-0.42c-0.52,0-0.93,0.18-1.23,0.55s-0.45,0.88-0.45,1.53v3.44
		C239.74,478.64,239.4,478.98,238.73,478.98z"/>
	<path class="st10" d="M254.57,479.01c-0.65,0-1.19-0.12-1.62-0.36s-0.74-0.6-0.95-1.08c-0.21-0.48-0.31-1.08-0.31-1.79v-3.87
		c0-0.34,0.08-0.59,0.26-0.76c0.17-0.17,0.42-0.25,0.74-0.25s0.57,0.08,0.74,0.25c0.18,0.17,0.26,0.42,0.26,0.76v3.9
		c0,0.55,0.11,0.97,0.34,1.23s0.58,0.4,1.07,0.4c0.53,0,0.97-0.18,1.31-0.55c0.34-0.37,0.51-0.86,0.51-1.46v-3.52
		c0-0.34,0.08-0.59,0.26-0.76c0.17-0.17,0.42-0.25,0.74-0.25c0.32,0,0.57,0.08,0.74,0.25c0.18,0.17,0.26,0.42,0.26,0.76v6.05
		c0,0.68-0.33,1.02-0.98,1.02c-0.31,0-0.55-0.09-0.72-0.26s-0.26-0.43-0.26-0.76v-1.22l0.22,0.48c-0.22,0.58-0.56,1.02-1.02,1.33
		C255.72,478.86,255.19,479.01,254.57,479.01z"/>
	<path class="st10" d="M263.67,479.01c-0.89,0-1.55-0.25-2-0.76S261,477,261,476.02v-7.57c0-0.33,0.08-0.58,0.26-0.75
		c0.17-0.17,0.42-0.26,0.74-0.26c0.32,0,0.57,0.09,0.74,0.26c0.18,0.17,0.26,0.42,0.26,0.75v7.47c0,0.49,0.1,0.85,0.31,1.09
		s0.5,0.35,0.89,0.35c0.08,0,0.17,0,0.24-0.01c0.08,0,0.15-0.01,0.22-0.02c0.15-0.02,0.25,0.02,0.3,0.12
		c0.05,0.1,0.08,0.31,0.08,0.62c0,0.27-0.05,0.47-0.16,0.62s-0.28,0.24-0.53,0.27c-0.11,0.01-0.22,0.02-0.34,0.03
		S263.79,479.01,263.67,479.01z"/>
	<path class="st10" d="M269.48,479.01c-0.69,0-1.27-0.12-1.74-0.35c-0.46-0.23-0.81-0.58-1.03-1.03c-0.22-0.45-0.34-1.02-0.34-1.69
		v-3.41h-0.83c-0.26,0-0.45-0.07-0.59-0.2c-0.14-0.13-0.21-0.32-0.21-0.55c0-0.25,0.07-0.43,0.21-0.56
		c0.14-0.13,0.34-0.19,0.59-0.19h0.83v-1.46c0-0.33,0.09-0.58,0.26-0.75c0.18-0.17,0.42-0.26,0.74-0.26s0.57,0.09,0.74,0.26
		c0.17,0.17,0.26,0.42,0.26,0.75v1.46h1.7c0.26,0,0.45,0.06,0.59,0.19c0.14,0.13,0.21,0.31,0.21,0.56c0,0.24-0.07,0.42-0.21,0.55
		c-0.14,0.13-0.34,0.2-0.59,0.2h-1.7v3.3c0,0.51,0.11,0.9,0.34,1.15c0.22,0.26,0.59,0.38,1.09,0.38c0.18,0,0.34-0.02,0.48-0.05
		s0.26-0.05,0.37-0.06c0.13-0.01,0.23,0.03,0.32,0.12c0.08,0.09,0.13,0.28,0.13,0.55c0,0.21-0.04,0.4-0.1,0.57
		c-0.07,0.17-0.2,0.28-0.38,0.34c-0.14,0.04-0.32,0.08-0.54,0.12C269.85,478.99,269.65,479.01,269.48,479.01z"/>
	<path class="st10" d="M273.24,469.43c-0.37,0-0.66-0.09-0.87-0.28s-0.31-0.45-0.31-0.78c0-0.34,0.1-0.6,0.31-0.78
		s0.5-0.27,0.87-0.27c0.38,0,0.68,0.09,0.88,0.27s0.3,0.44,0.3,0.78c0,0.33-0.1,0.59-0.3,0.78S273.63,469.43,273.24,469.43z
		 M273.24,478.97c-0.32,0-0.57-0.1-0.74-0.29c-0.17-0.19-0.26-0.46-0.26-0.8v-5.87c0-0.35,0.09-0.62,0.26-0.81
		c0.17-0.19,0.42-0.28,0.74-0.28s0.57,0.09,0.74,0.28s0.26,0.46,0.26,0.81v5.87c0,0.34-0.08,0.61-0.26,0.8
		C273.82,478.87,273.57,478.97,273.24,478.97z"/>
	<path class="st10" d="M277.32,481.86c-0.32,0-0.57-0.08-0.74-0.26c-0.17-0.17-0.26-0.42-0.26-0.75v-8.94
		c0-0.33,0.09-0.58,0.26-0.75c0.17-0.17,0.41-0.26,0.72-0.26c0.32,0,0.56,0.09,0.74,0.26c0.17,0.17,0.26,0.42,0.26,0.75v1.25
		l-0.18-0.48c0.16-0.54,0.49-0.98,0.98-1.31c0.5-0.33,1.07-0.5,1.74-0.5c0.68,0,1.28,0.17,1.8,0.5c0.52,0.33,0.92,0.8,1.21,1.4
		s0.43,1.33,0.43,2.17c0,0.83-0.14,1.55-0.43,2.17s-0.69,1.09-1.2,1.42c-0.51,0.33-1.12,0.5-1.81,0.5c-0.65,0-1.22-0.16-1.71-0.49
		c-0.49-0.33-0.82-0.75-0.99-1.27h0.19v3.6c0,0.33-0.09,0.58-0.26,0.75S277.64,481.86,277.32,481.86z M280.28,477.49
		c0.39,0,0.74-0.1,1.04-0.29c0.3-0.19,0.53-0.48,0.7-0.86c0.17-0.38,0.25-0.85,0.25-1.42c0-0.85-0.18-1.49-0.54-1.91
		c-0.36-0.42-0.84-0.63-1.44-0.63c-0.39,0-0.74,0.09-1.04,0.28s-0.53,0.47-0.7,0.85c-0.17,0.38-0.25,0.85-0.25,1.42
		c0,0.84,0.18,1.48,0.54,1.91C279.2,477.28,279.68,477.49,280.28,477.49z"/>
	<path class="st10" d="M288.6,479.01c-0.88,0-1.55-0.25-2-0.76c-0.45-0.51-0.67-1.25-0.67-2.23v-7.57c0-0.33,0.09-0.58,0.26-0.75
		c0.17-0.17,0.42-0.26,0.74-0.26s0.57,0.09,0.74,0.26c0.18,0.17,0.26,0.42,0.26,0.75v7.47c0,0.49,0.1,0.85,0.31,1.09
		s0.5,0.35,0.89,0.35c0.08,0,0.17,0,0.24-0.01c0.07,0,0.15-0.01,0.22-0.02c0.15-0.02,0.25,0.02,0.3,0.12
		c0.05,0.1,0.08,0.31,0.08,0.62c0,0.27-0.05,0.47-0.16,0.62c-0.11,0.15-0.28,0.24-0.53,0.27c-0.11,0.01-0.22,0.02-0.34,0.03
		C288.83,479.01,288.72,479.01,288.6,479.01z"/>
	<path class="st10" d="M294.81,479.01c-0.88,0-1.65-0.17-2.29-0.5c-0.64-0.33-1.13-0.8-1.48-1.41c-0.35-0.61-0.52-1.33-0.52-2.16
		c0-0.81,0.17-1.52,0.5-2.13c0.34-0.61,0.8-1.08,1.39-1.43s1.27-0.52,2.02-0.52c0.55,0,1.05,0.09,1.5,0.27s0.82,0.44,1.14,0.78
		c0.31,0.34,0.55,0.75,0.72,1.24c0.17,0.49,0.25,1.03,0.25,1.64c0,0.19-0.07,0.34-0.2,0.44c-0.13,0.1-0.32,0.15-0.57,0.15h-5.14
		v-1.15h4.5l-0.26,0.24c0-0.49-0.07-0.9-0.22-1.23c-0.14-0.33-0.35-0.58-0.62-0.76c-0.27-0.18-0.61-0.26-1.02-0.26
		c-0.45,0-0.83,0.1-1.14,0.31s-0.55,0.5-0.72,0.88c-0.17,0.38-0.25,0.83-0.25,1.35v0.11c0,0.88,0.21,1.53,0.62,1.96
		c0.41,0.43,1.02,0.65,1.82,0.65c0.28,0,0.59-0.03,0.94-0.1s0.67-0.19,0.98-0.36c0.22-0.13,0.42-0.18,0.59-0.17
		c0.17,0.02,0.31,0.08,0.41,0.18s0.16,0.24,0.18,0.39c0.02,0.15-0.01,0.31-0.09,0.47c-0.08,0.16-0.22,0.3-0.41,0.42
		c-0.37,0.24-0.8,0.41-1.29,0.52C295.68,478.96,295.22,479.01,294.81,479.01z"/>
	<path class="st10" d="M240.28,498.21c-0.57,0-1.07-0.11-1.51-0.33s-0.79-0.51-1.04-0.89c-0.25-0.37-0.38-0.79-0.38-1.26
		c0-0.58,0.15-1.03,0.45-1.37c0.3-0.34,0.78-0.58,1.46-0.73s1.57-0.22,2.7-0.22h0.8v1.15h-0.78c-0.66,0-1.19,0.03-1.58,0.1
		c-0.39,0.06-0.67,0.17-0.84,0.33c-0.17,0.16-0.25,0.37-0.25,0.65c0,0.35,0.12,0.64,0.37,0.86c0.25,0.22,0.59,0.34,1.02,0.34
		c0.35,0,0.66-0.08,0.94-0.25s0.49-0.39,0.65-0.68c0.16-0.29,0.24-0.62,0.24-0.99v-1.84c0-0.53-0.12-0.92-0.35-1.15
		c-0.24-0.23-0.63-0.35-1.18-0.35c-0.31,0-0.64,0.04-1,0.11c-0.36,0.08-0.73,0.2-1.13,0.38c-0.2,0.1-0.38,0.12-0.54,0.08
		c-0.15-0.04-0.27-0.13-0.36-0.26c-0.09-0.13-0.13-0.28-0.13-0.44c0-0.16,0.04-0.32,0.13-0.47c0.08-0.15,0.23-0.27,0.43-0.34
		c0.49-0.2,0.96-0.35,1.42-0.43c0.45-0.08,0.87-0.13,1.24-0.13c0.77,0,1.4,0.12,1.9,0.35c0.5,0.23,0.87,0.59,1.11,1.06
		c0.25,0.48,0.37,1.09,0.37,1.83v3.84c0,0.33-0.08,0.58-0.24,0.76s-0.39,0.26-0.69,0.26c-0.3,0-0.53-0.09-0.7-0.26
		s-0.25-0.43-0.25-0.76v-0.77h0.13c-0.07,0.37-0.22,0.7-0.44,0.97c-0.22,0.27-0.49,0.48-0.82,0.63
		C241.09,498.14,240.71,498.21,240.28,498.21z"/>
	<path class="st10" d="M249.32,498.21c-0.46,0-0.94-0.05-1.46-0.14c-0.51-0.1-0.97-0.26-1.38-0.5c-0.17-0.11-0.29-0.23-0.36-0.38
		c-0.07-0.14-0.1-0.29-0.08-0.43c0.02-0.14,0.07-0.27,0.16-0.38c0.09-0.11,0.21-0.18,0.35-0.21c0.14-0.03,0.3,0,0.47,0.08
		c0.43,0.2,0.83,0.34,1.2,0.42c0.37,0.08,0.74,0.12,1.1,0.12c0.51,0,0.89-0.09,1.14-0.26c0.25-0.18,0.38-0.41,0.38-0.7
		c0-0.25-0.08-0.43-0.25-0.57c-0.17-0.13-0.41-0.23-0.74-0.3l-1.6-0.3c-0.66-0.13-1.17-0.37-1.51-0.73s-0.52-0.82-0.52-1.38
		c0-0.51,0.14-0.95,0.42-1.33c0.28-0.37,0.67-0.66,1.18-0.86c0.5-0.2,1.08-0.3,1.73-0.3c0.47,0,0.91,0.05,1.32,0.15
		c0.41,0.1,0.81,0.26,1.19,0.47c0.16,0.09,0.27,0.2,0.33,0.34c0.06,0.14,0.07,0.28,0.04,0.42c-0.03,0.14-0.1,0.27-0.19,0.38
		c-0.1,0.11-0.22,0.18-0.36,0.21c-0.14,0.03-0.31,0-0.49-0.09c-0.33-0.17-0.65-0.29-0.95-0.37c-0.3-0.07-0.6-0.11-0.87-0.11
		c-0.52,0-0.91,0.09-1.16,0.27c-0.25,0.18-0.38,0.42-0.38,0.72c0,0.22,0.07,0.41,0.22,0.56c0.15,0.15,0.38,0.25,0.69,0.3l1.6,0.3
		c0.69,0.13,1.22,0.36,1.58,0.7s0.54,0.8,0.54,1.38c0,0.78-0.3,1.39-0.91,1.83C251.15,497.99,250.34,498.21,249.32,498.21z"/>
	<path class="st10" d="M255.26,488.63c-0.37,0-0.66-0.09-0.87-0.28s-0.31-0.45-0.31-0.78c0-0.34,0.1-0.6,0.31-0.78
		s0.5-0.27,0.87-0.27c0.38,0,0.68,0.09,0.88,0.27c0.2,0.18,0.3,0.44,0.3,0.78c0,0.33-0.1,0.59-0.3,0.78
		C255.94,488.54,255.64,488.63,255.26,488.63z M255.26,498.17c-0.32,0-0.57-0.1-0.74-0.29c-0.17-0.19-0.26-0.46-0.26-0.8v-5.87
		c0-0.35,0.09-0.62,0.26-0.81c0.17-0.19,0.42-0.28,0.74-0.28s0.57,0.09,0.74,0.28c0.18,0.19,0.26,0.46,0.26,0.81v5.87
		c0,0.34-0.08,0.61-0.26,0.8C255.84,498.07,255.59,498.17,255.26,498.17z"/>
	<path class="st10" d="M260.92,498.21c-0.57,0-1.07-0.11-1.51-0.33s-0.79-0.51-1.04-0.89c-0.25-0.37-0.38-0.79-0.38-1.26
		c0-0.58,0.15-1.03,0.45-1.37c0.3-0.34,0.78-0.58,1.46-0.73s1.57-0.22,2.7-0.22h0.8v1.15h-0.78c-0.66,0-1.19,0.03-1.58,0.1
		c-0.39,0.06-0.67,0.17-0.84,0.33c-0.17,0.16-0.25,0.37-0.25,0.65c0,0.35,0.12,0.64,0.37,0.86c0.25,0.22,0.59,0.34,1.02,0.34
		c0.35,0,0.66-0.08,0.94-0.25s0.49-0.39,0.65-0.68c0.16-0.29,0.24-0.62,0.24-0.99v-1.84c0-0.53-0.12-0.92-0.35-1.15
		c-0.24-0.23-0.63-0.35-1.18-0.35c-0.31,0-0.64,0.04-1,0.11c-0.36,0.08-0.73,0.2-1.13,0.38c-0.2,0.1-0.38,0.12-0.54,0.08
		c-0.15-0.04-0.27-0.13-0.36-0.26c-0.09-0.13-0.13-0.28-0.13-0.44c0-0.16,0.04-0.32,0.13-0.47c0.08-0.15,0.23-0.27,0.43-0.34
		c0.49-0.2,0.96-0.35,1.42-0.43c0.45-0.08,0.87-0.13,1.24-0.13c0.77,0,1.4,0.12,1.9,0.35c0.5,0.23,0.87,0.59,1.11,1.06
		c0.25,0.48,0.37,1.09,0.37,1.83v3.84c0,0.33-0.08,0.58-0.24,0.76s-0.39,0.26-0.69,0.26c-0.3,0-0.53-0.09-0.7-0.26
		s-0.25-0.43-0.25-0.76v-0.77h0.13c-0.07,0.37-0.22,0.7-0.44,0.97c-0.22,0.27-0.49,0.48-0.82,0.63
		C261.73,498.14,261.35,498.21,260.92,498.21z"/>
	<path class="st10" d="M268.09,498.18c-0.32,0-0.57-0.09-0.74-0.26c-0.17-0.18-0.26-0.43-0.26-0.76v-6.05
		c0-0.33,0.08-0.58,0.26-0.75c0.17-0.17,0.41-0.26,0.72-0.26s0.55,0.09,0.72,0.26c0.17,0.17,0.26,0.42,0.26,0.75v1.09l-0.18-0.4
		c0.23-0.57,0.6-1,1.1-1.29s1.06-0.44,1.69-0.44c0.63,0,1.15,0.12,1.55,0.35s0.71,0.59,0.91,1.06c0.2,0.48,0.3,1.08,0.3,1.8v3.87
		c0,0.33-0.09,0.58-0.26,0.76c-0.17,0.18-0.42,0.26-0.74,0.26c-0.32,0-0.57-0.09-0.74-0.26s-0.26-0.43-0.26-0.76v-3.78
		c0-0.61-0.12-1.05-0.34-1.33s-0.58-0.42-1.06-0.42c-0.59,0-1.05,0.18-1.4,0.55s-0.52,0.86-0.52,1.46v3.5
		C269.1,497.84,268.76,498.18,268.09,498.18z"/>
	<path class="st10" d="M242.22,517.41c-0.66,0-1.24-0.17-1.74-0.5c-0.5-0.33-0.82-0.77-0.98-1.33l0.18-0.4v1.17
		c0,0.33-0.09,0.58-0.26,0.76c-0.17,0.18-0.41,0.26-0.72,0.26c-0.32,0-0.57-0.09-0.74-0.26c-0.17-0.18-0.26-0.43-0.26-0.76v-9.5
		c0-0.33,0.08-0.58,0.26-0.75c0.17-0.17,0.42-0.26,0.74-0.26c0.32,0,0.57,0.09,0.74,0.26c0.18,0.17,0.26,0.42,0.26,0.75v4.16h-0.19
		c0.17-0.52,0.5-0.94,0.99-1.26c0.49-0.32,1.06-0.48,1.71-0.48c0.69,0,1.3,0.17,1.81,0.5c0.51,0.33,0.91,0.8,1.2,1.4
		s0.43,1.33,0.43,2.17c0,0.83-0.14,1.55-0.43,2.17s-0.69,1.09-1.21,1.42C243.5,517.25,242.9,517.41,242.22,517.41z M241.66,515.89
		c0.39,0,0.74-0.1,1.04-0.29c0.3-0.19,0.53-0.48,0.7-0.86s0.25-0.85,0.25-1.42c0-0.85-0.18-1.49-0.54-1.91
		c-0.36-0.42-0.84-0.63-1.44-0.63c-0.4,0-0.74,0.09-1.04,0.28c-0.3,0.19-0.53,0.47-0.7,0.85c-0.17,0.38-0.25,0.85-0.25,1.42
		c0,0.84,0.18,1.48,0.54,1.91C240.58,515.68,241.06,515.89,241.66,515.89z"/>
	<path class="st10" d="M249.98,517.41c-0.88,0-1.55-0.25-2-0.76c-0.45-0.51-0.67-1.25-0.67-2.23v-7.57c0-0.33,0.09-0.58,0.26-0.75
		c0.17-0.17,0.42-0.26,0.74-0.26s0.57,0.09,0.74,0.26c0.18,0.17,0.26,0.42,0.26,0.75v7.47c0,0.49,0.1,0.85,0.31,1.09
		s0.5,0.35,0.89,0.35c0.08,0,0.17,0,0.24-0.01c0.07,0,0.15-0.01,0.22-0.02c0.15-0.02,0.25,0.02,0.3,0.12
		c0.05,0.1,0.08,0.31,0.08,0.62c0,0.27-0.05,0.47-0.16,0.62c-0.11,0.15-0.28,0.24-0.53,0.27c-0.11,0.01-0.22,0.02-0.34,0.03
		C250.21,517.41,250.09,517.41,249.98,517.41z"/>
	<path class="st10" d="M254.99,517.41c-0.57,0-1.07-0.11-1.51-0.33c-0.44-0.22-0.79-0.51-1.04-0.89c-0.25-0.37-0.38-0.79-0.38-1.26
		c0-0.58,0.15-1.03,0.45-1.37c0.3-0.34,0.78-0.58,1.46-0.73c0.67-0.15,1.57-0.22,2.7-0.22h0.8v1.15h-0.78
		c-0.66,0-1.19,0.03-1.58,0.1c-0.4,0.06-0.67,0.17-0.84,0.33c-0.17,0.16-0.25,0.37-0.25,0.65c0,0.35,0.12,0.64,0.37,0.86
		c0.25,0.22,0.59,0.34,1.02,0.34c0.35,0,0.66-0.08,0.94-0.25c0.27-0.17,0.49-0.39,0.65-0.68c0.16-0.29,0.24-0.62,0.24-0.99v-1.84
		c0-0.53-0.12-0.92-0.35-1.15s-0.63-0.35-1.18-0.35c-0.31,0-0.64,0.04-1,0.11c-0.36,0.08-0.73,0.2-1.13,0.38
		c-0.2,0.1-0.38,0.12-0.54,0.08c-0.15-0.04-0.27-0.13-0.36-0.26c-0.08-0.13-0.13-0.28-0.13-0.44c0-0.16,0.04-0.32,0.13-0.47
		c0.09-0.15,0.23-0.27,0.43-0.34c0.49-0.2,0.96-0.35,1.42-0.43c0.45-0.08,0.87-0.13,1.24-0.13c0.77,0,1.4,0.12,1.9,0.35
		s0.87,0.59,1.11,1.06c0.25,0.48,0.37,1.09,0.37,1.83v3.84c0,0.33-0.08,0.58-0.24,0.76s-0.39,0.26-0.69,0.26s-0.53-0.09-0.7-0.26
		c-0.17-0.18-0.25-0.43-0.25-0.76v-0.77h0.13c-0.08,0.37-0.22,0.7-0.44,0.97c-0.22,0.27-0.49,0.48-0.82,0.63
		C255.79,517.34,255.41,517.41,254.99,517.41z"/>
	<path class="st10" d="M264.78,517.41c-0.82,0-1.54-0.17-2.14-0.5c-0.61-0.34-1.08-0.81-1.41-1.43c-0.33-0.62-0.5-1.34-0.5-2.18
		c0-0.63,0.09-1.19,0.28-1.69c0.19-0.5,0.46-0.92,0.81-1.26s0.78-0.61,1.28-0.8c0.5-0.19,1.06-0.28,1.68-0.28
		c0.35,0,0.73,0.05,1.14,0.14c0.41,0.1,0.8,0.26,1.16,0.48c0.17,0.11,0.28,0.24,0.34,0.38c0.05,0.15,0.06,0.3,0.03,0.46
		c-0.03,0.15-0.1,0.29-0.2,0.4s-0.23,0.18-0.38,0.21c-0.15,0.03-0.31-0.01-0.5-0.1c-0.23-0.14-0.47-0.24-0.72-0.31
		s-0.48-0.1-0.7-0.1c-0.35,0-0.66,0.06-0.93,0.17c-0.27,0.11-0.49,0.27-0.68,0.48c-0.19,0.21-0.33,0.47-0.42,0.78
		c-0.1,0.31-0.14,0.67-0.14,1.07c0,0.79,0.19,1.41,0.57,1.86c0.38,0.45,0.91,0.68,1.61,0.68c0.22,0,0.46-0.03,0.7-0.1
		c0.24-0.06,0.48-0.17,0.73-0.3c0.18-0.1,0.34-0.13,0.49-0.1c0.14,0.03,0.26,0.1,0.36,0.22c0.1,0.11,0.15,0.25,0.18,0.4
		c0.02,0.16,0,0.31-0.06,0.46c-0.06,0.15-0.17,0.27-0.33,0.37c-0.35,0.21-0.73,0.37-1.12,0.46
		C265.5,517.36,265.13,517.41,264.78,517.41z"/>
	<path class="st10" d="M269.71,517.38c-0.32,0-0.57-0.09-0.74-0.26c-0.17-0.18-0.26-0.43-0.26-0.76v-9.5c0-0.33,0.09-0.58,0.26-0.75
		c0.17-0.17,0.42-0.26,0.74-0.26s0.57,0.09,0.74,0.26c0.18,0.17,0.26,0.42,0.26,0.75v5.9h0.03l2.64-2.78
		c0.21-0.21,0.4-0.38,0.56-0.5c0.16-0.12,0.38-0.18,0.66-0.18c0.28,0,0.49,0.07,0.63,0.22c0.14,0.14,0.22,0.32,0.22,0.52
		c0,0.2-0.1,0.41-0.29,0.61l-2.78,2.94v-0.83l3.06,3.3c0.19,0.2,0.28,0.41,0.26,0.62c-0.02,0.21-0.1,0.38-0.26,0.51
		c-0.16,0.13-0.36,0.2-0.61,0.2c-0.3,0-0.54-0.06-0.71-0.18s-0.37-0.29-0.58-0.53l-2.78-2.91h-0.03v2.59
		C270.71,517.04,270.38,517.38,269.71,517.38z"/>
	<path class="st10" d="M240.73,536.58c-0.27,0-0.5-0.07-0.69-0.2c-0.19-0.13-0.35-0.34-0.46-0.63l-2.32-5.92
		c-0.1-0.26-0.13-0.48-0.09-0.68c0.04-0.2,0.14-0.35,0.3-0.47c0.16-0.12,0.37-0.18,0.64-0.18c0.23,0,0.43,0.06,0.58,0.17
		s0.28,0.32,0.38,0.63l1.94,5.33h-0.37l2-5.46c0.08-0.23,0.2-0.41,0.34-0.51c0.14-0.11,0.33-0.16,0.57-0.16
		c0.23,0,0.43,0.06,0.58,0.17s0.26,0.28,0.34,0.5l1.97,5.46h-0.34l1.95-5.38c0.11-0.29,0.24-0.49,0.41-0.59
		c0.17-0.11,0.35-0.16,0.55-0.16c0.26,0,0.45,0.06,0.59,0.19s0.22,0.29,0.24,0.49c0.02,0.2-0.02,0.41-0.11,0.65l-2.3,5.92
		c-0.11,0.28-0.26,0.49-0.46,0.62s-0.43,0.21-0.7,0.21s-0.5-0.07-0.7-0.21s-0.35-0.35-0.46-0.62l-2.1-5.55h0.91l-2.05,5.54
		c-0.11,0.29-0.26,0.5-0.45,0.64C241.24,536.51,241.01,536.58,240.73,536.58z"/>
	<path class="st10" d="M252.35,536.58c-0.32,0-0.57-0.09-0.74-0.26c-0.17-0.18-0.26-0.43-0.26-0.76v-9.5c0-0.33,0.09-0.58,0.26-0.75
		c0.17-0.17,0.42-0.26,0.74-0.26s0.57,0.09,0.74,0.26c0.18,0.17,0.26,0.42,0.26,0.75v4.14h-0.22c0.23-0.57,0.6-1,1.1-1.29
		s1.06-0.44,1.69-0.44c0.63,0,1.15,0.12,1.55,0.35s0.71,0.59,0.91,1.06c0.2,0.48,0.3,1.08,0.3,1.8v3.87c0,0.33-0.08,0.58-0.26,0.76
		s-0.42,0.26-0.74,0.26c-0.32,0-0.57-0.09-0.74-0.26c-0.18-0.18-0.26-0.43-0.26-0.76v-3.78c0-0.61-0.11-1.05-0.34-1.33
		s-0.58-0.42-1.06-0.42c-0.59,0-1.05,0.18-1.4,0.55s-0.52,0.86-0.52,1.46v3.5C253.35,536.24,253.02,536.58,252.35,536.58z"/>
	<path class="st10" d="M261.71,527.03c-0.37,0-0.66-0.09-0.87-0.28s-0.31-0.45-0.31-0.78c0-0.34,0.1-0.6,0.31-0.78
		s0.5-0.27,0.87-0.27c0.38,0,0.68,0.09,0.88,0.27c0.2,0.18,0.3,0.44,0.3,0.78c0,0.33-0.1,0.59-0.3,0.78
		C262.38,526.94,262.09,527.03,261.71,527.03z M261.71,536.57c-0.32,0-0.57-0.1-0.74-0.29c-0.17-0.19-0.26-0.46-0.26-0.8v-5.87
		c0-0.35,0.08-0.62,0.26-0.81c0.17-0.19,0.42-0.28,0.74-0.28c0.32,0,0.57,0.09,0.74,0.28c0.18,0.19,0.26,0.46,0.26,0.81v5.87
		c0,0.34-0.09,0.61-0.26,0.8C262.29,536.47,262.04,536.57,261.71,536.57z"/>
	<path class="st10" d="M268.38,536.61c-0.69,0-1.27-0.12-1.74-0.35c-0.46-0.23-0.81-0.58-1.03-1.03c-0.22-0.45-0.34-1.02-0.34-1.69
		v-3.41h-0.83c-0.26,0-0.45-0.07-0.59-0.2c-0.14-0.13-0.21-0.32-0.21-0.55c0-0.25,0.07-0.43,0.21-0.56
		c0.14-0.13,0.34-0.19,0.59-0.19h0.83v-1.46c0-0.33,0.09-0.58,0.26-0.75c0.18-0.17,0.42-0.26,0.74-0.26s0.57,0.09,0.74,0.26
		c0.17,0.17,0.26,0.42,0.26,0.75v1.46h1.7c0.26,0,0.45,0.06,0.59,0.19c0.14,0.13,0.21,0.31,0.21,0.56c0,0.24-0.07,0.42-0.21,0.55
		c-0.14,0.13-0.34,0.2-0.59,0.2h-1.7v3.3c0,0.51,0.11,0.9,0.34,1.15c0.22,0.26,0.59,0.38,1.09,0.38c0.18,0,0.34-0.02,0.48-0.05
		s0.26-0.05,0.37-0.06c0.13-0.01,0.23,0.03,0.32,0.12c0.08,0.09,0.13,0.28,0.13,0.55c0,0.21-0.04,0.4-0.1,0.57
		c-0.07,0.17-0.2,0.28-0.38,0.34c-0.14,0.04-0.32,0.08-0.54,0.12C268.75,536.59,268.55,536.61,268.38,536.61z"/>
	<path class="st10" d="M274.71,536.61c-0.89,0-1.65-0.17-2.29-0.5c-0.64-0.33-1.13-0.8-1.48-1.41c-0.35-0.61-0.52-1.33-0.52-2.16
		c0-0.81,0.17-1.52,0.5-2.13c0.34-0.61,0.8-1.08,1.39-1.43c0.59-0.35,1.27-0.52,2.02-0.52c0.55,0,1.05,0.09,1.5,0.27
		c0.44,0.18,0.82,0.44,1.14,0.78c0.31,0.34,0.55,0.75,0.72,1.24c0.17,0.49,0.25,1.03,0.25,1.64c0,0.19-0.07,0.34-0.2,0.44
		c-0.13,0.1-0.32,0.15-0.57,0.15h-5.14v-1.15h4.5l-0.26,0.24c0-0.49-0.07-0.9-0.22-1.23c-0.14-0.33-0.35-0.58-0.62-0.76
		c-0.27-0.18-0.61-0.26-1.02-0.26c-0.45,0-0.83,0.1-1.14,0.31s-0.55,0.5-0.72,0.88c-0.17,0.38-0.25,0.83-0.25,1.35v0.11
		c0,0.88,0.21,1.53,0.62,1.96c0.41,0.43,1.02,0.65,1.82,0.65c0.28,0,0.59-0.03,0.94-0.1s0.67-0.19,0.98-0.36
		c0.22-0.13,0.42-0.18,0.59-0.17c0.17,0.02,0.31,0.08,0.41,0.18c0.1,0.11,0.16,0.24,0.18,0.39s-0.01,0.31-0.09,0.47
		c-0.08,0.16-0.22,0.3-0.41,0.42c-0.37,0.24-0.8,0.41-1.29,0.52C275.58,536.56,275.13,536.61,274.71,536.61z"/>
</g>
<g>
	<g>
		<path class="st10" d="M65.63,489.82c-0.82,0-1.54-0.17-2.14-0.5c-0.61-0.34-1.08-0.81-1.41-1.43c-0.33-0.62-0.5-1.34-0.5-2.18
			c0-0.63,0.09-1.19,0.28-1.69s0.46-0.92,0.81-1.26c0.35-0.35,0.78-0.61,1.28-0.8c0.5-0.19,1.06-0.28,1.68-0.28
			c0.35,0,0.73,0.05,1.14,0.14c0.41,0.1,0.8,0.26,1.16,0.48c0.17,0.11,0.28,0.23,0.34,0.38s0.06,0.3,0.03,0.46
			c-0.03,0.15-0.1,0.29-0.2,0.4c-0.1,0.11-0.23,0.18-0.38,0.21c-0.15,0.03-0.31-0.01-0.5-0.1c-0.23-0.14-0.47-0.24-0.72-0.31
			c-0.25-0.07-0.48-0.1-0.7-0.1c-0.35,0-0.66,0.06-0.93,0.17c-0.27,0.11-0.49,0.27-0.68,0.48s-0.33,0.47-0.42,0.78
			c-0.1,0.31-0.14,0.67-0.14,1.07c0,0.79,0.19,1.41,0.57,1.86c0.38,0.45,0.92,0.68,1.61,0.68c0.22,0,0.46-0.03,0.7-0.1
			c0.24-0.06,0.48-0.17,0.73-0.3c0.18-0.1,0.34-0.13,0.49-0.1c0.14,0.03,0.26,0.1,0.36,0.22c0.1,0.11,0.16,0.25,0.18,0.4
			c0.02,0.15,0,0.31-0.06,0.46s-0.17,0.27-0.33,0.37c-0.35,0.21-0.73,0.37-1.12,0.46C66.35,489.77,65.98,489.82,65.63,489.82z"/>
		<path class="st10" d="M70.55,489.79c-0.32,0-0.57-0.09-0.74-0.26c-0.17-0.18-0.26-0.43-0.26-0.76v-9.5c0-0.33,0.08-0.58,0.26-0.75
			s0.42-0.26,0.74-0.26c0.32,0,0.57,0.09,0.74,0.26c0.18,0.17,0.26,0.42,0.26,0.75v4.14h-0.22c0.23-0.57,0.6-0.99,1.1-1.29
			s1.06-0.44,1.69-0.44c0.63,0,1.15,0.12,1.55,0.35c0.41,0.23,0.71,0.59,0.91,1.06c0.2,0.47,0.3,1.07,0.3,1.8v3.87
			c0,0.33-0.09,0.58-0.26,0.76c-0.17,0.18-0.42,0.26-0.74,0.26s-0.57-0.09-0.74-0.26c-0.18-0.18-0.26-0.43-0.26-0.76v-3.78
			c0-0.61-0.12-1.05-0.34-1.33c-0.23-0.28-0.58-0.42-1.06-0.42c-0.59,0-1.05,0.18-1.4,0.55c-0.35,0.37-0.52,0.86-0.52,1.46v3.5
			C71.56,489.44,71.22,489.79,70.55,489.79z"/>
		<path class="st10" d="M79.91,480.23c-0.37,0-0.66-0.09-0.87-0.28c-0.21-0.19-0.31-0.45-0.31-0.78c0-0.34,0.1-0.6,0.31-0.78
			c0.21-0.18,0.5-0.27,0.87-0.27c0.38,0,0.68,0.09,0.88,0.27c0.2,0.18,0.3,0.44,0.3,0.78c0,0.33-0.1,0.59-0.3,0.78
			C80.59,480.14,80.3,480.23,79.91,480.23z M79.91,489.77c-0.32,0-0.57-0.1-0.74-0.29c-0.17-0.19-0.26-0.46-0.26-0.8v-5.87
			c0-0.35,0.08-0.62,0.26-0.81s0.42-0.28,0.74-0.28c0.32,0,0.57,0.09,0.74,0.28c0.18,0.19,0.26,0.46,0.26,0.81v5.87
			c0,0.34-0.09,0.61-0.26,0.8C80.49,489.67,80.24,489.77,79.91,489.77z"/>
		<path class="st10" d="M85.67,489.82c-0.89,0-1.55-0.25-2-0.76c-0.45-0.51-0.67-1.25-0.67-2.23v-7.57c0-0.33,0.08-0.58,0.26-0.75
			s0.42-0.26,0.74-0.26c0.32,0,0.57,0.09,0.74,0.26c0.18,0.17,0.26,0.42,0.26,0.75v7.47c0,0.49,0.1,0.85,0.31,1.09
			c0.21,0.23,0.5,0.35,0.89,0.35c0.08,0,0.17,0,0.24-0.01c0.07-0.01,0.15-0.01,0.22-0.02c0.15-0.02,0.25,0.02,0.3,0.12
			s0.08,0.31,0.08,0.62c0,0.27-0.05,0.48-0.16,0.62c-0.11,0.15-0.28,0.24-0.53,0.27c-0.11,0.01-0.22,0.02-0.34,0.03
			C85.91,489.81,85.79,489.82,85.67,489.82z"/>
		<path class="st10" d="M91.03,489.82c-0.68,0-1.28-0.17-1.8-0.5s-0.92-0.8-1.21-1.42s-0.43-1.34-0.43-2.17
			c0-0.84,0.14-1.57,0.43-2.17s0.69-1.07,1.21-1.4s1.12-0.5,1.8-0.5c0.65,0,1.22,0.16,1.7,0.48c0.49,0.32,0.81,0.74,0.98,1.26h-0.18
			v-4.16c0-0.33,0.09-0.58,0.26-0.75c0.17-0.17,0.42-0.26,0.74-0.26c0.32,0,0.57,0.09,0.74,0.26s0.26,0.42,0.26,0.75v9.5
			c0,0.33-0.08,0.58-0.26,0.76c-0.17,0.18-0.42,0.26-0.74,0.26c-0.32,0-0.57-0.09-0.74-0.26c-0.17-0.18-0.26-0.43-0.26-0.76v-1.25
			l0.18,0.48c-0.16,0.55-0.49,1-0.98,1.33C92.27,489.65,91.69,489.82,91.03,489.82z M91.59,488.3c0.39,0,0.74-0.1,1.04-0.29
			c0.3-0.19,0.53-0.48,0.7-0.86s0.25-0.85,0.25-1.42c0-0.85-0.18-1.49-0.54-1.91s-0.84-0.63-1.44-0.63c-0.4,0-0.74,0.09-1.04,0.28
			c-0.3,0.19-0.53,0.47-0.7,0.85c-0.17,0.38-0.25,0.85-0.25,1.42c0,0.84,0.18,1.48,0.54,1.91C90.51,488.08,91,488.3,91.59,488.3z"/>
		<path class="st10" d="M98.65,489.79c-0.33,0-0.58-0.09-0.76-0.26c-0.18-0.18-0.26-0.43-0.26-0.76v-6.05
			c0-0.33,0.08-0.58,0.26-0.75c0.17-0.17,0.41-0.26,0.72-0.26s0.55,0.09,0.72,0.26c0.17,0.17,0.26,0.42,0.26,0.75v1.01h-0.16
			c0.15-0.64,0.44-1.12,0.88-1.46c0.44-0.33,1.02-0.53,1.74-0.59c0.22-0.02,0.4,0.03,0.54,0.17c0.13,0.13,0.21,0.34,0.23,0.62
			c0.02,0.27-0.04,0.48-0.18,0.65c-0.14,0.17-0.36,0.26-0.65,0.3l-0.35,0.03c-0.65,0.06-1.14,0.26-1.47,0.6
			c-0.33,0.34-0.5,0.81-0.5,1.42v3.31c0,0.33-0.09,0.58-0.26,0.76C99.23,489.7,98.98,489.79,98.65,489.79z"/>
		<path class="st10" d="M107.63,489.82c-0.89,0-1.65-0.17-2.29-0.5c-0.64-0.33-1.13-0.8-1.48-1.41s-0.52-1.33-0.52-2.16
			c0-0.81,0.17-1.52,0.5-2.13c0.34-0.61,0.8-1.08,1.39-1.43s1.27-0.52,2.02-0.52c0.55,0,1.05,0.09,1.5,0.27
			c0.44,0.18,0.82,0.44,1.14,0.78c0.31,0.34,0.55,0.75,0.72,1.24s0.25,1.03,0.25,1.64c0,0.19-0.07,0.34-0.2,0.44
			c-0.13,0.1-0.32,0.15-0.57,0.15h-5.14v-1.15h4.5l-0.26,0.24c0-0.49-0.07-0.9-0.22-1.23c-0.14-0.33-0.35-0.58-0.62-0.76
			c-0.27-0.18-0.61-0.26-1.02-0.26c-0.45,0-0.83,0.1-1.14,0.31s-0.55,0.5-0.72,0.88c-0.17,0.38-0.25,0.83-0.25,1.35v0.11
			c0,0.87,0.21,1.53,0.62,1.96c0.41,0.43,1.02,0.65,1.82,0.65c0.28,0,0.59-0.03,0.94-0.1s0.67-0.19,0.98-0.36
			c0.22-0.13,0.42-0.18,0.59-0.17c0.17,0.02,0.31,0.08,0.41,0.18c0.1,0.11,0.16,0.24,0.18,0.39c0.02,0.15-0.01,0.31-0.09,0.47
			c-0.08,0.16-0.22,0.3-0.41,0.42c-0.37,0.23-0.8,0.41-1.29,0.52C108.49,489.76,108.04,489.82,107.63,489.82z"/>
		<path class="st10" d="M113.43,489.79c-0.32,0-0.57-0.09-0.74-0.26c-0.17-0.18-0.26-0.43-0.26-0.76v-6.05
			c0-0.33,0.08-0.58,0.26-0.75c0.17-0.17,0.41-0.26,0.72-0.26s0.55,0.09,0.72,0.26c0.17,0.17,0.26,0.42,0.26,0.75v1.09l-0.18-0.4
			c0.23-0.57,0.6-0.99,1.1-1.29s1.06-0.44,1.69-0.44c0.63,0,1.15,0.12,1.55,0.35c0.41,0.23,0.71,0.59,0.91,1.06
			c0.2,0.47,0.3,1.07,0.3,1.8v3.87c0,0.33-0.09,0.58-0.26,0.76c-0.17,0.18-0.42,0.26-0.74,0.26s-0.57-0.09-0.74-0.26
			c-0.18-0.18-0.26-0.43-0.26-0.76v-3.78c0-0.61-0.12-1.05-0.34-1.33c-0.23-0.28-0.58-0.42-1.06-0.42c-0.59,0-1.05,0.18-1.4,0.55
			c-0.35,0.37-0.52,0.86-0.52,1.46v3.5C114.44,489.44,114.1,489.79,113.43,489.79z"/>
	</g>
</g>
<polyline class="st11" points="88.39,305.4 83.44,305.4 64.34,385.75 64.34,476.4 "/>
<polyline class="st11" points="88.39,324.37 83.44,324.37 64.34,385.75 64.34,476.4 "/>
<polyline class="st11" points="88.39,364.82 83.44,364.82 64.34,385.75 64.34,476.4 "/>
<polyline class="st11" points="234.84,455.89 224.22,455.89 211.01,446.07 "/>
<polyline class="st11" points="234.84,474.9 224.22,474.9 201.76,451.35 "/>
<polyline class="st11" points="234.84,493.9 224.22,493.9 194.66,454.33 "/>
<polyline class="st11" points="234.76,512.9 224.14,512.9 187.07,458.62 "/>
<polyline class="st11" points="234.84,532.9 224.22,532.9 178.98,461.92 "/>
<g>
	<g>
		<path class="st9" d="M238.95,434.34c-0.47,0-0.83-0.12-1.08-0.37c-0.25-0.25-0.38-0.6-0.38-1.07v-5.3c0-0.46,0.12-0.81,0.36-1.06
			c0.24-0.25,0.58-0.37,1.03-0.37c0.45,0,0.79,0.12,1.02,0.37c0.23,0.25,0.35,0.6,0.35,1.06v0.66h-0.16
			c0.11-0.64,0.38-1.15,0.82-1.52c0.44-0.37,0.99-0.57,1.66-0.59c0.31-0.01,0.54,0.07,0.7,0.23c0.15,0.17,0.24,0.47,0.25,0.92
			c0,0.38-0.08,0.69-0.24,0.91c-0.16,0.22-0.46,0.36-0.91,0.4l-0.37,0.03c-0.57,0.05-0.98,0.21-1.23,0.47
			c-0.26,0.26-0.38,0.65-0.38,1.16v2.62c0,0.47-0.12,0.83-0.37,1.07C239.78,434.22,239.42,434.34,238.95,434.34z"/>
		<path class="st9" d="M247.1,434.37c-0.61,0-1.14-0.11-1.61-0.34c-0.46-0.22-0.83-0.53-1.09-0.92c-0.26-0.39-0.39-0.83-0.39-1.34
			c0-0.58,0.15-1.03,0.45-1.36c0.3-0.33,0.78-0.57,1.44-0.71c0.66-0.14,1.54-0.22,2.64-0.22h0.88v1.34h-0.88
			c-0.42,0-0.76,0.03-1.03,0.09c-0.27,0.06-0.47,0.15-0.6,0.27c-0.13,0.12-0.19,0.28-0.19,0.47c0,0.25,0.09,0.45,0.26,0.61
			c0.18,0.16,0.43,0.24,0.76,0.24c0.27,0,0.5-0.06,0.71-0.18c0.21-0.12,0.38-0.28,0.5-0.49s0.19-0.45,0.19-0.73v-1.86
			c0-0.38-0.1-0.66-0.3-0.82s-0.54-0.24-1.02-0.24c-0.26,0-0.54,0.03-0.86,0.09c-0.32,0.06-0.68,0.16-1.07,0.31
			c-0.29,0.11-0.53,0.12-0.74,0.05c-0.2-0.07-0.36-0.2-0.47-0.38c-0.11-0.18-0.17-0.38-0.16-0.59c0.01-0.21,0.07-0.42,0.21-0.61
			c0.13-0.19,0.34-0.34,0.62-0.45c0.51-0.19,0.98-0.32,1.42-0.38c0.43-0.06,0.83-0.1,1.19-0.1c0.87,0,1.6,0.12,2.17,0.38
			c0.57,0.25,1,0.63,1.28,1.15c0.28,0.52,0.42,1.18,0.42,1.99v3.23c0,0.47-0.11,0.83-0.34,1.07c-0.22,0.25-0.55,0.37-0.98,0.37
			c-0.44,0-0.77-0.12-1-0.37c-0.23-0.25-0.34-0.6-0.34-1.07v-0.42l0.1,0.22c-0.05,0.34-0.18,0.63-0.37,0.88
			c-0.19,0.25-0.44,0.44-0.75,0.58C247.84,434.3,247.49,434.37,247.1,434.37z"/>
		<path class="st9" d="M257.47,434.37c-0.89,0-1.66-0.17-2.31-0.5c-0.66-0.33-1.17-0.81-1.53-1.43s-0.54-1.36-0.54-2.2
			c0-0.64,0.1-1.21,0.3-1.72s0.5-0.94,0.89-1.29c0.39-0.35,0.85-0.62,1.39-0.81c0.54-0.19,1.14-0.28,1.8-0.28
			c0.31,0,0.63,0.03,0.98,0.09c0.34,0.06,0.69,0.17,1.06,0.33c0.26,0.1,0.43,0.24,0.54,0.44c0.1,0.2,0.14,0.41,0.13,0.63
			c-0.02,0.22-0.08,0.43-0.19,0.61c-0.11,0.18-0.27,0.3-0.46,0.37c-0.2,0.06-0.42,0.04-0.66-0.08c-0.17-0.08-0.35-0.15-0.54-0.18
			s-0.37-0.06-0.54-0.06c-0.29,0-0.54,0.04-0.76,0.13c-0.22,0.09-0.4,0.21-0.55,0.38c-0.15,0.17-0.26,0.37-0.34,0.62
			c-0.08,0.25-0.12,0.52-0.12,0.83c0,0.62,0.15,1.1,0.46,1.46c0.31,0.35,0.75,0.53,1.31,0.53c0.17,0,0.35-0.02,0.53-0.06
			c0.18-0.04,0.36-0.1,0.54-0.18c0.25-0.12,0.46-0.14,0.66-0.07s0.35,0.2,0.46,0.38c0.12,0.18,0.18,0.38,0.19,0.6
			c0.01,0.22-0.04,0.43-0.14,0.62c-0.11,0.2-0.29,0.34-0.54,0.44c-0.35,0.16-0.7,0.27-1.03,0.33S257.78,434.37,257.47,434.37z"/>
		<path class="st9" d="M265.32,434.37c-0.96,0-1.79-0.17-2.49-0.5s-1.23-0.81-1.61-1.43c-0.37-0.62-0.56-1.35-0.56-2.19
			c0-0.81,0.18-1.52,0.54-2.14s0.85-1.09,1.47-1.44c0.62-0.35,1.34-0.52,2.14-0.52c0.59,0,1.12,0.09,1.6,0.28s0.89,0.46,1.23,0.82
			s0.6,0.79,0.78,1.29c0.18,0.5,0.26,1.06,0.26,1.68c0,0.21-0.06,0.37-0.18,0.47c-0.12,0.1-0.3,0.15-0.56,0.15h-4.9v-1.34h3.55
			l-0.26,0.21c0-0.39-0.05-0.71-0.16-0.96s-0.26-0.43-0.47-0.56s-0.47-0.19-0.78-0.19c-0.33,0-0.62,0.08-0.86,0.23
			c-0.24,0.15-0.42,0.38-0.55,0.68s-0.19,0.67-0.19,1.12v0.14c0,0.76,0.17,1.3,0.5,1.62c0.34,0.33,0.86,0.49,1.56,0.49
			c0.23,0,0.5-0.03,0.81-0.09c0.3-0.06,0.59-0.14,0.87-0.25s0.52-0.12,0.72-0.06s0.36,0.19,0.47,0.35c0.11,0.17,0.17,0.35,0.18,0.56
			s-0.04,0.41-0.14,0.61s-0.28,0.35-0.53,0.46c-0.37,0.17-0.77,0.3-1.19,0.38S265.75,434.37,265.32,434.37z"/>
	</g>
</g>
<line class="st12" x1="237.54" y1="441.1" x2="274.09" y2="441.1"/>
<g>
	<path class="st9" d="M84.56,22.05c-1.2,0-2.19-0.18-2.96-0.55c-0.78-0.37-1.36-0.92-1.74-1.67c-0.38-0.74-0.58-1.68-0.58-2.8v-3.91
		h-0.82c-0.51,0-0.91-0.14-1.19-0.41c-0.28-0.27-0.42-0.66-0.42-1.18c0-0.51,0.14-0.9,0.42-1.16c0.28-0.26,0.68-0.4,1.19-0.4h0.82
		V8.49c0-0.7,0.18-1.24,0.55-1.61s0.9-0.55,1.58-0.55c0.69,0,1.22,0.18,1.58,0.55s0.55,0.9,0.55,1.61v1.49h1.97
		c0.53,0,0.93,0.13,1.21,0.4c0.28,0.26,0.42,0.65,0.42,1.16c0,0.51-0.14,0.9-0.42,1.18c-0.28,0.27-0.68,0.41-1.21,0.41h-1.97v3.77
		c0,0.59,0.14,1.03,0.42,1.31c0.28,0.28,0.72,0.42,1.33,0.42c0.22,0,0.44-0.02,0.65-0.07c0.21-0.05,0.4-0.07,0.58-0.07
		c0.26-0.02,0.46,0.06,0.62,0.23c0.16,0.17,0.24,0.55,0.24,1.14c0,0.48-0.07,0.88-0.22,1.21c-0.14,0.33-0.4,0.56-0.77,0.71
		c-0.22,0.08-0.53,0.15-0.91,0.2C85.12,22.03,84.8,22.05,84.56,22.05z"/>
	<path class="st9" d="M91.12,22.01c-0.67,0-1.19-0.18-1.56-0.55c-0.37-0.37-0.55-0.9-0.55-1.61V6.81c0-0.7,0.18-1.24,0.55-1.61
		c0.37-0.37,0.89-0.55,1.56-0.55c0.69,0,1.22,0.18,1.6,0.55c0.38,0.37,0.56,0.9,0.56,1.61v5.23h-0.38c0.38-0.75,0.93-1.33,1.64-1.73
		c0.71-0.4,1.52-0.6,2.44-0.6c0.94,0,1.72,0.18,2.33,0.54c0.61,0.36,1.06,0.92,1.37,1.68c0.3,0.76,0.46,1.72,0.46,2.87v5.04
		c0,0.7-0.18,1.24-0.55,1.61c-0.37,0.37-0.9,0.55-1.58,0.55c-0.69,0-1.22-0.18-1.58-0.55c-0.37-0.37-0.55-0.9-0.55-1.61v-4.87
		c0-0.72-0.12-1.23-0.37-1.54c-0.25-0.3-0.61-0.46-1.09-0.46c-0.64,0-1.15,0.2-1.54,0.61c-0.38,0.41-0.58,0.96-0.58,1.64v4.61
		C93.27,21.29,92.56,22.01,91.12,22.01z"/>
	<path class="st9" d="M105.66,8.06c-0.75,0-1.33-0.18-1.74-0.53s-0.61-0.86-0.61-1.54c0-0.66,0.2-1.16,0.61-1.51
		c0.41-0.35,0.99-0.53,1.74-0.53c0.78,0,1.38,0.18,1.78,0.53c0.4,0.35,0.6,0.86,0.6,1.51c0,0.67-0.2,1.18-0.6,1.54
		C107.04,7.89,106.44,8.06,105.66,8.06z M105.66,22.01c-0.67,0-1.19-0.2-1.56-0.6c-0.37-0.4-0.55-0.98-0.55-1.73v-7.58
		c0-0.75,0.18-1.33,0.55-1.73s0.89-0.6,1.56-0.6c0.69,0,1.22,0.2,1.6,0.6s0.56,0.98,0.56,1.73v7.58c0,0.75-0.18,1.33-0.55,1.73
		C106.9,21.81,106.36,22.01,105.66,22.01z"/>
	<path class="st9" d="M114.99,22.05c-0.7,0-1.42-0.05-2.15-0.16c-0.73-0.1-1.39-0.29-1.98-0.56c-0.4-0.16-0.68-0.38-0.85-0.65
		c-0.17-0.27-0.25-0.56-0.24-0.86c0.01-0.3,0.1-0.58,0.26-0.83s0.39-0.42,0.67-0.53c0.28-0.1,0.6-0.09,0.95,0.04
		c0.67,0.24,1.28,0.41,1.81,0.52s1.05,0.16,1.55,0.16c0.59,0,1.02-0.08,1.27-0.25s0.38-0.39,0.38-0.66c0-0.24-0.08-0.42-0.25-0.55
		c-0.17-0.13-0.4-0.22-0.71-0.26l-2.66-0.43c-0.99-0.18-1.76-0.54-2.3-1.09c-0.54-0.55-0.82-1.28-0.82-2.17
		c0-0.83,0.24-1.55,0.71-2.15s1.12-1.06,1.94-1.39c0.82-0.33,1.77-0.49,2.84-0.49c0.72,0,1.38,0.05,1.97,0.16
		c0.59,0.1,1.17,0.29,1.73,0.56c0.35,0.14,0.6,0.35,0.74,0.62c0.14,0.27,0.2,0.56,0.17,0.85c-0.03,0.3-0.13,0.57-0.3,0.82
		c-0.17,0.25-0.4,0.42-0.68,0.5c-0.29,0.09-0.62,0.07-1.01-0.06c-0.53-0.21-1-0.36-1.4-0.46c-0.41-0.1-0.79-0.14-1.14-0.14
		c-0.66,0-1.12,0.09-1.39,0.26c-0.27,0.18-0.41,0.4-0.41,0.67c0,0.21,0.07,0.38,0.22,0.52c0.14,0.14,0.37,0.23,0.67,0.28l2.66,0.46
		c1.02,0.16,1.81,0.51,2.36,1.04c0.55,0.54,0.83,1.26,0.83,2.17c0,1.3-0.5,2.3-1.49,3.01C117.96,21.7,116.64,22.05,114.99,22.05z"/>
	<path class="st9" d="M131.17,8.06c-0.75,0-1.33-0.18-1.74-0.53s-0.61-0.86-0.61-1.54c0-0.66,0.2-1.16,0.61-1.51
		c0.41-0.35,0.99-0.53,1.74-0.53c0.78,0,1.38,0.18,1.78,0.53c0.4,0.35,0.6,0.86,0.6,1.51c0,0.67-0.2,1.18-0.6,1.54
		C132.55,7.89,131.95,8.06,131.17,8.06z M131.17,22.01c-0.67,0-1.19-0.2-1.56-0.6c-0.37-0.4-0.55-0.98-0.55-1.73v-7.58
		c0-0.75,0.18-1.33,0.55-1.73s0.89-0.6,1.56-0.6c0.69,0,1.22,0.2,1.6,0.6s0.56,0.98,0.56,1.73v7.58c0,0.75-0.18,1.33-0.55,1.73
		C132.41,21.81,131.87,22.01,131.17,22.01z"/>
	<path class="st9" d="M140.51,22.05c-0.7,0-1.42-0.05-2.15-0.16c-0.73-0.1-1.39-0.29-1.98-0.56c-0.4-0.16-0.68-0.38-0.85-0.65
		c-0.17-0.27-0.25-0.56-0.24-0.86c0.01-0.3,0.1-0.58,0.26-0.83s0.39-0.42,0.67-0.53c0.28-0.1,0.6-0.09,0.95,0.04
		c0.67,0.24,1.28,0.41,1.81,0.52s1.05,0.16,1.55,0.16c0.59,0,1.02-0.08,1.27-0.25s0.38-0.39,0.38-0.66c0-0.24-0.08-0.42-0.25-0.55
		c-0.17-0.13-0.4-0.22-0.71-0.26l-2.66-0.43c-0.99-0.18-1.76-0.54-2.3-1.09c-0.54-0.55-0.82-1.28-0.82-2.17
		c0-0.83,0.24-1.55,0.71-2.15s1.12-1.06,1.94-1.39c0.82-0.33,1.77-0.49,2.84-0.49c0.72,0,1.38,0.05,1.97,0.16
		c0.59,0.1,1.17,0.29,1.73,0.56c0.35,0.14,0.6,0.35,0.74,0.62c0.14,0.27,0.2,0.56,0.17,0.85c-0.03,0.3-0.13,0.57-0.3,0.82
		c-0.17,0.25-0.4,0.42-0.68,0.5c-0.29,0.09-0.62,0.07-1.01-0.06c-0.53-0.21-1-0.36-1.4-0.46c-0.41-0.1-0.79-0.14-1.14-0.14
		c-0.66,0-1.12,0.09-1.39,0.26c-0.27,0.18-0.41,0.4-0.41,0.67c0,0.21,0.07,0.38,0.22,0.52c0.14,0.14,0.37,0.23,0.67,0.28l2.66,0.46
		c1.02,0.16,1.81,0.51,2.36,1.04c0.55,0.54,0.83,1.26,0.83,2.17c0,1.3-0.5,2.3-1.49,3.01C143.47,21.7,142.15,22.05,140.51,22.05z"/>
	<path class="st9" d="M158.67,22.05c-0.91,0-1.72-0.17-2.41-0.5c-0.7-0.34-1.24-0.8-1.63-1.38c-0.39-0.58-0.59-1.25-0.59-2
		c0-0.86,0.22-1.54,0.67-2.04c0.45-0.5,1.17-0.85,2.16-1.07c0.99-0.22,2.31-0.32,3.96-0.32h1.32v2.02h-1.32
		c-0.62,0-1.14,0.04-1.55,0.13c-0.41,0.09-0.71,0.22-0.9,0.41c-0.19,0.18-0.29,0.42-0.29,0.71c0,0.37,0.13,0.67,0.4,0.91
		c0.26,0.24,0.64,0.36,1.14,0.36c0.4,0,0.76-0.09,1.07-0.26c0.31-0.18,0.56-0.42,0.76-0.73c0.19-0.31,0.29-0.68,0.29-1.09V14.4
		c0-0.58-0.15-0.98-0.44-1.22c-0.3-0.24-0.8-0.36-1.52-0.36c-0.38,0-0.82,0.04-1.3,0.13c-0.48,0.09-1.02,0.24-1.61,0.47
		c-0.43,0.16-0.8,0.18-1.1,0.07c-0.3-0.11-0.54-0.3-0.71-0.58s-0.25-0.57-0.24-0.89c0.01-0.32,0.11-0.62,0.31-0.91
		c0.2-0.29,0.51-0.51,0.92-0.67c0.77-0.29,1.48-0.48,2.12-0.58c0.65-0.1,1.24-0.14,1.79-0.14c1.31,0,2.4,0.19,3.25,0.56
		c0.86,0.38,1.5,0.95,1.92,1.73c0.42,0.78,0.64,1.77,0.64,2.99v4.85c0,0.7-0.17,1.24-0.5,1.61c-0.34,0.37-0.82,0.55-1.46,0.55
		c-0.66,0-1.16-0.18-1.5-0.55c-0.34-0.37-0.52-0.9-0.52-1.61v-0.62l0.14,0.34c-0.08,0.51-0.26,0.95-0.55,1.32
		c-0.29,0.37-0.67,0.66-1.13,0.86C159.79,21.95,159.27,22.05,158.67,22.05z"/>
	<path class="st9" d="M177.23,22.01c-0.67,0-1.19-0.18-1.56-0.55c-0.37-0.37-0.55-0.9-0.55-1.61V11.9c0-0.69,0.18-1.22,0.54-1.58
		c0.36-0.37,0.88-0.55,1.55-0.55s1.18,0.18,1.54,0.55c0.35,0.37,0.53,0.9,0.53,1.58v1.32L179,12.05c0.34-0.7,0.84-1.27,1.5-1.69
		c0.66-0.42,1.45-0.64,2.36-0.64c0.86,0,1.6,0.21,2.22,0.62c0.62,0.42,1.06,1.05,1.33,1.9h-0.34c0.37-0.78,0.92-1.4,1.66-1.85
		c0.74-0.45,1.55-0.67,2.45-0.67c0.93,0,1.69,0.18,2.28,0.54c0.59,0.36,1.04,0.92,1.33,1.68c0.29,0.76,0.44,1.72,0.44,2.87v5.04
		c0,0.7-0.19,1.24-0.56,1.61c-0.38,0.37-0.91,0.55-1.6,0.55c-0.67,0-1.19-0.18-1.56-0.55c-0.37-0.37-0.55-0.9-0.55-1.61v-4.92
		c0-0.69-0.1-1.18-0.31-1.49c-0.21-0.3-0.55-0.46-1.03-0.46c-0.59,0-1.04,0.21-1.36,0.62c-0.31,0.42-0.47,1.01-0.47,1.78v4.46
		c0,0.7-0.18,1.24-0.55,1.61c-0.37,0.37-0.9,0.55-1.58,0.55c-0.69,0-1.22-0.18-1.58-0.55c-0.37-0.37-0.55-0.9-0.55-1.61v-4.92
		c0-0.69-0.1-1.18-0.31-1.49c-0.21-0.3-0.55-0.46-1.03-0.46c-0.58,0-1.02,0.21-1.33,0.62c-0.31,0.42-0.47,1.01-0.47,1.78v4.46
		C179.39,21.29,178.67,22.01,177.23,22.01z"/>
	<path class="st9" d="M201.13,22.05c-1.02,0-1.86-0.19-2.52-0.56c-0.66-0.38-1.15-0.94-1.48-1.69c-0.33-0.75-0.49-1.7-0.49-2.86
		V11.9c0-0.7,0.18-1.24,0.55-1.6c0.37-0.36,0.9-0.54,1.58-0.54c0.69,0,1.22,0.18,1.58,0.54c0.37,0.36,0.55,0.89,0.55,1.6v5.16
		c0,0.58,0.12,1.01,0.36,1.3c0.24,0.29,0.62,0.43,1.13,0.43c0.58,0,1.05-0.21,1.42-0.62c0.37-0.42,0.55-0.97,0.55-1.66V11.9
		c0-0.7,0.18-1.24,0.55-1.6c0.37-0.36,0.9-0.54,1.58-0.54c0.69,0,1.22,0.18,1.58,0.54c0.37,0.36,0.55,0.89,0.55,1.6v7.94
		c0,1.44-0.69,2.16-2.06,2.16c-0.67,0-1.19-0.18-1.56-0.55c-0.37-0.37-0.55-0.9-0.55-1.61v-1.39l0.38,1.18
		c-0.35,0.78-0.84,1.38-1.48,1.8C202.74,21.85,201.99,22.05,201.13,22.05z"/>
	<path class="st9" d="M215.63,22.05c-1.54,0-2.67-0.41-3.4-1.24c-0.73-0.82-1.09-2.07-1.09-3.73V6.81c0-0.7,0.18-1.24,0.55-1.61
		c0.37-0.37,0.89-0.55,1.56-0.55c0.69,0,1.22,0.18,1.6,0.55c0.38,0.37,0.56,0.9,0.56,1.61v10.13c0,0.59,0.12,1.02,0.35,1.3
		c0.23,0.27,0.53,0.41,0.9,0.41c0.11,0,0.23-0.01,0.35-0.04c0.12-0.02,0.25-0.04,0.4-0.06c0.27,0,0.48,0.1,0.61,0.31
		c0.14,0.21,0.2,0.63,0.2,1.27c0,0.56-0.11,0.98-0.34,1.26c-0.22,0.28-0.57,0.46-1.03,0.54c-0.13,0.02-0.31,0.04-0.55,0.07
		S215.83,22.05,215.63,22.05z"/>
	<path class="st9" d="M225.27,22.05c-1.2,0-2.19-0.18-2.96-0.55c-0.78-0.37-1.36-0.92-1.74-1.67c-0.38-0.74-0.58-1.68-0.58-2.8
		v-3.91h-0.82c-0.51,0-0.91-0.14-1.19-0.41c-0.28-0.27-0.42-0.66-0.42-1.18c0-0.51,0.14-0.9,0.42-1.16c0.28-0.26,0.68-0.4,1.19-0.4
		h0.82V8.49c0-0.7,0.18-1.24,0.55-1.61s0.9-0.55,1.58-0.55c0.69,0,1.22,0.18,1.58,0.55s0.55,0.9,0.55,1.61v1.49h1.97
		c0.53,0,0.93,0.13,1.21,0.4c0.28,0.26,0.42,0.65,0.42,1.16c0,0.51-0.14,0.9-0.42,1.18c-0.28,0.27-0.68,0.41-1.21,0.41h-1.97v3.77
		c0,0.59,0.14,1.03,0.42,1.31c0.28,0.28,0.72,0.42,1.33,0.42c0.22,0,0.44-0.02,0.65-0.07c0.21-0.05,0.4-0.07,0.58-0.07
		c0.26-0.02,0.46,0.06,0.62,0.23c0.16,0.17,0.24,0.55,0.24,1.14c0,0.48-0.07,0.88-0.22,1.21c-0.14,0.33-0.4,0.56-0.77,0.71
		c-0.22,0.08-0.53,0.15-0.91,0.2C225.83,22.03,225.51,22.05,225.27,22.05z"/>
	<path class="st9" d="M231.83,8.06c-0.75,0-1.33-0.18-1.74-0.53s-0.61-0.86-0.61-1.54c0-0.66,0.2-1.16,0.61-1.51
		c0.41-0.35,0.99-0.53,1.74-0.53c0.78,0,1.38,0.18,1.78,0.53c0.4,0.35,0.6,0.86,0.6,1.51c0,0.67-0.2,1.18-0.6,1.54
		C233.2,7.89,232.61,8.06,231.83,8.06z M231.83,22.01c-0.67,0-1.19-0.2-1.56-0.6c-0.37-0.4-0.55-0.98-0.55-1.73v-7.58
		c0-0.75,0.18-1.33,0.55-1.73s0.89-0.6,1.56-0.6c0.69,0,1.22,0.2,1.6,0.6s0.56,0.98,0.56,1.73v7.58c0,0.75-0.18,1.33-0.55,1.73
		C233.06,21.81,232.53,22.01,231.83,22.01z"/>
	<path class="st9" d="M238.18,17.01c-0.48,0-0.88-0.16-1.2-0.48c-0.32-0.32-0.48-0.72-0.48-1.2s0.16-0.88,0.48-1.19
		c0.32-0.31,0.72-0.47,1.2-0.47h4.75c0.48,0,0.88,0.16,1.2,0.47s0.48,0.71,0.48,1.19s-0.16,0.88-0.48,1.2
		c-0.32,0.32-0.72,0.48-1.2,0.48H238.18z"/>
	<path class="st9" d="M249.32,22.01c-0.7,0-1.24-0.18-1.62-0.55c-0.38-0.37-0.56-0.9-0.56-1.61V11.9c0-0.69,0.18-1.22,0.54-1.58
		c0.36-0.37,0.88-0.55,1.55-0.55s1.18,0.18,1.54,0.55c0.35,0.37,0.53,0.9,0.53,1.58v0.98h-0.24c0.16-0.96,0.57-1.72,1.24-2.28
		c0.66-0.56,1.49-0.86,2.48-0.89c0.46-0.02,0.81,0.1,1.04,0.35c0.23,0.25,0.36,0.71,0.37,1.38c0,0.58-0.12,1.03-0.36,1.37
		c-0.24,0.34-0.7,0.54-1.37,0.6l-0.55,0.05c-0.85,0.08-1.46,0.32-1.85,0.71c-0.38,0.39-0.58,0.97-0.58,1.74v3.94
		c0,0.7-0.18,1.24-0.55,1.61C250.56,21.82,250.02,22.01,249.32,22.01z"/>
	<path class="st9" d="M261.54,22.05c-0.91,0-1.72-0.17-2.41-0.5c-0.7-0.34-1.24-0.8-1.63-1.38c-0.39-0.58-0.59-1.25-0.59-2
		c0-0.86,0.22-1.54,0.67-2.04c0.45-0.5,1.17-0.85,2.16-1.07c0.99-0.22,2.31-0.32,3.96-0.32h1.32v2.02h-1.32
		c-0.62,0-1.14,0.04-1.55,0.13c-0.41,0.09-0.71,0.22-0.9,0.41c-0.19,0.18-0.29,0.42-0.29,0.71c0,0.37,0.13,0.67,0.4,0.91
		c0.26,0.24,0.64,0.36,1.14,0.36c0.4,0,0.76-0.09,1.07-0.26c0.31-0.18,0.56-0.42,0.76-0.73c0.19-0.31,0.29-0.68,0.29-1.09V14.4
		c0-0.58-0.15-0.98-0.44-1.22c-0.3-0.24-0.8-0.36-1.52-0.36c-0.38,0-0.82,0.04-1.3,0.13c-0.48,0.09-1.02,0.24-1.61,0.47
		c-0.43,0.16-0.8,0.18-1.1,0.07c-0.3-0.11-0.54-0.3-0.71-0.58s-0.25-0.57-0.24-0.89c0.01-0.32,0.11-0.62,0.31-0.91
		c0.2-0.29,0.51-0.51,0.92-0.67c0.77-0.29,1.48-0.48,2.12-0.58c0.65-0.1,1.24-0.14,1.79-0.14c1.31,0,2.4,0.19,3.25,0.56
		c0.86,0.38,1.5,0.95,1.92,1.73c0.42,0.78,0.64,1.77,0.64,2.99v4.85c0,0.7-0.17,1.24-0.5,1.61c-0.34,0.37-0.82,0.55-1.46,0.55
		c-0.66,0-1.16-0.18-1.5-0.55c-0.34-0.37-0.52-0.9-0.52-1.61v-0.62l0.14,0.34c-0.08,0.51-0.26,0.95-0.55,1.32
		c-0.29,0.37-0.67,0.66-1.13,0.86C262.66,21.95,262.13,22.05,261.54,22.05z"/>
	<path class="st9" d="M277.09,22.05c-1.33,0-2.48-0.25-3.47-0.74c-0.98-0.5-1.75-1.21-2.29-2.15s-0.82-2.04-0.82-3.3
		c0-0.96,0.15-1.82,0.46-2.58c0.3-0.76,0.75-1.4,1.33-1.93c0.58-0.53,1.28-0.93,2.09-1.21c0.81-0.28,1.71-0.42,2.7-0.42
		c0.46,0,0.95,0.04,1.46,0.13c0.51,0.09,1.04,0.25,1.58,0.49c0.38,0.14,0.65,0.36,0.8,0.66c0.15,0.3,0.22,0.61,0.19,0.95
		c-0.02,0.34-0.12,0.64-0.29,0.91c-0.17,0.27-0.4,0.46-0.7,0.55s-0.63,0.06-1-0.12c-0.26-0.13-0.52-0.22-0.8-0.28
		c-0.28-0.06-0.55-0.08-0.8-0.08c-0.43,0-0.81,0.06-1.14,0.19c-0.33,0.13-0.6,0.32-0.83,0.56c-0.22,0.25-0.4,0.56-0.52,0.92
		s-0.18,0.78-0.18,1.25c0,0.93,0.23,1.66,0.7,2.18c0.46,0.53,1.12,0.79,1.97,0.79c0.26,0,0.52-0.03,0.79-0.08
		c0.27-0.06,0.54-0.15,0.82-0.28c0.37-0.18,0.7-0.21,0.98-0.11s0.52,0.29,0.7,0.56s0.27,0.57,0.29,0.9
		c0.02,0.33-0.06,0.64-0.22,0.94c-0.16,0.3-0.43,0.52-0.82,0.66c-0.53,0.24-1.04,0.4-1.55,0.49S277.55,22.05,277.09,22.05z"/>
	<path class="st9" d="M284.79,8.06c-0.75,0-1.33-0.18-1.74-0.53s-0.61-0.86-0.61-1.54c0-0.66,0.2-1.16,0.61-1.51
		c0.41-0.35,0.99-0.53,1.74-0.53c0.78,0,1.38,0.18,1.78,0.53c0.4,0.35,0.6,0.86,0.6,1.51c0,0.67-0.2,1.18-0.6,1.54
		C286.17,7.89,285.58,8.06,284.79,8.06z M284.79,22.01c-0.67,0-1.19-0.2-1.56-0.6c-0.37-0.4-0.55-0.98-0.55-1.73v-7.58
		c0-0.75,0.18-1.33,0.55-1.73s0.89-0.6,1.56-0.6c0.69,0,1.22,0.2,1.6,0.6s0.56,0.98,0.56,1.73v7.58c0,0.75-0.18,1.33-0.55,1.73
		C286.03,21.81,285.5,22.01,284.79,22.01z"/>
	<path class="st9" d="M293.53,22.05c-0.91,0-1.72-0.17-2.41-0.5c-0.7-0.34-1.24-0.8-1.63-1.38c-0.39-0.58-0.59-1.25-0.59-2
		c0-0.86,0.22-1.54,0.67-2.04c0.45-0.5,1.17-0.85,2.16-1.07c0.99-0.22,2.31-0.32,3.96-0.32h1.32v2.02h-1.32
		c-0.62,0-1.14,0.04-1.55,0.13c-0.41,0.09-0.71,0.22-0.9,0.41c-0.19,0.18-0.29,0.42-0.29,0.71c0,0.37,0.13,0.67,0.4,0.91
		c0.26,0.24,0.64,0.36,1.14,0.36c0.4,0,0.76-0.09,1.07-0.26c0.31-0.18,0.56-0.42,0.76-0.73c0.19-0.31,0.29-0.68,0.29-1.09V14.4
		c0-0.58-0.15-0.98-0.44-1.22c-0.3-0.24-0.8-0.36-1.52-0.36c-0.38,0-0.82,0.04-1.3,0.13c-0.48,0.09-1.02,0.24-1.61,0.47
		c-0.43,0.16-0.8,0.18-1.1,0.07c-0.3-0.11-0.54-0.3-0.71-0.58s-0.25-0.57-0.24-0.89c0.01-0.32,0.11-0.62,0.31-0.91
		c0.2-0.29,0.51-0.51,0.92-0.67c0.77-0.29,1.48-0.48,2.12-0.58c0.65-0.1,1.24-0.14,1.79-0.14c1.31,0,2.4,0.19,3.25,0.56
		c0.86,0.38,1.5,0.95,1.92,1.73c0.42,0.78,0.64,1.77,0.64,2.99v4.85c0,0.7-0.17,1.24-0.5,1.61c-0.34,0.37-0.82,0.55-1.46,0.55
		c-0.66,0-1.16-0.18-1.5-0.55c-0.34-0.37-0.52-0.9-0.52-1.61v-0.62l0.14,0.34c-0.08,0.51-0.26,0.95-0.55,1.32
		c-0.29,0.37-0.67,0.66-1.13,0.86C294.65,21.95,294.12,22.05,293.53,22.05z"/>
	<path class="st9" d="M307.54,22.05c-1.54,0-2.67-0.41-3.4-1.24c-0.73-0.82-1.09-2.07-1.09-3.73V6.81c0-0.7,0.18-1.24,0.55-1.61
		c0.37-0.37,0.89-0.55,1.56-0.55c0.69,0,1.22,0.18,1.6,0.55c0.38,0.37,0.56,0.9,0.56,1.61v10.13c0,0.59,0.12,1.02,0.35,1.3
		c0.23,0.27,0.53,0.41,0.9,0.41c0.11,0,0.23-0.01,0.35-0.04c0.12-0.02,0.25-0.04,0.4-0.06c0.27,0,0.48,0.1,0.61,0.31
		c0.14,0.21,0.2,0.63,0.2,1.27c0,0.56-0.11,0.98-0.34,1.26c-0.22,0.28-0.57,0.46-1.03,0.54c-0.13,0.02-0.31,0.04-0.55,0.07
		S307.75,22.05,307.54,22.05z"/>
	<path class="st9" d="M84.4,51.05c-1.33,0-2.48-0.25-3.47-0.74c-0.98-0.5-1.75-1.21-2.29-2.15s-0.82-2.04-0.82-3.3
		c0-0.96,0.15-1.82,0.46-2.58c0.3-0.76,0.75-1.4,1.33-1.93c0.58-0.53,1.28-0.93,2.09-1.21c0.81-0.28,1.71-0.42,2.7-0.42
		c0.46,0,0.95,0.04,1.46,0.13c0.51,0.09,1.04,0.25,1.58,0.49c0.38,0.14,0.65,0.36,0.8,0.66c0.15,0.3,0.22,0.61,0.19,0.95
		c-0.02,0.34-0.12,0.64-0.29,0.91c-0.17,0.27-0.4,0.46-0.7,0.55s-0.63,0.06-1-0.12c-0.26-0.13-0.52-0.22-0.8-0.28
		c-0.28-0.06-0.55-0.08-0.8-0.08c-0.43,0-0.81,0.06-1.14,0.19c-0.33,0.13-0.6,0.32-0.83,0.56c-0.22,0.25-0.4,0.56-0.52,0.92
		s-0.18,0.78-0.18,1.25c0,0.93,0.23,1.66,0.7,2.18c0.46,0.53,1.12,0.79,1.97,0.79c0.26,0,0.52-0.03,0.79-0.08
		c0.27-0.06,0.54-0.15,0.82-0.28c0.37-0.18,0.7-0.21,0.98-0.11s0.52,0.29,0.7,0.56s0.27,0.57,0.29,0.9
		c0.02,0.33-0.06,0.64-0.22,0.94c-0.16,0.3-0.43,0.52-0.82,0.66c-0.53,0.24-1.04,0.4-1.55,0.49S84.86,51.05,84.4,51.05z"/>
	<path class="st9" d="M95.72,51.05c-1.31,0-2.46-0.25-3.43-0.74c-0.98-0.5-1.74-1.21-2.28-2.14c-0.54-0.93-0.82-2.02-0.82-3.29
		c0-0.96,0.15-1.82,0.46-2.58c0.3-0.76,0.74-1.41,1.32-1.94c0.58-0.54,1.26-0.94,2.06-1.22c0.8-0.28,1.7-0.42,2.69-0.42
		c1.31,0,2.46,0.25,3.43,0.74c0.98,0.5,1.73,1.2,2.27,2.12c0.54,0.92,0.8,2.02,0.8,3.3c0,0.94-0.15,1.8-0.46,2.57
		c-0.3,0.77-0.74,1.42-1.31,1.96s-1.26,0.94-2.06,1.22C97.59,50.91,96.7,51.05,95.72,51.05z M95.72,47.91
		c0.43,0,0.82-0.11,1.15-0.32c0.34-0.22,0.6-0.54,0.78-0.98c0.18-0.44,0.28-1.01,0.28-1.72c0-1.07-0.21-1.84-0.62-2.32
		c-0.42-0.47-0.94-0.71-1.58-0.71c-0.43,0-0.82,0.1-1.15,0.31c-0.34,0.21-0.6,0.53-0.79,0.97c-0.19,0.44-0.29,1.02-0.29,1.74
		c0,1.06,0.21,1.82,0.62,2.3S95.07,47.91,95.72,47.91z"/>
	<path class="st9" d="M108.61,51.05c-1.02,0-1.86-0.19-2.52-0.56c-0.66-0.38-1.15-0.94-1.48-1.69c-0.33-0.75-0.49-1.7-0.49-2.86
		V40.9c0-0.7,0.18-1.24,0.55-1.6c0.37-0.36,0.9-0.54,1.58-0.54c0.69,0,1.22,0.18,1.58,0.54c0.37,0.36,0.55,0.89,0.55,1.6v5.16
		c0,0.58,0.12,1.01,0.36,1.3c0.24,0.29,0.62,0.43,1.13,0.43c0.58,0,1.05-0.21,1.42-0.62c0.37-0.42,0.55-0.97,0.55-1.66V40.9
		c0-0.7,0.18-1.24,0.55-1.6c0.37-0.36,0.9-0.54,1.58-0.54c0.69,0,1.22,0.18,1.58,0.54c0.37,0.36,0.55,0.89,0.55,1.6v7.94
		c0,1.44-0.69,2.16-2.06,2.16c-0.67,0-1.19-0.18-1.56-0.55c-0.37-0.37-0.55-0.9-0.55-1.61v-1.39l0.38,1.18
		c-0.35,0.78-0.84,1.38-1.48,1.8C110.22,50.85,109.48,51.05,108.61,51.05z"/>
	<path class="st9" d="M120.73,55.33c-0.67,0-1.19-0.18-1.56-0.55s-0.55-0.9-0.55-1.61V40.9c0-0.69,0.18-1.22,0.54-1.58
		c0.36-0.37,0.88-0.55,1.55-0.55c0.69,0,1.21,0.18,1.57,0.55c0.36,0.37,0.54,0.9,0.54,1.58v1.39l-0.26-1.18
		c0.22-0.72,0.69-1.3,1.4-1.74c0.71-0.44,1.52-0.66,2.44-0.66c1.02,0,1.92,0.25,2.7,0.74c0.78,0.5,1.38,1.2,1.81,2.11
		c0.43,0.91,0.65,2.02,0.65,3.31c0,1.26-0.22,2.36-0.65,3.29c-0.43,0.93-1.04,1.64-1.81,2.14s-1.68,0.74-2.7,0.74
		c-0.88,0-1.67-0.21-2.38-0.62c-0.71-0.42-1.18-0.96-1.42-1.63h0.29v4.37c0,0.7-0.19,1.24-0.56,1.61S121.42,55.33,120.73,55.33z
		 M125.05,47.91c0.43,0,0.81-0.11,1.14-0.32c0.33-0.22,0.59-0.54,0.78-0.98c0.19-0.44,0.29-1.01,0.29-1.72
		c0-1.07-0.21-1.84-0.62-2.32c-0.42-0.47-0.94-0.71-1.58-0.71c-0.43,0-0.82,0.1-1.15,0.31c-0.34,0.21-0.6,0.53-0.79,0.97
		c-0.19,0.44-0.29,1.02-0.29,1.74c0,1.06,0.21,1.82,0.62,2.3C123.86,47.67,124.4,47.91,125.05,47.91z"/>
	<path class="st9" d="M137.99,51.05c-1.54,0-2.67-0.41-3.4-1.24c-0.73-0.82-1.09-2.07-1.09-3.73V35.81c0-0.7,0.18-1.24,0.55-1.61
		c0.37-0.37,0.89-0.55,1.56-0.55c0.69,0,1.22,0.18,1.6,0.55c0.38,0.37,0.56,0.9,0.56,1.61v10.13c0,0.59,0.12,1.02,0.35,1.3
		c0.23,0.27,0.53,0.41,0.9,0.41c0.11,0,0.23-0.01,0.35-0.04c0.12-0.02,0.25-0.04,0.4-0.06c0.27,0,0.48,0.1,0.61,0.31
		c0.14,0.21,0.2,0.63,0.2,1.27c0,0.56-0.11,0.98-0.34,1.26c-0.22,0.28-0.57,0.46-1.03,0.54c-0.13,0.02-0.31,0.04-0.55,0.07
		S138.19,51.05,137.99,51.05z"/>
	<path class="st9" d="M148.16,51.05c-1.44,0-2.68-0.25-3.73-0.76c-1.05-0.5-1.85-1.22-2.41-2.15c-0.56-0.93-0.84-2.02-0.84-3.29
		c0-1.22,0.27-2.28,0.8-3.2s1.27-1.64,2.21-2.16c0.94-0.52,2-0.78,3.2-0.78c0.88,0,1.68,0.14,2.4,0.42
		c0.72,0.28,1.34,0.69,1.85,1.22c0.51,0.54,0.9,1.18,1.16,1.93c0.26,0.75,0.4,1.59,0.4,2.52c0,0.32-0.09,0.56-0.26,0.71
		c-0.18,0.15-0.46,0.23-0.84,0.23h-7.34v-2.02h5.33l-0.38,0.31c0-0.59-0.08-1.07-0.24-1.44c-0.16-0.37-0.4-0.65-0.71-0.84
		c-0.31-0.19-0.7-0.29-1.16-0.29c-0.5,0-0.92,0.12-1.28,0.35c-0.36,0.23-0.64,0.57-0.83,1.02c-0.19,0.45-0.29,1.01-0.29,1.68v0.22
		c0,1.14,0.25,1.95,0.76,2.44s1.28,0.73,2.34,0.73c0.35,0,0.76-0.04,1.21-0.13c0.46-0.09,0.89-0.21,1.31-0.37
		c0.42-0.16,0.78-0.19,1.08-0.08c0.3,0.1,0.54,0.28,0.71,0.53s0.26,0.53,0.28,0.84s-0.06,0.62-0.22,0.91
		c-0.16,0.3-0.42,0.52-0.79,0.68c-0.56,0.26-1.16,0.45-1.79,0.58C149.44,50.99,148.8,51.05,148.16,51.05z"/>
	<path class="st9" d="M167.05,51.01c-0.54,0-1.02-0.13-1.42-0.4c-0.4-0.26-0.72-0.68-0.96-1.24l-3.26-7.9
		c-0.21-0.5-0.28-0.95-0.22-1.36c0.06-0.41,0.26-0.74,0.59-0.98c0.33-0.25,0.78-0.37,1.36-0.37c0.5,0,0.9,0.12,1.22,0.35
		c0.32,0.23,0.61,0.68,0.86,1.36l2.3,6.05h-0.5l2.42-6.5c0.16-0.43,0.38-0.75,0.66-0.95c0.28-0.2,0.64-0.3,1.07-0.3
		c0.46,0,0.83,0.1,1.1,0.31c0.27,0.21,0.49,0.52,0.65,0.94l2.42,6.5h-0.43l2.33-6.19c0.22-0.61,0.51-1.02,0.86-1.24
		c0.35-0.22,0.73-0.32,1.13-0.32c0.54,0,0.96,0.13,1.25,0.38c0.29,0.26,0.45,0.59,0.49,1.01c0.04,0.42-0.04,0.86-0.25,1.34
		l-3.24,7.85c-0.22,0.56-0.54,0.98-0.94,1.25c-0.4,0.27-0.87,0.41-1.42,0.41c-0.56,0-1.04-0.14-1.43-0.41
		c-0.39-0.27-0.71-0.69-0.95-1.25l-2.64-6.6h1.75l-2.5,6.55c-0.22,0.58-0.53,1-0.91,1.28S167.61,51.01,167.05,51.01z"/>
	<path class="st9" d="M184.86,37.06c-0.75,0-1.33-0.18-1.74-0.53s-0.61-0.86-0.61-1.54c0-0.66,0.2-1.16,0.61-1.51
		c0.41-0.35,0.99-0.53,1.74-0.53c0.78,0,1.38,0.18,1.78,0.53c0.4,0.35,0.6,0.86,0.6,1.51c0,0.67-0.2,1.18-0.6,1.54
		C186.23,36.89,185.64,37.06,184.86,37.06z M184.86,51.01c-0.67,0-1.19-0.2-1.56-0.6c-0.37-0.4-0.55-0.98-0.55-1.73v-7.58
		c0-0.75,0.18-1.33,0.55-1.73s0.89-0.6,1.56-0.6c0.69,0,1.22,0.2,1.6,0.6s0.56,0.98,0.56,1.73v7.58c0,0.75-0.18,1.33-0.55,1.73
		C186.1,50.81,185.56,51.01,184.86,51.01z"/>
	<path class="st9" d="M195.68,51.05c-1.2,0-2.19-0.18-2.96-0.55c-0.78-0.37-1.36-0.92-1.74-1.67c-0.38-0.74-0.58-1.68-0.58-2.8
		v-3.91h-0.82c-0.51,0-0.91-0.14-1.19-0.41c-0.28-0.27-0.42-0.66-0.42-1.18c0-0.51,0.14-0.9,0.42-1.16c0.28-0.26,0.68-0.4,1.19-0.4
		h0.82v-1.49c0-0.7,0.18-1.24,0.55-1.61s0.9-0.55,1.58-0.55c0.69,0,1.22,0.18,1.58,0.55s0.55,0.9,0.55,1.61v1.49h1.97
		c0.53,0,0.93,0.13,1.21,0.4c0.28,0.26,0.42,0.65,0.42,1.16c0,0.51-0.14,0.9-0.42,1.18c-0.28,0.27-0.68,0.41-1.21,0.41h-1.97v3.77
		c0,0.59,0.14,1.03,0.42,1.31c0.28,0.28,0.72,0.42,1.33,0.42c0.22,0,0.44-0.02,0.65-0.07c0.21-0.05,0.4-0.07,0.58-0.07
		c0.26-0.02,0.46,0.06,0.62,0.23c0.16,0.17,0.24,0.55,0.24,1.14c0,0.48-0.07,0.88-0.22,1.21c-0.14,0.33-0.4,0.56-0.77,0.71
		c-0.22,0.08-0.53,0.15-0.91,0.2C196.23,51.03,195.92,51.05,195.68,51.05z"/>
	<path class="st9" d="M202.23,51.01c-0.67,0-1.19-0.18-1.56-0.55c-0.37-0.37-0.55-0.9-0.55-1.61V35.81c0-0.7,0.18-1.24,0.55-1.61
		c0.37-0.37,0.89-0.55,1.56-0.55c0.69,0,1.22,0.18,1.6,0.55c0.38,0.37,0.56,0.9,0.56,1.61v5.23h-0.38c0.38-0.75,0.93-1.33,1.64-1.73
		c0.71-0.4,1.52-0.6,2.44-0.6c0.94,0,1.72,0.18,2.33,0.54c0.61,0.36,1.06,0.92,1.37,1.68c0.3,0.76,0.46,1.72,0.46,2.87v5.04
		c0,0.7-0.18,1.24-0.55,1.61c-0.37,0.37-0.9,0.55-1.58,0.55c-0.69,0-1.22-0.18-1.58-0.55c-0.37-0.37-0.55-0.9-0.55-1.61v-4.87
		c0-0.72-0.12-1.23-0.37-1.54c-0.25-0.3-0.61-0.46-1.09-0.46c-0.64,0-1.15,0.2-1.54,0.61c-0.38,0.41-0.58,0.96-0.58,1.64v4.61
		C204.39,50.29,203.67,51.01,202.23,51.01z"/>
	<path class="st9" d="M226.98,51.05c-0.82,0-1.63-0.08-2.45-0.24s-1.52-0.38-2.11-0.67c-0.51-0.24-0.87-0.54-1.07-0.89
		c-0.2-0.35-0.28-0.71-0.25-1.08c0.03-0.37,0.16-0.7,0.4-0.98c0.23-0.29,0.54-0.48,0.91-0.59s0.8-0.05,1.28,0.16
		c0.59,0.26,1.14,0.43,1.63,0.53c0.5,0.1,0.99,0.14,1.49,0.14c0.58,0,1.06-0.06,1.44-0.19s0.67-0.32,0.86-0.59
		c0.19-0.26,0.29-0.6,0.29-1c0-0.56-0.2-0.97-0.59-1.24c-0.39-0.26-0.96-0.4-1.72-0.4h-1.3c-0.61,0-1.07-0.15-1.39-0.46
		c-0.32-0.3-0.48-0.74-0.48-1.3s0.16-0.99,0.48-1.3c0.32-0.3,0.78-0.46,1.39-0.46h0.86c0.46,0,0.86-0.06,1.19-0.19
		c0.33-0.13,0.58-0.32,0.76-0.56c0.18-0.25,0.26-0.56,0.26-0.92c0-0.53-0.19-0.93-0.56-1.2c-0.38-0.27-0.93-0.41-1.67-0.41
		c-0.45,0-0.9,0.05-1.37,0.14c-0.46,0.1-0.96,0.26-1.49,0.5c-0.42,0.18-0.8,0.22-1.14,0.12c-0.34-0.1-0.62-0.28-0.84-0.56
		c-0.22-0.28-0.35-0.59-0.4-0.94c-0.05-0.34,0.01-0.68,0.17-1.02s0.46-0.62,0.91-0.84c0.67-0.34,1.4-0.59,2.2-0.77
		c0.79-0.18,1.59-0.26,2.39-0.26c1.26,0,2.34,0.18,3.24,0.55c0.9,0.37,1.58,0.9,2.05,1.6c0.47,0.7,0.71,1.53,0.71,2.51
		c0,0.64-0.12,1.23-0.36,1.78c-0.24,0.54-0.59,1-1.06,1.36s-1.01,0.62-1.63,0.78v-0.34c1.12,0.18,2,0.64,2.63,1.4
		s0.95,1.71,0.95,2.84c0,1.02-0.26,1.91-0.79,2.66c-0.53,0.75-1.29,1.32-2.28,1.72C229.54,50.86,228.35,51.05,226.98,51.05z"/>
	<path class="st9" d="M248.82,51.05c-1.33,0-2.48-0.25-3.47-0.74c-0.98-0.5-1.75-1.21-2.29-2.15s-0.82-2.04-0.82-3.3
		c0-0.96,0.15-1.82,0.46-2.58c0.3-0.76,0.75-1.4,1.33-1.93c0.58-0.53,1.28-0.93,2.09-1.21c0.81-0.28,1.71-0.42,2.7-0.42
		c0.46,0,0.95,0.04,1.46,0.13c0.51,0.09,1.04,0.25,1.58,0.49c0.38,0.14,0.65,0.36,0.8,0.66c0.15,0.3,0.22,0.61,0.19,0.95
		c-0.02,0.34-0.12,0.64-0.29,0.91c-0.17,0.27-0.4,0.46-0.7,0.55s-0.63,0.06-1-0.12c-0.26-0.13-0.52-0.22-0.8-0.28
		c-0.28-0.06-0.55-0.08-0.8-0.08c-0.43,0-0.81,0.06-1.14,0.19c-0.33,0.13-0.6,0.32-0.83,0.56c-0.22,0.25-0.4,0.56-0.52,0.92
		s-0.18,0.78-0.18,1.25c0,0.93,0.23,1.66,0.7,2.18c0.46,0.53,1.12,0.79,1.97,0.79c0.26,0,0.52-0.03,0.79-0.08
		c0.27-0.06,0.54-0.15,0.82-0.28c0.37-0.18,0.7-0.21,0.98-0.11s0.52,0.29,0.7,0.56s0.27,0.57,0.29,0.9
		c0.02,0.33-0.06,0.64-0.22,0.94c-0.16,0.3-0.43,0.52-0.82,0.66c-0.53,0.24-1.04,0.4-1.55,0.49S249.28,51.05,248.82,51.05z"/>
	<path class="st9" d="M256.52,51.01c-0.67,0-1.19-0.18-1.56-0.55c-0.37-0.37-0.55-0.9-0.55-1.61V35.81c0-0.7,0.18-1.24,0.55-1.61
		c0.37-0.37,0.89-0.55,1.56-0.55c0.69,0,1.22,0.18,1.6,0.55c0.38,0.37,0.56,0.9,0.56,1.61v5.23h-0.38c0.38-0.75,0.93-1.33,1.64-1.73
		c0.71-0.4,1.52-0.6,2.44-0.6c0.94,0,1.72,0.18,2.33,0.54c0.61,0.36,1.06,0.92,1.37,1.68c0.3,0.76,0.46,1.72,0.46,2.87v5.04
		c0,0.7-0.18,1.24-0.55,1.61c-0.37,0.37-0.9,0.55-1.58,0.55c-0.69,0-1.22-0.18-1.58-0.55c-0.37-0.37-0.55-0.9-0.55-1.61v-4.87
		c0-0.72-0.12-1.23-0.37-1.54c-0.25-0.3-0.61-0.46-1.09-0.46c-0.64,0-1.15,0.2-1.54,0.61c-0.38,0.41-0.58,0.96-0.58,1.64v4.61
		C258.68,50.29,257.96,51.01,256.52,51.01z"/>
	<path class="st9" d="M271.07,37.06c-0.75,0-1.33-0.18-1.74-0.53s-0.61-0.86-0.61-1.54c0-0.66,0.2-1.16,0.61-1.51
		c0.41-0.35,0.99-0.53,1.74-0.53c0.78,0,1.38,0.18,1.78,0.53c0.4,0.35,0.6,0.86,0.6,1.51c0,0.67-0.2,1.18-0.6,1.54
		C272.44,36.89,271.85,37.06,271.07,37.06z M271.07,51.01c-0.67,0-1.19-0.2-1.56-0.6c-0.37-0.4-0.55-0.98-0.55-1.73v-7.58
		c0-0.75,0.18-1.33,0.55-1.73s0.89-0.6,1.56-0.6c0.69,0,1.22,0.2,1.6,0.6s0.56,0.98,0.56,1.73v7.58c0,0.75-0.18,1.33-0.55,1.73
		C272.31,50.81,271.77,51.01,271.07,51.01z"/>
	<path class="st9" d="M280.19,51.05c-1.54,0-2.67-0.41-3.4-1.24c-0.73-0.82-1.09-2.07-1.09-3.73V35.81c0-0.7,0.18-1.24,0.55-1.61
		c0.37-0.37,0.89-0.55,1.56-0.55c0.69,0,1.22,0.18,1.6,0.55c0.38,0.37,0.56,0.9,0.56,1.61v10.13c0,0.59,0.12,1.02,0.35,1.3
		c0.23,0.27,0.53,0.41,0.9,0.41c0.11,0,0.23-0.01,0.35-0.04c0.12-0.02,0.25-0.04,0.4-0.06c0.27,0,0.48,0.1,0.61,0.31
		c0.14,0.21,0.2,0.63,0.2,1.27c0,0.56-0.11,0.98-0.34,1.26c-0.22,0.28-0.57,0.46-1.03,0.54c-0.13,0.02-0.31,0.04-0.55,0.07
		S280.39,51.05,280.19,51.05z"/>
	<path class="st9" d="M288.54,51.05c-1.01,0-1.9-0.25-2.68-0.74s-1.38-1.21-1.82-2.14c-0.44-0.93-0.66-2.02-0.66-3.29
		c0-1.3,0.22-2.4,0.66-3.31c0.44-0.91,1.05-1.62,1.82-2.11c0.78-0.5,1.67-0.74,2.68-0.74c0.88,0,1.67,0.21,2.38,0.62
		c0.7,0.42,1.18,0.95,1.42,1.61h-0.26v-5.14c0-0.7,0.18-1.24,0.55-1.61c0.37-0.37,0.9-0.55,1.58-0.55c0.67,0,1.2,0.18,1.57,0.55
		c0.38,0.37,0.56,0.9,0.56,1.61v13.03c0,0.7-0.18,1.24-0.54,1.61c-0.36,0.37-0.88,0.55-1.57,0.55c-0.67,0-1.19-0.18-1.56-0.55
		c-0.37-0.37-0.55-0.9-0.55-1.61v-1.37l0.26,1.18c-0.22,0.72-0.69,1.3-1.4,1.74S289.45,51.05,288.54,51.05z M289.9,47.91
		c0.43,0,0.82-0.11,1.15-0.32c0.34-0.22,0.6-0.54,0.78-0.98c0.18-0.44,0.28-1.01,0.28-1.72c0-1.07-0.21-1.84-0.62-2.32
		c-0.42-0.47-0.94-0.71-1.58-0.71c-0.43,0-0.82,0.1-1.15,0.31c-0.34,0.21-0.6,0.53-0.79,0.97c-0.19,0.44-0.29,1.02-0.29,1.74
		c0,1.06,0.21,1.82,0.62,2.3S289.25,47.91,289.9,47.91z"/>
	<path class="st9" d="M300.99,51.01c-0.7,0-1.24-0.18-1.62-0.55c-0.38-0.37-0.56-0.9-0.56-1.61V40.9c0-0.69,0.18-1.22,0.54-1.58
		c0.36-0.37,0.88-0.55,1.55-0.55s1.18,0.18,1.54,0.55c0.35,0.37,0.53,0.9,0.53,1.58v0.98h-0.24c0.16-0.96,0.57-1.72,1.24-2.28
		c0.66-0.56,1.49-0.86,2.48-0.89c0.46-0.02,0.81,0.1,1.04,0.35c0.23,0.25,0.36,0.71,0.37,1.38c0,0.58-0.12,1.03-0.36,1.37
		c-0.24,0.34-0.7,0.54-1.37,0.6l-0.55,0.05c-0.85,0.08-1.46,0.32-1.85,0.71c-0.38,0.39-0.58,0.97-0.58,1.74v3.94
		c0,0.7-0.18,1.24-0.55,1.61C302.23,50.82,301.7,51.01,300.99,51.01z"/>
	<path class="st9" d="M315.44,51.05c-1.44,0-2.68-0.25-3.73-0.76c-1.05-0.5-1.85-1.22-2.41-2.15c-0.56-0.93-0.84-2.02-0.84-3.29
		c0-1.22,0.27-2.28,0.8-3.2s1.27-1.64,2.21-2.16c0.94-0.52,2-0.78,3.2-0.78c0.88,0,1.68,0.14,2.4,0.42
		c0.72,0.28,1.34,0.69,1.85,1.22c0.51,0.54,0.9,1.18,1.16,1.93c0.26,0.75,0.4,1.59,0.4,2.52c0,0.32-0.09,0.56-0.26,0.71
		c-0.18,0.15-0.46,0.23-0.84,0.23h-7.34v-2.02h5.33l-0.38,0.31c0-0.59-0.08-1.07-0.24-1.44c-0.16-0.37-0.4-0.65-0.71-0.84
		c-0.31-0.19-0.7-0.29-1.16-0.29c-0.5,0-0.92,0.12-1.28,0.35c-0.36,0.23-0.64,0.57-0.83,1.02c-0.19,0.45-0.29,1.01-0.29,1.68v0.22
		c0,1.14,0.25,1.95,0.76,2.44s1.28,0.73,2.34,0.73c0.35,0,0.76-0.04,1.21-0.13c0.46-0.09,0.89-0.21,1.31-0.37
		c0.42-0.16,0.78-0.19,1.08-0.08c0.3,0.1,0.54,0.28,0.71,0.53s0.26,0.53,0.28,0.84s-0.06,0.62-0.22,0.91
		c-0.16,0.3-0.42,0.52-0.79,0.68c-0.56,0.26-1.16,0.45-1.79,0.58C316.72,50.99,316.08,51.05,315.44,51.05z"/>
	<path class="st9" d="M324.44,51.01c-0.67,0-1.19-0.18-1.56-0.55c-0.37-0.37-0.55-0.9-0.55-1.61V40.9c0-0.69,0.18-1.22,0.54-1.58
		c0.36-0.37,0.88-0.55,1.55-0.55s1.18,0.18,1.54,0.55c0.35,0.37,0.53,0.9,0.53,1.58v1.13l-0.26-0.98c0.38-0.75,0.93-1.33,1.64-1.73
		c0.71-0.4,1.52-0.6,2.44-0.6c0.94,0,1.72,0.18,2.33,0.54c0.61,0.36,1.06,0.92,1.37,1.68c0.3,0.76,0.46,1.72,0.46,2.87v5.04
		c0,0.7-0.18,1.24-0.55,1.61c-0.37,0.37-0.9,0.55-1.58,0.55c-0.69,0-1.22-0.18-1.58-0.55c-0.37-0.37-0.55-0.9-0.55-1.61v-4.87
		c0-0.72-0.12-1.23-0.37-1.54c-0.25-0.3-0.61-0.46-1.09-0.46c-0.64,0-1.15,0.2-1.54,0.61c-0.38,0.41-0.58,0.96-0.58,1.64v4.61
		C326.6,50.29,325.88,51.01,324.44,51.01z"/>
</g>
<g>
	<path class="st9" d="M4.28,215.45c-0.57,0-1.07-0.11-1.51-0.33c-0.44-0.22-0.79-0.51-1.04-0.89c-0.25-0.37-0.38-0.79-0.38-1.26
		c0-0.58,0.15-1.03,0.45-1.37s0.78-0.58,1.46-0.73s1.57-0.22,2.7-0.22h0.8v1.15H5.98c-0.66,0-1.19,0.03-1.58,0.1
		s-0.67,0.17-0.84,0.33c-0.17,0.15-0.25,0.37-0.25,0.65c0,0.35,0.12,0.64,0.37,0.86c0.25,0.22,0.59,0.34,1.02,0.34
		c0.35,0,0.66-0.08,0.94-0.25c0.27-0.17,0.49-0.39,0.65-0.68s0.24-0.62,0.24-0.99v-1.84c0-0.53-0.12-0.92-0.35-1.15
		c-0.23-0.23-0.63-0.35-1.18-0.35c-0.31,0-0.64,0.04-1,0.11c-0.36,0.07-0.73,0.2-1.13,0.38c-0.2,0.1-0.38,0.12-0.54,0.08
		c-0.16-0.04-0.28-0.13-0.36-0.26c-0.08-0.13-0.13-0.28-0.13-0.44c0-0.16,0.04-0.32,0.13-0.47c0.08-0.15,0.23-0.27,0.43-0.34
		c0.49-0.2,0.96-0.35,1.42-0.43c0.45-0.09,0.87-0.13,1.24-0.13c0.77,0,1.4,0.12,1.9,0.35c0.5,0.23,0.87,0.59,1.11,1.06
		c0.25,0.47,0.37,1.09,0.37,1.83v3.84c0,0.33-0.08,0.58-0.24,0.76c-0.16,0.18-0.39,0.26-0.69,0.26s-0.53-0.09-0.7-0.26
		c-0.17-0.18-0.25-0.43-0.25-0.76v-0.77h0.13c-0.07,0.37-0.22,0.7-0.44,0.97s-0.49,0.48-0.82,0.63
		C5.09,215.37,4.71,215.45,4.28,215.45z"/>
	<path class="st9" d="M14.11,218.33c-0.58,0-1.13-0.05-1.67-0.16c-0.54-0.11-1.03-0.27-1.46-0.5c-0.2-0.11-0.34-0.23-0.41-0.38
		s-0.09-0.3-0.06-0.46s0.09-0.29,0.19-0.41c0.1-0.12,0.23-0.2,0.38-0.24c0.15-0.04,0.3-0.02,0.46,0.06
		c0.47,0.23,0.91,0.39,1.34,0.46c0.42,0.07,0.78,0.1,1.08,0.1c0.71,0,1.25-0.17,1.61-0.52s0.54-0.86,0.54-1.54v-1.44h0.14
		c-0.16,0.54-0.49,0.98-1,1.3c-0.51,0.33-1.08,0.49-1.72,0.49c-0.7,0-1.32-0.16-1.84-0.49c-0.52-0.33-0.93-0.78-1.22-1.37
		s-0.43-1.27-0.43-2.05c0-0.59,0.08-1.12,0.25-1.59c0.17-0.47,0.4-0.88,0.7-1.22c0.3-0.34,0.67-0.6,1.1-0.79
		c0.43-0.19,0.91-0.28,1.43-0.28c0.66,0,1.24,0.16,1.74,0.49c0.5,0.33,0.82,0.75,0.97,1.29l-0.16,0.4v-1.14
		c0-0.33,0.09-0.58,0.26-0.75c0.18-0.17,0.42-0.26,0.73-0.26c0.32,0,0.57,0.09,0.74,0.26c0.17,0.17,0.26,0.42,0.26,0.75v6.16
		c0,1.27-0.34,2.22-1.01,2.86S15.38,218.33,14.11,218.33z M14.06,213.57c0.42,0,0.77-0.1,1.07-0.29s0.53-0.47,0.7-0.82
		c0.17-0.36,0.25-0.78,0.25-1.27c0-0.74-0.18-1.31-0.54-1.74c-0.36-0.42-0.85-0.63-1.47-0.63c-0.42,0-0.77,0.1-1.07,0.29
		c-0.3,0.19-0.53,0.46-0.7,0.82c-0.17,0.35-0.25,0.77-0.25,1.26c0,0.74,0.18,1.32,0.54,1.74C12.95,213.36,13.44,213.57,14.06,213.57
		z"/>
	<path class="st9" d="M23.98,215.45c-0.89,0-1.65-0.17-2.29-0.5c-0.64-0.33-1.13-0.8-1.48-1.41s-0.52-1.33-0.52-2.16
		c0-0.81,0.17-1.52,0.5-2.13c0.34-0.61,0.8-1.08,1.39-1.43s1.27-0.52,2.02-0.52c0.55,0,1.05,0.09,1.5,0.27
		c0.44,0.18,0.82,0.44,1.14,0.78c0.31,0.34,0.55,0.75,0.72,1.24s0.25,1.03,0.25,1.64c0,0.19-0.07,0.34-0.2,0.44
		c-0.13,0.1-0.32,0.15-0.57,0.15H21.3v-1.15h4.5l-0.26,0.24c0-0.49-0.07-0.9-0.22-1.23c-0.14-0.33-0.35-0.58-0.62-0.76
		c-0.27-0.18-0.61-0.26-1.02-0.26c-0.45,0-0.83,0.1-1.14,0.31s-0.55,0.5-0.72,0.88c-0.17,0.38-0.25,0.83-0.25,1.35v0.11
		c0,0.87,0.21,1.53,0.62,1.96c0.41,0.43,1.02,0.65,1.82,0.65c0.28,0,0.59-0.03,0.94-0.1s0.67-0.19,0.98-0.36
		c0.22-0.13,0.42-0.18,0.59-0.17c0.17,0.02,0.31,0.08,0.41,0.18c0.1,0.11,0.16,0.24,0.18,0.39c0.02,0.15-0.01,0.31-0.09,0.47
		c-0.08,0.16-0.22,0.3-0.41,0.42c-0.37,0.23-0.8,0.41-1.29,0.52C24.84,215.39,24.39,215.45,23.98,215.45z"/>
</g>
<circle class="st13" cx="115.11" cy="226.65" r="19.89"/>
<g>
	<g>
		<path class="st10" d="M63,157.05c-0.32,0-0.57-0.09-0.74-0.26c-0.17-0.18-0.26-0.43-0.26-0.76v-9.5c0-0.33,0.08-0.58,0.26-0.75
			s0.42-0.26,0.74-0.26c0.32,0,0.57,0.09,0.74,0.26c0.18,0.17,0.26,0.42,0.26,0.75v4.14h-0.22c0.23-0.57,0.6-0.99,1.1-1.29
			s1.06-0.44,1.69-0.44c0.63,0,1.15,0.12,1.55,0.35c0.41,0.23,0.71,0.59,0.91,1.06c0.2,0.47,0.3,1.07,0.3,1.8v3.87
			c0,0.33-0.09,0.58-0.26,0.76c-0.17,0.18-0.42,0.26-0.74,0.26s-0.57-0.09-0.74-0.26c-0.18-0.18-0.26-0.43-0.26-0.76v-3.78
			c0-0.61-0.12-1.05-0.34-1.33c-0.23-0.28-0.58-0.42-1.06-0.42c-0.59,0-1.05,0.18-1.4,0.55c-0.35,0.37-0.52,0.86-0.52,1.46v3.5
			C64.01,156.71,63.67,157.05,63,157.05z"/>
		<path class="st10" d="M75.22,157.08c-0.89,0-1.65-0.17-2.29-0.5c-0.64-0.33-1.13-0.8-1.48-1.41s-0.52-1.33-0.52-2.16
			c0-0.81,0.17-1.52,0.5-2.13c0.34-0.61,0.8-1.08,1.39-1.43s1.27-0.52,2.02-0.52c0.55,0,1.05,0.09,1.5,0.27
			c0.44,0.18,0.82,0.44,1.14,0.78c0.31,0.34,0.55,0.75,0.72,1.24s0.25,1.03,0.25,1.64c0,0.19-0.07,0.34-0.2,0.44
			c-0.13,0.1-0.32,0.15-0.57,0.15h-5.14v-1.15h4.5l-0.26,0.24c0-0.49-0.07-0.9-0.22-1.23c-0.14-0.33-0.35-0.58-0.62-0.76
			c-0.27-0.18-0.61-0.26-1.02-0.26c-0.45,0-0.83,0.1-1.14,0.31s-0.55,0.5-0.72,0.88c-0.17,0.38-0.25,0.83-0.25,1.35v0.11
			c0,0.87,0.21,1.53,0.62,1.96c0.41,0.43,1.02,0.65,1.82,0.65c0.28,0,0.59-0.03,0.94-0.1s0.67-0.19,0.98-0.36
			c0.22-0.13,0.42-0.18,0.59-0.17c0.17,0.02,0.31,0.08,0.41,0.18c0.1,0.11,0.16,0.24,0.18,0.39c0.02,0.15-0.01,0.31-0.09,0.47
			c-0.08,0.16-0.22,0.3-0.41,0.42c-0.37,0.23-0.8,0.41-1.29,0.52C76.09,157.02,75.64,157.08,75.22,157.08z"/>
		<path class="st10" d="M82.62,157.08c-0.57,0-1.07-0.11-1.51-0.33c-0.44-0.22-0.79-0.51-1.04-0.89c-0.25-0.37-0.38-0.79-0.38-1.26
			c0-0.58,0.15-1.03,0.45-1.37s0.78-0.58,1.46-0.73s1.57-0.22,2.7-0.22h0.8v1.15h-0.78c-0.66,0-1.19,0.03-1.58,0.1
			s-0.67,0.17-0.84,0.33c-0.17,0.15-0.25,0.37-0.25,0.65c0,0.35,0.12,0.64,0.37,0.86c0.25,0.22,0.59,0.34,1.02,0.34
			c0.35,0,0.66-0.08,0.94-0.25c0.27-0.17,0.49-0.39,0.65-0.68s0.24-0.62,0.24-0.99v-1.84c0-0.53-0.12-0.92-0.35-1.15
			c-0.23-0.23-0.63-0.35-1.18-0.35c-0.31,0-0.64,0.04-1,0.11c-0.36,0.07-0.73,0.2-1.13,0.38c-0.2,0.1-0.38,0.12-0.54,0.08
			c-0.16-0.04-0.28-0.13-0.36-0.26s-0.13-0.28-0.13-0.44c0-0.16,0.04-0.32,0.13-0.47c0.08-0.15,0.23-0.27,0.43-0.34
			c0.49-0.2,0.96-0.35,1.42-0.43c0.45-0.09,0.87-0.13,1.24-0.13c0.77,0,1.4,0.12,1.9,0.35c0.5,0.23,0.87,0.59,1.11,1.06
			c0.25,0.47,0.37,1.09,0.37,1.83v3.84c0,0.33-0.08,0.58-0.24,0.76c-0.16,0.18-0.39,0.26-0.69,0.26s-0.53-0.09-0.7-0.26
			c-0.17-0.18-0.25-0.43-0.25-0.76v-0.77h0.13c-0.07,0.37-0.22,0.7-0.44,0.97s-0.49,0.48-0.82,0.63
			C83.42,157.01,83.04,157.08,82.62,157.08z"/>
		<path class="st10" d="M91.8,157.08c-0.68,0-1.28-0.17-1.8-0.5s-0.92-0.8-1.21-1.42s-0.43-1.34-0.43-2.17
			c0-0.84,0.14-1.57,0.43-2.17s0.69-1.07,1.21-1.4s1.12-0.5,1.8-0.5c0.65,0,1.22,0.16,1.7,0.48c0.49,0.32,0.81,0.74,0.98,1.26h-0.18
			v-4.16c0-0.33,0.09-0.58,0.26-0.75c0.17-0.17,0.42-0.26,0.74-0.26c0.32,0,0.57,0.09,0.74,0.26s0.26,0.42,0.26,0.75v9.5
			c0,0.33-0.08,0.58-0.26,0.76c-0.17,0.18-0.42,0.26-0.74,0.26c-0.32,0-0.57-0.09-0.74-0.26c-0.17-0.18-0.26-0.43-0.26-0.76v-1.25
			l0.18,0.48c-0.16,0.55-0.49,1-0.98,1.33C93.04,156.91,92.46,157.08,91.8,157.08z M92.36,155.56c0.39,0,0.74-0.1,1.04-0.29
			c0.3-0.19,0.53-0.48,0.7-0.86s0.25-0.85,0.25-1.42c0-0.85-0.18-1.49-0.54-1.91s-0.84-0.63-1.44-0.63c-0.4,0-0.74,0.09-1.04,0.28
			c-0.3,0.19-0.53,0.47-0.7,0.85c-0.17,0.38-0.25,0.85-0.25,1.42c0,0.84,0.18,1.48,0.54,1.91
			C91.28,155.34,91.76,155.56,92.36,155.56z"/>
		<path class="st10" d="M106.3,157.08c-0.81,0-1.52-0.17-2.11-0.5c-0.6-0.33-1.06-0.8-1.39-1.42c-0.33-0.61-0.5-1.34-0.5-2.17
			c0-0.63,0.09-1.19,0.28-1.69s0.46-0.92,0.81-1.28c0.35-0.36,0.77-0.63,1.26-0.82c0.49-0.19,1.04-0.28,1.65-0.28
			c0.81,0,1.51,0.17,2.11,0.5s1.06,0.8,1.39,1.41c0.33,0.61,0.5,1.33,0.5,2.16c0,0.63-0.09,1.19-0.28,1.7
			c-0.19,0.5-0.46,0.93-0.81,1.29c-0.35,0.36-0.77,0.63-1.26,0.82S106.9,157.08,106.3,157.08z M106.3,155.56
			c0.39,0,0.74-0.1,1.04-0.29c0.3-0.19,0.53-0.48,0.7-0.86s0.25-0.85,0.25-1.42c0-0.85-0.18-1.49-0.54-1.91s-0.84-0.63-1.44-0.63
			c-0.4,0-0.74,0.09-1.04,0.28c-0.3,0.19-0.53,0.47-0.7,0.85c-0.17,0.38-0.25,0.85-0.25,1.42c0,0.84,0.18,1.48,0.54,1.91
			C105.22,155.34,105.7,155.56,106.3,155.56z"/>
		<path class="st10" d="M113.4,157.05c-0.32,0-0.57-0.09-0.74-0.26c-0.18-0.18-0.26-0.43-0.26-0.76v-5.42h-0.74
			c-0.26,0-0.45-0.07-0.59-0.2s-0.21-0.32-0.21-0.55c0-0.25,0.07-0.43,0.21-0.56s0.34-0.19,0.59-0.19h1.31l-0.58,0.53v-0.54
			c0-1.1,0.28-1.92,0.83-2.47c0.55-0.55,1.35-0.87,2.4-0.97l0.54-0.05c0.21-0.02,0.38,0.01,0.51,0.1c0.13,0.09,0.21,0.21,0.26,0.35
			c0.04,0.14,0.05,0.29,0.02,0.44c-0.03,0.15-0.1,0.28-0.2,0.39s-0.23,0.17-0.39,0.18l-0.22,0.02c-0.61,0.04-1.05,0.2-1.33,0.46
			c-0.28,0.27-0.42,0.67-0.42,1.22v0.59l-0.26-0.26h1.62c0.26,0,0.45,0.06,0.59,0.19s0.21,0.31,0.21,0.56
			c0,0.23-0.07,0.42-0.21,0.55s-0.34,0.2-0.59,0.2h-1.36v5.42C114.39,156.71,114.06,157.05,113.4,157.05z"/>
		<path class="st10" d="M63,175.05c-0.32,0-0.57-0.09-0.74-0.26c-0.17-0.18-0.26-0.43-0.26-0.76v-9.5c0-0.33,0.08-0.58,0.26-0.75
			s0.42-0.26,0.74-0.26c0.32,0,0.57,0.09,0.74,0.26c0.18,0.17,0.26,0.42,0.26,0.75v4.14h-0.22c0.23-0.57,0.6-0.99,1.1-1.29
			s1.06-0.44,1.69-0.44c0.63,0,1.15,0.12,1.55,0.35c0.41,0.23,0.71,0.59,0.91,1.06c0.2,0.47,0.3,1.07,0.3,1.8v3.87
			c0,0.33-0.09,0.58-0.26,0.76c-0.17,0.18-0.42,0.26-0.74,0.26s-0.57-0.09-0.74-0.26c-0.18-0.18-0.26-0.43-0.26-0.76v-3.78
			c0-0.61-0.12-1.05-0.34-1.33c-0.23-0.28-0.58-0.42-1.06-0.42c-0.59,0-1.05,0.18-1.4,0.55c-0.35,0.37-0.52,0.86-0.52,1.46v3.5
			C64.01,174.71,63.67,175.05,63,175.05z"/>
		<path class="st10" d="M74.94,175.08c-0.81,0-1.52-0.17-2.11-0.5c-0.6-0.33-1.06-0.8-1.39-1.42c-0.33-0.61-0.5-1.34-0.5-2.17
			c0-0.63,0.09-1.19,0.28-1.69s0.46-0.92,0.81-1.28c0.35-0.36,0.77-0.63,1.26-0.82c0.49-0.19,1.04-0.28,1.65-0.28
			c0.81,0,1.51,0.17,2.11,0.5s1.06,0.8,1.39,1.41c0.33,0.61,0.5,1.33,0.5,2.16c0,0.63-0.09,1.19-0.28,1.7
			c-0.19,0.5-0.46,0.93-0.81,1.29c-0.35,0.36-0.77,0.63-1.26,0.82S75.54,175.08,74.94,175.08z M74.94,173.56
			c0.39,0,0.74-0.1,1.04-0.29c0.3-0.19,0.53-0.48,0.7-0.86s0.25-0.85,0.25-1.42c0-0.85-0.18-1.49-0.54-1.91s-0.84-0.63-1.44-0.63
			c-0.4,0-0.74,0.09-1.04,0.28c-0.3,0.19-0.53,0.47-0.7,0.85c-0.17,0.38-0.25,0.85-0.25,1.42c0,0.84,0.18,1.48,0.54,1.91
			C73.86,173.34,74.34,173.56,74.94,173.56z"/>
		<path class="st10" d="M83.42,175.08c-0.65,0-1.19-0.12-1.62-0.36c-0.43-0.24-0.74-0.6-0.95-1.08s-0.31-1.08-0.31-1.79v-3.87
			c0-0.34,0.08-0.59,0.26-0.76c0.17-0.17,0.42-0.25,0.74-0.25c0.32,0,0.57,0.08,0.74,0.25c0.18,0.17,0.26,0.42,0.26,0.76v3.9
			c0,0.55,0.11,0.97,0.34,1.23c0.22,0.27,0.58,0.4,1.07,0.4c0.53,0,0.97-0.18,1.31-0.55s0.51-0.86,0.51-1.46v-3.52
			c0-0.34,0.09-0.59,0.26-0.76c0.17-0.17,0.42-0.25,0.74-0.25c0.32,0,0.57,0.08,0.74,0.25c0.18,0.17,0.26,0.42,0.26,0.76v6.05
			c0,0.68-0.33,1.02-0.98,1.02c-0.31,0-0.55-0.09-0.72-0.26c-0.17-0.18-0.26-0.43-0.26-0.76v-1.22l0.22,0.48
			c-0.22,0.58-0.56,1.02-1.02,1.33C84.57,174.93,84.04,175.08,83.42,175.08z"/>
		<path class="st10" d="M92.71,175.08c-0.46,0-0.94-0.05-1.46-0.14c-0.51-0.1-0.97-0.26-1.38-0.5c-0.17-0.11-0.29-0.23-0.36-0.38
			s-0.1-0.29-0.08-0.43c0.02-0.14,0.07-0.27,0.16-0.38c0.09-0.11,0.21-0.18,0.35-0.21c0.14-0.03,0.3-0.01,0.47,0.08
			c0.43,0.2,0.83,0.34,1.2,0.42c0.37,0.08,0.74,0.12,1.1,0.12c0.51,0,0.89-0.09,1.14-0.26c0.25-0.18,0.38-0.41,0.38-0.7
			c0-0.25-0.08-0.43-0.25-0.57c-0.17-0.13-0.41-0.23-0.74-0.3l-1.6-0.3c-0.66-0.13-1.17-0.37-1.51-0.73s-0.52-0.82-0.52-1.38
			c0-0.51,0.14-0.95,0.42-1.33c0.28-0.37,0.67-0.66,1.18-0.86c0.5-0.2,1.08-0.3,1.73-0.3c0.47,0,0.91,0.05,1.32,0.15
			c0.41,0.1,0.81,0.26,1.19,0.47c0.16,0.09,0.27,0.2,0.33,0.34c0.06,0.14,0.07,0.28,0.04,0.42c-0.03,0.14-0.1,0.27-0.19,0.38
			c-0.1,0.11-0.22,0.18-0.36,0.21c-0.14,0.03-0.31,0-0.49-0.09c-0.33-0.17-0.65-0.29-0.95-0.37c-0.3-0.07-0.59-0.11-0.87-0.11
			c-0.52,0-0.91,0.09-1.16,0.27c-0.25,0.18-0.38,0.42-0.38,0.72c0,0.22,0.07,0.41,0.22,0.56s0.38,0.25,0.69,0.3l1.6,0.3
			c0.69,0.13,1.22,0.36,1.58,0.7s0.54,0.8,0.54,1.38c0,0.78-0.3,1.39-0.91,1.83C94.54,174.86,93.73,175.08,92.71,175.08z"/>
		<path class="st10" d="M101.51,175.08c-0.89,0-1.65-0.17-2.29-0.5c-0.64-0.33-1.13-0.8-1.48-1.41s-0.52-1.33-0.52-2.16
			c0-0.81,0.17-1.52,0.5-2.13c0.34-0.61,0.8-1.08,1.39-1.43s1.27-0.52,2.02-0.52c0.55,0,1.05,0.09,1.5,0.27
			c0.44,0.18,0.82,0.44,1.14,0.78c0.31,0.34,0.55,0.75,0.72,1.24s0.25,1.03,0.25,1.64c0,0.19-0.07,0.34-0.2,0.44
			c-0.13,0.1-0.32,0.15-0.57,0.15h-5.14v-1.15h4.5l-0.26,0.24c0-0.49-0.07-0.9-0.22-1.23c-0.14-0.33-0.35-0.58-0.62-0.76
			c-0.27-0.18-0.61-0.26-1.02-0.26c-0.45,0-0.83,0.1-1.14,0.31s-0.55,0.5-0.72,0.88c-0.17,0.38-0.25,0.83-0.25,1.35v0.11
			c0,0.87,0.21,1.53,0.62,1.96c0.41,0.43,1.02,0.65,1.82,0.65c0.28,0,0.59-0.03,0.94-0.1s0.67-0.19,0.98-0.36
			c0.22-0.13,0.42-0.18,0.59-0.17c0.17,0.02,0.31,0.08,0.41,0.18c0.1,0.11,0.16,0.24,0.18,0.39c0.02,0.15-0.01,0.31-0.09,0.47
			c-0.08,0.16-0.22,0.3-0.41,0.42c-0.37,0.23-0.8,0.41-1.29,0.52C102.38,175.02,101.93,175.08,101.51,175.08z"/>
		<path class="st10" d="M107.32,175.05c-0.32,0-0.57-0.09-0.74-0.26c-0.17-0.18-0.26-0.43-0.26-0.76v-9.5
			c0-0.33,0.08-0.58,0.26-0.75s0.42-0.26,0.74-0.26c0.32,0,0.57,0.09,0.74,0.26c0.18,0.17,0.26,0.42,0.26,0.75v4.14h-0.22
			c0.23-0.57,0.6-0.99,1.1-1.29s1.06-0.44,1.69-0.44c0.63,0,1.15,0.12,1.55,0.35c0.41,0.23,0.71,0.59,0.91,1.06
			c0.2,0.47,0.3,1.07,0.3,1.8v3.87c0,0.33-0.09,0.58-0.26,0.76c-0.17,0.18-0.42,0.26-0.74,0.26s-0.57-0.09-0.74-0.26
			c-0.18-0.18-0.26-0.43-0.26-0.76v-3.78c0-0.61-0.12-1.05-0.34-1.33c-0.23-0.28-0.58-0.42-1.06-0.42c-0.59,0-1.05,0.18-1.4,0.55
			c-0.35,0.37-0.52,0.86-0.52,1.46v3.5C108.33,174.71,107.99,175.05,107.32,175.05z"/>
		<path class="st10" d="M119.26,175.08c-0.81,0-1.52-0.17-2.11-0.5c-0.6-0.33-1.06-0.8-1.39-1.42c-0.33-0.61-0.5-1.34-0.5-2.17
			c0-0.63,0.09-1.19,0.28-1.69s0.46-0.92,0.81-1.28c0.35-0.36,0.77-0.63,1.26-0.82c0.49-0.19,1.04-0.28,1.65-0.28
			c0.81,0,1.51,0.17,2.11,0.5s1.06,0.8,1.39,1.41c0.33,0.61,0.5,1.33,0.5,2.16c0,0.63-0.09,1.19-0.28,1.7
			c-0.19,0.5-0.46,0.93-0.81,1.29c-0.35,0.36-0.77,0.63-1.26,0.82S119.86,175.08,119.26,175.08z M119.26,173.56
			c0.39,0,0.74-0.1,1.04-0.29c0.3-0.19,0.53-0.48,0.7-0.86s0.25-0.85,0.25-1.42c0-0.85-0.18-1.49-0.54-1.91s-0.84-0.63-1.44-0.63
			c-0.4,0-0.74,0.09-1.04,0.28c-0.3,0.19-0.53,0.47-0.7,0.85c-0.17,0.38-0.25,0.85-0.25,1.42c0,0.84,0.18,1.48,0.54,1.91
			C118.18,173.34,118.66,173.56,119.26,173.56z"/>
		<path class="st10" d="M127.58,175.08c-0.89,0-1.55-0.25-2-0.76c-0.45-0.51-0.67-1.25-0.67-2.23v-7.57c0-0.33,0.08-0.58,0.26-0.75
			s0.42-0.26,0.74-0.26c0.32,0,0.57,0.09,0.74,0.26c0.18,0.17,0.26,0.42,0.26,0.75v7.47c0,0.49,0.1,0.85,0.31,1.09
			c0.21,0.23,0.5,0.35,0.89,0.35c0.08,0,0.17,0,0.24-0.01c0.07-0.01,0.15-0.01,0.22-0.02c0.15-0.02,0.25,0.02,0.3,0.12
			s0.08,0.31,0.08,0.62c0,0.27-0.05,0.48-0.16,0.62c-0.11,0.15-0.28,0.24-0.53,0.27c-0.11,0.01-0.22,0.02-0.34,0.03
			C127.81,175.07,127.69,175.08,127.58,175.08z"/>
		<path class="st10" d="M132.94,175.08c-0.68,0-1.28-0.17-1.8-0.5s-0.92-0.8-1.21-1.42s-0.43-1.34-0.43-2.17
			c0-0.84,0.14-1.57,0.43-2.17s0.69-1.07,1.21-1.4s1.12-0.5,1.8-0.5c0.65,0,1.22,0.16,1.7,0.48c0.49,0.32,0.81,0.74,0.98,1.26h-0.18
			v-4.16c0-0.33,0.09-0.58,0.26-0.75c0.17-0.17,0.42-0.26,0.74-0.26c0.32,0,0.57,0.09,0.74,0.26s0.26,0.42,0.26,0.75v9.5
			c0,0.33-0.08,0.58-0.26,0.76c-0.17,0.18-0.42,0.26-0.74,0.26c-0.32,0-0.57-0.09-0.74-0.26c-0.17-0.18-0.26-0.43-0.26-0.76v-1.25
			l0.18,0.48c-0.16,0.55-0.49,1-0.98,1.33C134.17,174.91,133.6,175.08,132.94,175.08z M133.5,173.56c0.39,0,0.74-0.1,1.04-0.29
			c0.3-0.19,0.53-0.48,0.7-0.86s0.25-0.85,0.25-1.42c0-0.85-0.18-1.49-0.54-1.91s-0.84-0.63-1.44-0.63c-0.4,0-0.74,0.09-1.04,0.28
			c-0.3,0.19-0.53,0.47-0.7,0.85c-0.17,0.38-0.25,0.85-0.25,1.42c0,0.84,0.18,1.48,0.54,1.91
			C132.42,173.34,132.9,173.56,133.5,173.56z"/>
	</g>
</g>
<polyline class="st11" points="113.34,227.77 88.04,227.77 65.9,177.58 "/>
<g>
	<path class="st9" d="M162.68,196.58c-0.28,0-0.51-0.08-0.67-0.24c-0.16-0.16-0.24-0.38-0.24-0.67v-10.3c0-0.3,0.08-0.52,0.23-0.67
		s0.37-0.23,0.66-0.23s0.5,0.08,0.66,0.23s0.23,0.38,0.23,0.67v9.69h5.3c0.25,0,0.44,0.07,0.58,0.2s0.21,0.32,0.21,0.56
		c0,0.24-0.07,0.43-0.21,0.56s-0.33,0.21-0.58,0.21H162.68z"/>
</g>
<g>
	<path class="st10" d="M238.98,171.38c-0.89,0-1.55-0.25-2-0.76c-0.45-0.51-0.67-1.25-0.67-2.23v-7.57c0-0.33,0.09-0.58,0.26-0.75
		c0.17-0.17,0.42-0.26,0.74-0.26c0.32,0,0.57,0.09,0.74,0.26c0.18,0.17,0.26,0.42,0.26,0.75v7.47c0,0.49,0.1,0.85,0.31,1.09
		s0.5,0.35,0.89,0.35c0.08,0,0.17,0,0.24-0.01c0.07,0,0.15-0.01,0.22-0.02c0.15-0.02,0.25,0.02,0.3,0.12
		c0.05,0.1,0.08,0.31,0.08,0.62c0,0.27-0.05,0.47-0.16,0.62c-0.11,0.15-0.28,0.24-0.53,0.27c-0.11,0.01-0.22,0.02-0.34,0.03
		C239.21,171.37,239.09,171.38,238.98,171.38z"/>
	<path class="st10" d="M243.99,171.38c-0.57,0-1.07-0.11-1.51-0.33c-0.44-0.22-0.79-0.51-1.04-0.89c-0.25-0.37-0.38-0.79-0.38-1.26
		c0-0.58,0.15-1.03,0.45-1.37c0.3-0.34,0.78-0.58,1.46-0.73c0.67-0.15,1.57-0.22,2.7-0.22h0.8v1.15h-0.78
		c-0.66,0-1.19,0.03-1.58,0.1c-0.4,0.06-0.67,0.17-0.84,0.33c-0.17,0.16-0.25,0.37-0.25,0.65c0,0.35,0.12,0.64,0.37,0.86
		c0.25,0.22,0.59,0.34,1.02,0.34c0.35,0,0.66-0.08,0.94-0.25c0.27-0.17,0.49-0.39,0.65-0.68c0.16-0.29,0.24-0.62,0.24-0.99v-1.84
		c0-0.53-0.12-0.92-0.35-1.15c-0.23-0.23-0.63-0.35-1.18-0.35c-0.31,0-0.64,0.04-1,0.11c-0.36,0.08-0.73,0.2-1.13,0.38
		c-0.2,0.1-0.38,0.12-0.54,0.08c-0.15-0.04-0.27-0.13-0.36-0.26c-0.09-0.13-0.13-0.28-0.13-0.44c0-0.16,0.04-0.32,0.13-0.47
		c0.09-0.15,0.23-0.27,0.43-0.34c0.49-0.2,0.96-0.35,1.42-0.43c0.45-0.08,0.87-0.13,1.24-0.13c0.77,0,1.4,0.12,1.9,0.35
		c0.5,0.23,0.87,0.59,1.11,1.06c0.25,0.48,0.37,1.09,0.37,1.83v3.84c0,0.33-0.08,0.58-0.24,0.76s-0.39,0.26-0.69,0.26
		c-0.3,0-0.53-0.09-0.7-0.26c-0.17-0.18-0.25-0.43-0.25-0.76v-0.77h0.13c-0.07,0.37-0.22,0.7-0.44,0.97
		c-0.22,0.27-0.49,0.48-0.82,0.63C244.79,171.3,244.41,171.38,243.99,171.38z"/>
	<path class="st10" d="M253.75,171.38c-0.69,0-1.27-0.12-1.74-0.35c-0.46-0.23-0.81-0.58-1.03-1.03c-0.22-0.45-0.34-1.02-0.34-1.69
		v-3.41h-0.83c-0.26,0-0.45-0.07-0.59-0.2c-0.14-0.13-0.21-0.32-0.21-0.55c0-0.25,0.07-0.43,0.21-0.56
		c0.14-0.13,0.34-0.19,0.59-0.19h0.83v-1.46c0-0.33,0.09-0.58,0.26-0.75c0.18-0.17,0.42-0.26,0.74-0.26c0.32,0,0.57,0.09,0.74,0.26
		c0.17,0.17,0.26,0.42,0.26,0.75v1.46h1.7c0.26,0,0.45,0.06,0.59,0.19c0.14,0.13,0.21,0.31,0.21,0.56c0,0.24-0.07,0.42-0.21,0.55
		c-0.14,0.13-0.34,0.2-0.59,0.2h-1.7v3.3c0,0.51,0.11,0.9,0.34,1.15s0.59,0.38,1.09,0.38c0.18,0,0.34-0.02,0.48-0.05
		s0.26-0.05,0.37-0.06c0.13-0.01,0.23,0.03,0.32,0.12c0.09,0.09,0.13,0.28,0.13,0.55c0,0.21-0.04,0.4-0.1,0.57
		c-0.07,0.17-0.19,0.28-0.38,0.34c-0.14,0.04-0.32,0.08-0.54,0.12C254.11,171.36,253.92,171.38,253.75,171.38z"/>
	<path class="st10" d="M257.51,161.79c-0.37,0-0.66-0.09-0.87-0.28s-0.31-0.45-0.31-0.78c0-0.34,0.1-0.6,0.31-0.78
		s0.5-0.27,0.87-0.27c0.38,0,0.68,0.09,0.88,0.27c0.2,0.18,0.3,0.44,0.3,0.78c0,0.33-0.1,0.59-0.3,0.78
		C258.18,161.7,257.89,161.79,257.51,161.79z M257.51,171.33c-0.32,0-0.57-0.1-0.74-0.29c-0.17-0.19-0.26-0.46-0.26-0.8v-5.87
		c0-0.35,0.09-0.62,0.26-0.81s0.42-0.28,0.74-0.28c0.32,0,0.57,0.09,0.74,0.28c0.18,0.19,0.26,0.46,0.26,0.81v5.87
		c0,0.34-0.09,0.61-0.26,0.8C258.09,171.23,257.84,171.33,257.51,171.33z"/>
	<path class="st10" d="M261.58,171.34c-0.32,0-0.57-0.09-0.74-0.26s-0.26-0.43-0.26-0.76v-6.05c0-0.33,0.09-0.58,0.26-0.75
		c0.17-0.17,0.41-0.26,0.72-0.26c0.31,0,0.55,0.09,0.72,0.26c0.17,0.17,0.26,0.42,0.26,0.75v1.09l-0.18-0.4
		c0.23-0.57,0.6-1,1.1-1.29s1.06-0.44,1.69-0.44s1.15,0.12,1.55,0.35s0.71,0.59,0.91,1.06c0.2,0.48,0.3,1.08,0.3,1.8v3.87
		c0,0.33-0.09,0.58-0.26,0.76c-0.17,0.18-0.42,0.26-0.74,0.26s-0.57-0.09-0.74-0.26c-0.18-0.18-0.26-0.43-0.26-0.76v-3.78
		c0-0.61-0.11-1.05-0.34-1.33s-0.58-0.42-1.06-0.42c-0.59,0-1.05,0.18-1.4,0.55s-0.52,0.86-0.52,1.46v3.5
		C262.59,171,262.26,171.34,261.58,171.34z"/>
	<path class="st10" d="M273.52,171.38c-0.81,0-1.51-0.17-2.11-0.5c-0.6-0.33-1.06-0.8-1.39-1.42s-0.5-1.34-0.5-2.17
		c0-0.63,0.09-1.19,0.28-1.69c0.19-0.5,0.46-0.92,0.81-1.28c0.35-0.36,0.77-0.63,1.26-0.82s1.04-0.28,1.65-0.28
		c0.81,0,1.51,0.17,2.11,0.5c0.6,0.33,1.06,0.8,1.39,1.41s0.5,1.33,0.5,2.16c0,0.63-0.09,1.19-0.28,1.7
		c-0.19,0.5-0.46,0.93-0.81,1.29s-0.77,0.63-1.26,0.82S274.13,171.38,273.52,171.38z M273.52,169.86c0.39,0,0.74-0.1,1.04-0.29
		c0.3-0.19,0.53-0.48,0.7-0.86c0.17-0.38,0.25-0.85,0.25-1.42c0-0.85-0.18-1.49-0.54-1.91c-0.36-0.42-0.84-0.63-1.44-0.63
		c-0.39,0-0.74,0.09-1.04,0.28s-0.53,0.47-0.7,0.85c-0.17,0.38-0.25,0.85-0.25,1.42c0,0.84,0.18,1.48,0.54,1.91
		C272.44,169.64,272.92,169.86,273.52,169.86z"/>
	<path class="st10" d="M279.54,171.68c-0.06,0.2-0.17,0.35-0.3,0.44c-0.14,0.09-0.29,0.14-0.46,0.14s-0.32-0.04-0.46-0.13
		c-0.14-0.09-0.24-0.21-0.3-0.36s-0.06-0.34,0.01-0.55l3.7-11.47c0.06-0.2,0.17-0.35,0.31-0.45s0.3-0.14,0.46-0.14
		c0.16,0,0.31,0.05,0.45,0.14s0.24,0.2,0.3,0.35c0.06,0.15,0.06,0.33-0.01,0.54L279.54,171.68z"/>
	<path class="st10" d="M285.79,171.38c-0.57,0-1.07-0.11-1.51-0.33c-0.44-0.22-0.79-0.51-1.04-0.89c-0.25-0.37-0.38-0.79-0.38-1.26
		c0-0.58,0.15-1.03,0.45-1.37c0.3-0.34,0.78-0.58,1.46-0.73c0.67-0.15,1.57-0.22,2.7-0.22h0.8v1.15h-0.78
		c-0.66,0-1.19,0.03-1.58,0.1c-0.4,0.06-0.67,0.17-0.84,0.33c-0.17,0.16-0.25,0.37-0.25,0.65c0,0.35,0.12,0.64,0.37,0.86
		c0.25,0.22,0.59,0.34,1.02,0.34c0.35,0,0.66-0.08,0.94-0.25c0.27-0.17,0.49-0.39,0.65-0.68c0.16-0.29,0.24-0.62,0.24-0.99v-1.84
		c0-0.53-0.12-0.92-0.35-1.15c-0.23-0.23-0.63-0.35-1.18-0.35c-0.31,0-0.64,0.04-1,0.11c-0.36,0.08-0.73,0.2-1.13,0.38
		c-0.2,0.1-0.38,0.12-0.54,0.08c-0.15-0.04-0.27-0.13-0.36-0.26c-0.09-0.13-0.13-0.28-0.13-0.44c0-0.16,0.04-0.32,0.13-0.47
		c0.09-0.15,0.23-0.27,0.43-0.34c0.49-0.2,0.96-0.35,1.42-0.43c0.45-0.08,0.87-0.13,1.24-0.13c0.77,0,1.4,0.12,1.9,0.35
		c0.5,0.23,0.87,0.59,1.11,1.06c0.25,0.48,0.37,1.09,0.37,1.83v3.84c0,0.33-0.08,0.58-0.24,0.76s-0.39,0.26-0.69,0.26
		c-0.3,0-0.53-0.09-0.7-0.26c-0.17-0.18-0.25-0.43-0.25-0.76v-0.77h0.13c-0.07,0.37-0.22,0.7-0.44,0.97
		c-0.22,0.27-0.49,0.48-0.82,0.63C286.6,171.3,286.22,171.38,285.79,171.38z"/>
</g>
<polyline class="st11" points="230.17,166.72 180.18,166.83 169.65,182.46 "/>
<g>
	<line class="st14" x1="141.9" y1="73.05" x2="141.9" y2="103.65"/>
	<polyline class="st15" points="137.6,100.99 141.82,106.31 146.19,100.99 	"/>
</g>
</svg>
